<svg id="Layer_1" data-name="Layer 1" xmlns="http://www.w3.org/2000/svg" viewBox="0 0 1936.02 1196.76"><defs><style>.cls-1{fill:#4978de;}.cls-2{fill:#456cd1;}.cls-3{fill:#fbd1c2;}.cls-4{fill:#ecc2b5;}</style></defs><title>img_00_bg</title><path class="cls-1" d="M369.4,463.76c66.15,28.68,99.26,77.94,152.2,115.7,124.91,89.1,343.68,102.09,526.76,75.23,213-31.27,389-97.31,619.46-56.68,106.72,18.81,206,60.61,268.18,116.8V76.21c-75.68,11.09-154,16.34-233.38,13.67C1615.19,87,1526.71,74,1457.38,45c-30.53-12.77-56-28-76.94-44.95H0V484.13C112.94,443.85,261.17,416.83,369.4,463.76Z" transform="translate(0)"/><path class="cls-2" d="M1048.36,654.69c-183.08,26.86-401.85,13.87-526.76-75.23-52.94-37.76-86.05-87-152.2-115.7C261.17,416.83,112.94,443.85,0,484.13V812.7c53.18-4.13,106.89-4.75,153.89,1.09,82.68,10.21,118.26,37,126.63,62.66s-3.26,52.38,16.94,77.2c5.12,6.29,13,12.73,30.93,16.61,43.33,9.39,111.27-1.27,156.19-12.56,113.57-28.55,204-63.28,305.88-95s221.19-61.59,363.67-74.74,311.5-5.45,387.28,27c73.24,31.35,43.72,75.21,84.73,111.4,8,7,19.25,14,39.68,18.5,41.84,9.23,107,5.39,160.4-1,37.84-4.54,74.19-10.14,109.79-16.25V714.81c-62.19-56.19-161.46-98-268.18-116.8C1437.33,557.38,1261.39,623.42,1048.36,654.69Z" transform="translate(0)"/><path class="cls-2" d="M1702.62,89.88C1782,92.55,1860.32,87.3,1936,76.21V0H1380.44c21,17,46.41,32.18,76.94,45C1526.71,74,1615.19,87,1702.62,89.88Z" transform="translate(0)"/><path class="cls-3" d="M1665.81,944.81c-20.43-4.51-31.71-11.47-39.68-18.5-41-36.19-11.49-80-84.73-111.4-75.78-32.43-244.81-40.13-387.28-27s-261.82,43-363.67,74.74-192.31,66.48-305.88,95c-44.92,11.29-112.86,22-156.19,12.56-17.89-3.88-25.81-10.32-30.93-16.61-20.2-24.82-8.57-51.56-16.94-77.2S236.56,824,153.89,813.79C106.89,808,53.19,808.57,0,812.7v334.59c35-19.43,71.51-35.82,110.61-47,108.57-31.17,224-17,320.31,23,51,21.16,98.25,49.39,147.45,73.47h812.51c70.23-33.41,140.16-66,213.26-78.14,86.56-14.42,166.55,2.76,226.21,36.4,22.16,12.49,42.07,27.24,62.17,41.74H1936V927.55c-35.6,6.11-72,11.71-109.79,16.25C1772.89,950.2,1707.65,954,1665.81,944.81Z" transform="translate(0)"/><path class="cls-4" d="M1604.13,1118.56c-73.1,12.17-143,44.73-213.26,78.14h501.64c-20.1-14.5-40-29.25-62.17-41.74C1770.68,1121.32,1690.69,1104.14,1604.13,1118.56Z" transform="translate(0)"/><path class="cls-4" d="M110.61,1100.24c-39.1,11.23-75.6,27.62-110.61,47v49.41H578.37c-49.2-24.08-96.41-52.31-147.45-73.47C334.57,1083.28,219.18,1069.07,110.61,1100.24Z" transform="translate(0)"/></svg>