<svg id="Layer_1" data-name="Layer 1" xmlns="http://www.w3.org/2000/svg" viewBox="0 0 610.5 418.77"><defs><style>.cls-1{fill:#456cd1;}.cls-2{fill:#e7bb9e;}.cls-3{fill:#ccc;}.cls-4{fill:#4978de;}.cls-5{fill:#fff;}.cls-6{fill:#b7dff4;}.cls-7{fill:#ace2ff;}.cls-8{fill:#383838;}.cls-9{fill:#fbd1c2;}.cls-10{fill:#f6f3ef;}.cls-11{fill:#faa86c;}</style></defs><title>img_01</title><path class="cls-1" d="M647.28,476c1.14,12.64,6,26.15,17,32.3,13.28,7.43,29.92,1.35,42.9-6.6,20.54-12.59,38-29.52,55.84-45.83,23.64-21.69,48.38-42.59,74.89-60.5,25.27-17.06,55.1-28.94,85.93-27,14.08.88,28.32,4.79,39.49,13.5,20.2,15.76,26.56,43.92,26.18,69.71-.51,33.67-11.33,62.4-22.63,93.25q-17.91,48.9-40.29,96C905,686.12,877.78,732.55,833.21,755c-14,7-31.22,11.24-44.83,3.51-13.23-7.53-18.78-24-20-39.31s.87-30.89-2.21-45.91c-.79-3.82-2-7.76-4.87-10.37-6.91-6.34-17.91-1.26-25.21,4.6-18.47,14.82-33.26,33.71-49.86,50.63s-36,32.4-59,37.6-50.16-2.4-62.14-22.93c-11.57-19.83-6.53-45.22-12.89-67.34-1.23-4.29-3-8.61-6.26-11.65-6.67-6.2-17.19-5.11-25.81-2.29-27.64,9-50.52,31.4-79.28,35.47-11.68,1.65-24.68-.37-32.94-8.87-7.31-7.53-9.61-18.93-8.32-29.4,2.1-17,11.92-31.17,20.16-45.64,9-15.83,18.12-31.62,27.44-47.28,18.63-31.28,38.14-62.06,59.57-91.47,15.95-21.9,33.08-43.16,53.7-60.62,10.13-8.58,21.28-16.32,33.93-20.23,17.2-5.31,35.19-2.45,44.88,14.09C653.56,421.88,644.88,449.52,647.28,476Z" transform="translate(-399.29 -352.52)"/><path class="cls-2" d="M968,716h-206v-1H968a7.5,7.5,0,0,0,7.49-7.48V691.63h1v15.91A8.49,8.49,0,0,1,968,716Z" transform="translate(-399.29 -352.52)"/><path class="cls-2" d="M689.79,704.47h-1V484.71a8.5,8.5,0,0,1,8.49-8.49H968a8.49,8.49,0,0,1,8.49,8.49V628.06h-1V484.71a7.5,7.5,0,0,0-7.49-7.49H697.28a7.5,7.5,0,0,0-7.49,7.49Z" transform="translate(-399.29 -352.52)"/><circle class="cls-3" cx="559.54" cy="138.06" r="3.06"/><circle class="cls-3" cx="930.75" cy="490.58" r="3.06" transform="translate(-101.87 978.21) rotate(-80.78)"/><circle class="cls-3" cx="944.79" cy="490.58" r="3.06" transform="translate(-149.02 944.87) rotate(-76.72)"/><rect class="cls-2" x="290" y="150.46" width="286.66" height="1"/><path class="cls-2" d="M1003.58,691.93h-6.52c-3.54,0-6.21-1.33-6.21-3.09V609.43c0-1.76,2.67-3.09,6.21-3.09h6.52c3.54,0,6.21,1.33,6.21,3.09v79.41C1009.79,690.6,1007.12,691.93,1003.58,691.93Zm-6.52-84.59c-3.07,0-5.21,1.11-5.21,2.09v79.41c0,1,2.14,2.09,5.21,2.09h6.52c3.07,0,5.21-1.1,5.21-2.09V609.43c0-1-2.14-2.09-5.21-2.09Z" transform="translate(-399.29 -352.52)"/><path class="cls-2" d="M979.37,691.93h-6.52c-3.54,0-6.21-1.33-6.21-3.09V631.17c0-1.76,2.67-3.08,6.21-3.08h6.52c3.54,0,6.21,1.32,6.21,3.08v57.67C985.58,690.6,982.91,691.93,979.37,691.93Zm-6.52-62.84c-3.07,0-5.21,1.1-5.21,2.08v57.67c0,1,2.14,2.09,5.21,2.09h6.52c3.07,0,5.21-1.1,5.21-2.09V631.17c0-1-2.14-2.08-5.21-2.08Z" transform="translate(-399.29 -352.52)"/><path class="cls-2" d="M955.16,691.93h-6.52c-3.54,0-6.21-1.33-6.21-3.09V624.32c0-1.76,2.67-3.08,6.21-3.08h6.52c3.54,0,6.21,1.32,6.21,3.08v64.52C961.37,690.6,958.7,691.93,955.16,691.93Zm-6.52-69.69c-3.07,0-5.21,1.1-5.21,2.08v64.52c0,1,2.14,2.09,5.21,2.09h6.52c3.07,0,5.21-1.1,5.21-2.09V624.32c0-1-2.14-2.08-5.21-2.08Z" transform="translate(-399.29 -352.52)"/><path class="cls-2" d="M931,691.93h-6.52c-3.54,0-6.21-1.33-6.21-3.09v-49c0-1.76,2.67-3.09,6.21-3.09H931c3.54,0,6.21,1.33,6.21,3.09v49C937.16,690.6,934.49,691.93,931,691.93Zm-6.52-54.21c-3.07,0-5.21,1.1-5.21,2.09v49c0,1,2.14,2.09,5.21,2.09H931c3.07,0,5.21-1.1,5.21-2.09v-49c0-1-2.14-2.09-5.21-2.09Z" transform="translate(-399.29 -352.52)"/><path class="cls-2" d="M906.74,691.93h-6.52c-3.54,0-6.21-1.33-6.21-3.09V650.53c0-1.76,2.67-3.09,6.21-3.09h6.52c3.54,0,6.21,1.33,6.21,3.09v38.31C913,690.6,910.28,691.93,906.74,691.93Zm-6.52-43.49c-3.07,0-5.21,1.1-5.21,2.09v38.31c0,1,2.14,2.09,5.21,2.09h6.52c3.07,0,5.21-1.1,5.21-2.09V650.53c0-1-2.14-2.09-5.21-2.09Z" transform="translate(-399.29 -352.52)"/><path class="cls-2" d="M882.53,691.93H876c-3.54,0-6.21-1.33-6.21-3.09V665.13c0-1.76,2.67-3.09,6.21-3.09h6.52c3.54,0,6.21,1.33,6.21,3.09v23.71C888.74,690.6,886.07,691.93,882.53,691.93ZM876,663c-3.07,0-5.21,1.1-5.21,2.09v23.71c0,1,2.14,2.09,5.21,2.09h6.52c3.07,0,5.21-1.1,5.21-2.09V665.13c0-1-2.14-2.09-5.21-2.09Z" transform="translate(-399.29 -352.52)"/><path class="cls-2" d="M858.32,691.93H851.8c-3.54,0-6.21-1.33-6.21-3.09V656.49c0-1.76,2.67-3.09,6.21-3.09h6.52c3.54,0,6.21,1.33,6.21,3.09v32.35C864.53,690.6,861.86,691.93,858.32,691.93ZM851.8,654.4c-3.07,0-5.21,1.1-5.21,2.09v32.35c0,1,2.14,2.09,5.21,2.09h6.52c3.07,0,5.21-1.1,5.21-2.09V656.49c0-1-2.14-2.09-5.21-2.09Z" transform="translate(-399.29 -352.52)"/><path class="cls-2" d="M834.11,691.93h-6.52c-3.54,0-6.21-1.33-6.21-3.09v-47c0-1.76,2.67-3.09,6.21-3.09h6.52c3.54,0,6.21,1.33,6.21,3.09v47C840.32,690.6,837.65,691.93,834.11,691.93Zm-6.52-52.21c-3.07,0-5.21,1.1-5.21,2.09v47c0,1,2.14,2.09,5.21,2.09h6.52c3.07,0,5.21-1.1,5.21-2.09v-47c0-1-2.14-2.09-5.21-2.09Z" transform="translate(-399.29 -352.52)"/><path class="cls-2" d="M809.9,691.93h-6.52c-3.54,0-6.21-1.33-6.21-3.09V652.92c0-1.76,2.67-3.09,6.21-3.09h6.52c3.54,0,6.21,1.33,6.21,3.09v35.92C816.11,690.6,813.44,691.93,809.9,691.93Zm-6.52-41.1c-3.07,0-5.21,1.1-5.21,2.09v35.92c0,1,2.14,2.09,5.21,2.09h6.52c3.07,0,5.21-1.1,5.21-2.09V652.92c0-1-2.14-2.09-5.21-2.09Z" transform="translate(-399.29 -352.52)"/><path class="cls-2" d="M785.69,691.93h-6.52c-3.54,0-6.21-1.33-6.21-3.09V665.26c0-1.76,2.67-3.09,6.21-3.09h6.52c3.54,0,6.21,1.33,6.21,3.09v23.58C791.9,690.6,789.23,691.93,785.69,691.93Zm-6.52-28.76c-3.07,0-5.21,1.1-5.21,2.09v23.58c0,1,2.14,2.09,5.21,2.09h6.52c3.07,0,5.21-1.1,5.21-2.09V665.26c0-1-2.14-2.09-5.21-2.09Z" transform="translate(-399.29 -352.52)"/><path class="cls-2" d="M761.82,691.93h-7.2c-3.35,0-5.87-1.26-5.87-2.94V670.66c0-1.67,2.52-2.94,5.87-2.94h7.2c3.35,0,5.87,1.27,5.87,2.94V689C767.69,690.67,765.17,691.93,761.82,691.93Zm-7.2-23.21c-2.79,0-4.87,1-4.87,1.94V689c0,.92,2.08,1.94,4.87,1.94h7.2c2.79,0,4.87-1,4.87-1.94V670.66c0-.91-2.08-1.94-4.87-1.94Z" transform="translate(-399.29 -352.52)"/><rect class="cls-4" x="42.95" y="41.46" width="210.84" height="139.75" rx="5.75"/><path class="cls-2" d="M647.33,534.22H448a6.25,6.25,0,0,1-6.25-6.25V399.72a6.26,6.26,0,0,1,6.25-6.25H647.33a6.26,6.26,0,0,1,6.25,6.25V528A6.25,6.25,0,0,1,647.33,534.22ZM448,394.47a5.26,5.26,0,0,0-5.25,5.25V528a5.26,5.26,0,0,0,5.25,5.25H647.33a5.25,5.25,0,0,0,5.25-5.25V399.72a5.26,5.26,0,0,0-5.25-5.25Z" transform="translate(-399.29 -352.52)"/><circle class="cls-2" cx="241.46" cy="51.43" r="2.2"/><circle class="cls-2" cx="620.53" cy="403.95" r="2.2" transform="translate(-276.89 599.24) rotate(-80.78)"/><circle class="cls-2" cx="630.64" cy="403.95" r="2.2" transform="matrix(0.23, -0.97, 0.97, 0.23, -306.69, 572.39)"/><rect class="cls-2" x="42.95" y="60.22" width="210.85" height="1"/><path class="cls-5" d="M496.53,751.62h-1V711.14a7.69,7.69,0,0,1,7.68-7.68H754.56a7.69,7.69,0,0,1,7.68,7.68v33.45h-1V711.14a6.69,6.69,0,0,0-6.68-6.68H503.21a6.69,6.69,0,0,0-6.68,6.68Z" transform="translate(-399.29 -352.52)"/><circle class="cls-5" cx="347.06" cy="363.89" r="2.75"/><circle class="cls-5" cx="721.1" cy="716.41" r="2.75" transform="translate(-500.86 960.93) rotate(-80.78)"/><circle class="cls-5" cx="733.73" cy="716.41" r="2.75" transform="translate(-531.39 913.39) rotate(-76.72)"/><rect class="cls-5" x="96.74" y="374.99" width="265.71" height="1"/><path class="cls-6" d="M807.89,454.81h-132a4.67,4.67,0,0,1-4.67-4.66v-93a4.67,4.67,0,0,1,4.67-4.67h132a4.67,4.67,0,0,1,4.67,4.67v93A4.67,4.67,0,0,1,807.89,454.81Zm-132-101.29a3.67,3.67,0,0,0-3.67,3.67v93a3.66,3.66,0,0,0,3.67,3.66h132a3.66,3.66,0,0,0,3.67-3.66v-93a3.67,3.67,0,0,0-3.67-3.67Z" transform="translate(-399.29 -352.52)"/><circle class="cls-7" cx="403.83" cy="7.73" r="1.6"/><circle class="cls-7" cx="788.46" cy="360.25" r="1.6" transform="translate(-92.72 728.31) rotate(-80.78)"/><circle class="cls-7" cx="795.79" cy="360.25" r="1.6" transform="translate(-136.94 699.47) rotate(-76.72)"/><rect class="cls-6" x="272.38" y="13.96" width="140.39" height="1"/><path class="cls-5" d="M877.2,396.46l1.29,7a1,1,0,0,0,.76.77l7,1.29a1,1,0,0,1,0,1.87l-7,1.29a1,1,0,0,0-.76.77l-1.29,7a1,1,0,0,1-1.87,0l-1.3-7a1,1,0,0,0-.76-.77l-7-1.29a1,1,0,0,1,0-1.87l7-1.29a1,1,0,0,0,.76-.77l1.3-7A1,1,0,0,1,877.2,396.46Z" transform="translate(-399.29 -352.52)"/><path class="cls-7" d="M478.23,573.61l1.06,5.77a.79.79,0,0,0,.63.62l5.76,1.06a.78.78,0,0,1,0,1.53l-5.76,1.06a.79.79,0,0,0-.63.63L478.23,590a.78.78,0,0,1-1.53,0l-1.06-5.76a.79.79,0,0,0-.62-.63l-5.77-1.06a.78.78,0,0,1,0-1.53L475,580a.79.79,0,0,0,.62-.62l1.06-5.77A.78.78,0,0,1,478.23,573.61Z" transform="translate(-399.29 -352.52)"/><path class="cls-7" d="M967,582.94a28.55,28.55,0,1,1,28.55-28.55A28.59,28.59,0,0,1,967,582.94Zm0-55.8a27.26,27.26,0,1,0,27.26,27.25A27.28,27.28,0,0,0,967,527.14Z" transform="translate(-399.29 -352.52)"/><path class="cls-7" d="M996.82,554.39H993a26,26,0,0,0-26-26v-3.86A29.87,29.87,0,0,1,996.82,554.39Z" transform="translate(-399.29 -352.52)"/><path class="cls-3" d="M945.64,576.6a30.8,30.8,0,0,1,21.34-53v5.8a25,25,0,0,0-25,25,24.76,24.76,0,0,0,7.68,18Z" transform="translate(-399.29 -352.52)"/><path class="cls-1" d="M639.77,439.71c-11.15,0-12.38,8.28-21.19,8.28s-14.06-15.44-24.9-15.44c-17.59,0-26.19,41.16-41.88,41.16-9.13,0-10.06-5.21-19.4-5.21-11.63,0-15.89,16.19-26,16.19-9.21,0-16.76-22.05-25-22.05-9.3,0-19.47,21.74-24.59,40.64h183Z" transform="translate(-399.29 -352.52)"/><path class="cls-8" d="M435.23,500.3l-.89-.35c.41-.92.83-1.86,1.24-2.8,5.22-11.82,11.13-25.22,19.57-27,3.3-.71,6.91,2.11,10.74,5.09,3.37,2.64,6.86,5.36,10,5.35,6,0,11.54-5.47,17.36-11.22s12.08-12,19.06-12c6.39,0,11.88,5.69,17.7,11.74,6.12,6.36,12.44,12.95,20.08,12.91,6,0,11.3-3.12,16.39-6.13s10.48-6.18,16.68-6.21c5.12,0,9.3,2.12,13.72,4.38,4.78,2.44,9.72,5,16.3,4.94,5.72,0,9.37-6.1,13.59-13.13,5.19-8.64,11.08-18.43,22.47-18.48l-.05,1c-10.82.05-16.54,9.57-21.59,18-4.2,7-8.18,13.62-14.47,13.64-6.82,0-11.86-2.55-16.73-5-4.32-2.21-8.4-4.3-13.29-4.28-5.92,0-10.9,3-16.17,6.07S556.31,483,550,483c-8,0-14.5-6.69-20.75-13.19-5.68-5.91-11-11.49-17-11.46-6.57,0-12.55,6-18.34,11.68s-11.62,11.49-18.09,11.52c-3.41,0-7-2.81-10.53-5.54s-7.09-5.54-10-4.93c-7.91,1.7-13.71,14.84-18.83,26.43Z" transform="translate(-399.29 -352.52)"/><path class="cls-5" d="M622.76,445.34a15.06,15.06,0,0,0-8.07-8,16.17,16.17,0,0,0-11.76-.36,14.72,14.72,0,0,0-8.62,8.11,15.64,15.64,0,0,0,0,12.23,14,14,0,0,0,.65,1.35h0q3.09,6.36,6.53,12.6c2.42,4.48,5,8.93,7.81,13.34a131.77,131.77,0,0,0,9.42,13.06,82.87,82.87,0,0,0,5.82,6.35c.52.52,1.1,1,1.64,1.56l.87.77.44.38.23.2.28.23a45.6,45.6,0,0,0,4.85,3.62,33.42,33.42,0,0,0,10.79,4.65,28.56,28.56,0,0,0,5.74.61,24.77,24.77,0,0,0,5.7-.7,28.4,28.4,0,0,0,5.4-1.91,28.84,28.84,0,0,0,4.89-3,31,31,0,0,0,4.2-3.91,36.38,36.38,0,0,0,3.45-4.63,43.1,43.1,0,0,0,2.7-5.12c.1-.21.21-.45.29-.65l.23-.57.43-1.08c.25-.71.53-1.43.75-2.14a64.8,64.8,0,0,0,2.11-8.33,102.89,102.89,0,0,0,1.64-15.89c.17-5.18,0-10.26-.25-15.3-.23-3.39-.55-6.75-1-10.11h0a9.14,9.14,0,0,0-3.36-5.9,8.54,8.54,0,0,0-6.39-1.8,9.56,9.56,0,0,0-6.09,3.27A8.81,8.81,0,0,0,662,444.6c0,2.86,0,5.72-.13,8.56-.13,4.55-.44,9.06-1,13.45a83.92,83.92,0,0,1-2.42,12.56,42,42,0,0,1-1.93,5.46c-.17.43-.37.81-.55,1.21l-.29.57-.14.25c0,.07-.07.1-.1.16a11.68,11.68,0,0,1-.79,1.15,8.17,8.17,0,0,1-2,1.79,6.65,6.65,0,0,1-1.18.55,5.93,5.93,0,0,1-1.24.25,4.81,4.81,0,0,1-1.26-.07,5.44,5.44,0,0,1-1.18-.39,7,7,0,0,1-1.94-1.39c-.14-.13-.27-.27-.4-.41s-.24-.3-.37-.42l-.82-.87c-.29-.34-.58-.65-.88-1a57.5,57.5,0,0,1-3.48-4.6,107.43,107.43,0,0,1-6.45-10.91c-2-3.88-3.9-7.93-5.68-12.06q-2.43-5.82-4.6-11.83h0C623.09,446.18,622.94,445.76,622.76,445.34Z" transform="translate(-399.29 -352.52)"/><path class="cls-7" d="M624.9,444.44a17.29,17.29,0,0,0-9.23-9.15,18.89,18.89,0,0,0-13.5-.5,16.64,16.64,0,0,0-10,9.27,18.05,18.05,0,0,0,0,14.15c1.89,4.89,3.9,9.76,6.09,14.62s4.54,9.53,7.19,14.31l32.09-18.8c-2.28-3.63-4.46-7.5-6.54-11.48S626.85,448.67,624.9,444.44Z" transform="translate(-399.29 -352.52)"/><path class="cls-8" d="M609.48,484.81l24.13-14.13.73,1.38c-7.15,6-14.14,12.15-20.9,18.64C612.06,488.75,610.74,486.78,609.48,484.81Z" transform="translate(-399.29 -352.52)"/><path class="cls-5" d="M454.45,637.16l3.07,2.22c7.48,5.57,15.17,10.93,23.33,16,4.09,2.5,8.3,4.91,12.75,7.17,2.22,1.13,4.5,2.23,6.88,3.26l1.8.76,1.85.73c.3.13.62.24.94.36l1.15.41c.83.29,1.66.56,2.5.82a49,49,0,0,0,18,2.49,25.78,25.78,0,0,0,4.47-.66,20.26,20.26,0,0,0,2.19-.61c.36-.12.72-.23,1.08-.37l1-.44a30.88,30.88,0,0,0,7.68-4.86,46.86,46.86,0,0,0,7.95-8.91c.29-.42.6-.82.88-1.25l.82-1.29c.28-.43.56-.86.83-1.3l.78-1.32.77-1.34.61-1.11.55-1,.53-1a153.56,153.56,0,0,0,7-15.69,313.84,313.84,0,0,0,9.87-30.81q2.72-10.22,5-20.44h0a24.57,24.57,0,0,0,.66-2.85,23.08,23.08,0,0,0-4.14-17.55A22,22,0,0,0,560,549.72a24,24,0,0,0-16.94,4.42,22.36,22.36,0,0,0-9,14.4,20.45,20.45,0,0,0-.27,2.68h0c-.29,3.36-.91,10.27-2.08,19.12A275.56,275.56,0,0,1,527.14,618a119.66,119.66,0,0,1-3.61,12.89c-.08.23-.17.45-.25.68s-.18.48-.21.6,0,.09,0,.14l0,.12,0,.23a8.24,8.24,0,0,1-.21,1,8.77,8.77,0,0,1-.69,1.85,4.7,4.7,0,0,1-1.43,1.74,3,3,0,0,1-.85.44,6,6,0,0,1-.81.24,5.39,5.39,0,0,1-2,.11c-.3-.09-.64-.61-.9-1.32a7.49,7.49,0,0,1-.32-1.18l0-.16c0-.05-.1-.13-.15-.2l-.35-.42-.75-.89a24.91,24.91,0,0,0-8.31-6.88c-1.84-.86-4.9-2-8.5-3.52s-7.75-3.21-11.66-4.94-7.6-3.43-10.3-4.7l-4.42-2.1h0l-3.54-1.77q-3.88-2-7.75-4.13a8.89,8.89,0,0,0-4.42-.29c-2.64.44-6.17,2-9.67,6.68s-4.07,9-3.71,12.17a13.3,13.3,0,0,0,1.59,5.15q3.38,2.51,6.78,5Z" transform="translate(-399.29 -352.52)"/><path class="cls-8" d="M460.72,606s-1.42-1.07-3.13-2.19a17.35,17.35,0,0,0-4.95-2.52c-2.44-.42-3.74,1.07-9.25,7.65L433.31,621c-3.47,4.14-6.56,7.78-7.65,9.16-2,2.9,1.11,6.66,4.57,3.94s8.55-6.14,13.83-4.26c3.64-4.92,6.65-9.16,6.64-12.39,0-2.14-1.21-3.59,1.35-7S458.39,609.21,460.72,606Z" transform="translate(-399.29 -352.52)"/><path class="cls-5" d="M519.28,745.11l3.79-2.44c9.4-5.89,18.74-11.92,28-18.23,4.63-3.15,9.22-6.38,13.79-9.73s9.11-6.8,13.62-10.49c3.52-2.88,7-5.87,10.53-9.21l2.63-2.64c.43-.42.88-.94,1.32-1.42l1.32-1.47c.22-.25.44-.47.67-.75l.67-.84,1.34-1.68.33-.43a5.19,5.19,0,0,0,.34-.49l.69-1c.45-.67.91-1.37,1.34-2a110.09,110.09,0,0,0,6.75-13.48c1.91-4.41,3.48-8.75,5-13.09,3-8.66,5.42-17.27,7.61-25.85s4.16-17.17,5.94-25.75q2.16-10.17,4-20.35h0a22,22,0,0,0,.56-2.84,23,23,0,0,0-4.69-17.27,22.17,22.17,0,0,0-15.45-8.43,23.72,23.72,0,0,0-16.83,4.88A22.52,22.52,0,0,0,584,574.9a23,23,0,0,0-.18,2.73h0c-.17,3.43-.56,10.44-1.31,19.55-.36,4.13-.79,8.63-1.32,13.33s-1.13,9.6-1.83,14.51-1.5,9.86-2.41,14.61c-.11.59-.23,1.19-.34,1.78l-.36,1.75c-.25,1.15-.47,2.33-.73,3.44s-.52,2.23-.77,3.33-.55,2.13-.82,3.18a99.12,99.12,0,0,1-3.46,10.76l-.43,1-.21.52,0,.13a.49.49,0,0,1,0,.07l-.06.12c-.07.16-.14.33-.2.5a1.71,1.71,0,0,1-.11.27l-.22.36-.42.71a4,4,0,0,1-.2.35c-.06.12-.18.26-.26.39l-1.07,1.53c-.38.5-.8,1-1.16,1.48s-.72.93-1.11,1.37c-.77.87-1.42,1.65-2,2.31-1.23,1.32-2,2.17-2.34,2.43a12.9,12.9,0,0,1-3.63,1.86c-.79.29-1.68.58-2.61.89l-2.95,1A43.43,43.43,0,0,0,538.1,688c-2.16,1.72-5.41,4.63-9.18,8l-12,10.77c-8.06,7.17-15.18,13.39-15.18,13.39h0L498,723.3q-3.37,3-6.79,5.89a8.94,8.94,0,0,0-1.88,4.08c-.54,2.65-.29,6.52,2.91,11.4s7.07,6.9,10.14,7.68a13.27,13.27,0,0,0,5.34.33l6.94-4.51Z" transform="translate(-399.29 -352.52)"/><path class="cls-8" d="M491.61,728.64s-1.53,1-3.22,2.22a17.93,17.93,0,0,0-4.17,3.86c-1.27,2.19-.32,3.92,4,11.31,2.2,3.69,5.28,8.88,8,13.53s5.21,8.74,6.15,10.23c2,2.92,6.41,1.33,5-2.82s-2.92-10.1.64-14.35c-3.33-5.13-6.23-9.45-9.27-10.56-2-.75-3.8-.11-6.14-3.7S493.78,731.94,491.61,728.64Z" transform="translate(-399.29 -352.52)"/><path class="cls-5" d="M432.66,554.6c4.2-2.14,9.76-5.76,9.76-5.76h0c.18-.17.37-.33.56-.49a9.08,9.08,0,1,1,11.41,14.09s-5.33,4.52-9.52,8-9,7.88-10.57,9.44-2.43.06-2-1a66.08,66.08,0,0,1,9-11.27c-3.9,3.11-8.5,7.3-10,8.8s-2.82,0-2-1.41a80.85,80.85,0,0,1,8.82-10.84,80.89,80.89,0,0,0-9.73,8.84c-1.76,1.82-2.6-.2-2-1.48s4.7-6.41,9.06-11a87.3,87.3,0,0,0-8.74,8.32c-1.93,2.06-2.33,1.92-2.82,1.38s-.63-1.26,1-3.57,6.3-7.52,6.3-7.52a25.48,25.48,0,0,1-4.57,1.18c-2.13.29-2.67-.53-2.39-1.37S428.47,556.74,432.66,554.6Z" transform="translate(-399.29 -352.52)"/><path class="cls-5" d="M668.84,452.81a17.82,17.82,0,0,0-4-6h0a4.78,4.78,0,0,1-.48-.43c-3.29-3.19-3.14-8.69.35-12.28s9-3.92,12.27-.73c0,0,4.44,4.08,7.89,7.3s7.74,6.87,9.27,8,.16,2.23-.84,2a50.17,50.17,0,0,1-10.89-6.21c3.07,3,7.17,6.49,8.64,7.62s.17,2.57-1.23,2.1a61.65,61.65,0,0,1-10.48-6.15A60.62,60.62,0,0,0,688,455.4c1.77,1.29-.07,2.42-1.29,2.09s-6.18-3.17-10.64-6.35a65.42,65.42,0,0,0,8.14,6.54c2,1.4,1.89,1.79,1.41,2.33s-1.15.81-3.37-.24-9.32-6.29-9.32-6.29a17.72,17.72,0,0,1-.09,4.4c-.23,1.92-1,3.89-1.79,3.89C669.26,461.78,670.52,456.54,668.84,452.81Z" transform="translate(-399.29 -352.52)"/><path class="cls-8" d="M676.18,451l-.27.32a64.66,64.66,0,0,0,8.16,6.56c1.06.74,1.57,1.23,1.61,1.55,0,.13,0,.25-.24.47-.49.56-1.54.46-3.12-.29-2.18-1-9.21-6.22-9.28-6.27l-.41-.3.07.5a18.07,18.07,0,0,1-.09,4.35c-.23,1.93-1,3.7-1.59,3.7h0c-.73,0-.82-1.39-.93-3.16a16.68,16.68,0,0,0-1.06-5.68,20.87,20.87,0,0,0-3.09-5,1.77,1.77,0,0,0-.35.26,20.46,20.46,0,0,1,3,4.93,16.17,16.17,0,0,1,1,5.54c.13,2,.23,3.55,1.35,3.55h0c1,0,1.76-2.1,2-4.07a21.21,21.21,0,0,0,.14-4,98,98,0,0,0,9,6c1.79.85,3,.91,3.62.19a1,1,0,0,0,.34-.8c-.05-.47-.56-1-1.79-1.85a71.55,71.55,0,0,1-5.79-4.41c.92.6,1.82,1.18,2.69,1.7v-.49C679.62,453.32,677.86,452.17,676.18,451Z" transform="translate(-399.29 -352.52)"/><path class="cls-9" d="M633.6,591.14c-2-13.45,3.27-29.21.28-46.59S616.24,512,616.24,512l-54-9.55s-21.16,9.88-30.9,26.71-10.74,31.29-21.14,47-15,26.11-16.41,39.83l142,25.14C642.19,625.86,635.55,604.59,633.6,591.14Z" transform="translate(-399.29 -352.52)"/><path class="cls-8" d="M525.19,430.15l14.7-4.65s6.06-1.92,8.18-5,6.1-10.62,14.83-13.87,18.14,1.8,14.32,10.64c6.59,7.09,9.65,18.14-2.16,21.88s-21.13,8.61-28.75,9.09-8.81-2.38-17,.22-13.56.33-15.19-6.64S519.09,432.08,525.19,430.15Z" transform="translate(-399.29 -352.52)"/><path class="cls-7" d="M572.68,444.12l-35.49,11.23,25.1,47.08,29.17,5.16L616.24,512l-7.3-71.44a6.23,6.23,0,0,0-8.08-5.32Z" transform="translate(-399.29 -352.52)"/><path class="cls-5" d="M577,442.9l-2.77-8.77-11.44-.93,4.07,12.91L560.92,448a15.26,15.26,0,0,0,15.41,3.2c9.53-3,8.19-10.66,8.19-10.66Z" transform="translate(-399.29 -352.52)"/><polygon class="cls-8" points="175.07 82.14 175.29 82.83 166.06 88.91 163.97 82.28 175.07 82.14"/><path class="cls-5" d="M558.16,426.45a10.3,10.3,0,0,1-.7-7.65c1.29-4.22,3.26-5.55,7.09-6.76s8.28.28,10.64,5.93,5.86,15.33-3,18.14S560,431.78,560,431.78s-4.8,2.68-6-1.1C552.87,427.18,558.16,426.45,558.16,426.45Z" transform="translate(-399.29 -352.52)"/><path class="cls-8" d="M568.25,437a9.56,9.56,0,0,1-8.36-4.91c-.65.33-2.79,1.28-4.43.63a2.88,2.88,0,0,1-1.68-1.94,2.71,2.71,0,0,1,.23-2.36c.9-1.41,3-1.94,3.83-2.1a10.48,10.48,0,0,1-.58-7.55c1.33-4.35,3.39-5.69,7.23-6.9,3.41-1.08,8.31-.14,10.89,6.05,1.9,4.54,3.83,10.26,2,14.3a7.91,7.91,0,0,1-5.11,4.12A13,13,0,0,1,568.25,437Zm-8.17-5.49.09.21c.13.28,3.33,6.94,11.93,4.22A7.48,7.48,0,0,0,577,432c1.81-3.88-.1-9.5-2-13.95-2.47-5.93-7-6.89-10.38-5.82-3.69,1.17-5.67,2.46-7,6.62a10.22,10.22,0,0,0,.68,7.49l.16.27-.31,0s-2.84.41-3.82,2a2.3,2.3,0,0,0-.19,2,2.5,2.5,0,0,0,1.43,1.68c1.73.69,4.24-.69,4.27-.71Z" transform="translate(-399.29 -352.52)"/><path class="cls-8" d="M562.59,422.36a14.35,14.35,0,0,1,2.7-.95c1.58-.4,1.47-.89,1.11-1.33-.52-.65-3.3.67-4,1.27S561.94,422.65,562.59,422.36Z" transform="translate(-399.29 -352.52)"/><path class="cls-8" d="M574.21,418.69a12.14,12.14,0,0,0-2.46.67c-1.35.53-1.53.07-1.52-.49,0-.82,2.75-1.24,3.58-1.13S574.83,418.57,574.21,418.69Z" transform="translate(-399.29 -352.52)"/><path class="cls-8" d="M571,424.22h0c-1.24-.22-1.47-1.81-1.48-1.88a.16.16,0,0,1,.14-.17.15.15,0,0,1,.18.13s.2,1.43,1.21,1.6a.16.16,0,0,1,.13.19A.15.15,0,0,1,571,424.22Z" transform="translate(-399.29 -352.52)"/><path class="cls-5" d="M569.28,426.82l3.49-1.11s0,0,0,0a1.92,1.92,0,0,1-3.55,1.15S569.25,426.82,569.28,426.82Z" transform="translate(-399.29 -352.52)"/><path class="cls-8" d="M570.78,428.05a1.94,1.94,0,0,1-1.71-1.07l-.05-.09,0-.13a.24.24,0,0,1,.16-.15h0l3.58-1.13.19.11,0,.1a2,2,0,0,1-1.47,2.23A2.47,2.47,0,0,1,570.78,428.05Zm-1.24-1.1a1.72,1.72,0,0,0,3.07-1Z" transform="translate(-399.29 -352.52)"/><path class="cls-8" d="M566.07,424.62h0a.51.51,0,0,1-.65-.34l-.07-.23a.53.53,0,0,1,.34-.65h0a.53.53,0,0,1,.65.34l0,.12,0,.11A.51.51,0,0,1,566.07,424.62Z" transform="translate(-399.29 -352.52)"/><path class="cls-8" d="M573.13,422.39h0a.53.53,0,0,1-.65-.34l-.07-.23a.53.53,0,0,1,.34-.65h0a.52.52,0,0,1,.65.34l0,.11,0,.12A.51.51,0,0,1,573.13,422.39Z" transform="translate(-399.29 -352.52)"/><path class="cls-8" d="M557.21,431.09a.77.77,0,0,1-.55-.24,1.08,1.08,0,0,1-.17-1.16.16.16,0,0,1,.22-.06.15.15,0,0,1,.06.21.76.76,0,0,0,.12.79.48.48,0,0,0,.6.07,1,1,0,0,0,.41-1.11,1,1,0,0,0-1.15-.71,1.52,1.52,0,0,0-1.37,1.13.16.16,0,0,1-.19.12.15.15,0,0,1-.12-.19,1.87,1.87,0,0,1,1.66-1.38,1.3,1.3,0,0,1,1.48.95,1.28,1.28,0,0,1-.59,1.48A1.07,1.07,0,0,1,557.21,431.09Z" transform="translate(-399.29 -352.52)"/><path class="cls-8" d="M558.49,426.63s3.17-1.48.69-8.24c4,.77,14.94-1.76,15.68-5s-10.06-7.94-17.87,1S558.49,426.63,558.49,426.63Z" transform="translate(-399.29 -352.52)"/><path class="cls-8" d="M572,477.79a.2.2,0,0,1-.2-.14.21.21,0,0,1,.12-.27c.37-.14,9-3.56,6.29-12.14-2.58-8.17-11.86-5.8-12-5.77a.21.21,0,1,1-.11-.41c.1,0,9.76-2.5,12.46,6.05,2.84,9-6.44,12.63-6.54,12.66Z" transform="translate(-399.29 -352.52)"/><path class="cls-8" d="M601.36,468.51a.21.21,0,0,1-.08-.4c.37-.15,9-3.56,6.29-12.15-2.59-8.16-11.86-5.79-12-5.77a.21.21,0,0,1-.26-.15.22.22,0,0,1,.15-.26c.1,0,9.76-2.49,12.46,6.06,2.83,9-6.44,12.62-6.54,12.66Z" transform="translate(-399.29 -352.52)"/><polygon class="cls-8" points="249.35 112.97 304.15 100.89 304.72 107.13 250.44 118.94 249.35 112.97"/><polygon class="cls-8" points="297.97 108.6 294.13 41.49 367.89 22.68 370.59 91.35 297.97 108.6"/><path class="cls-5" d="M556.21,479.77A15.88,15.88,0,0,0,558,467.44a14.24,14.24,0,0,0-7.55-9.14,16.79,16.79,0,0,0-11.69-1.11,14.78,14.78,0,0,0-9,6.61,11.1,11.1,0,0,0-.64,1.17h0c-2,3.68-4.06,7.32-6.28,10.89a213.23,213.23,0,0,1-14,19.88,197.63,197.63,0,0,1-16.19,18.13,163.7,163.7,0,0,1-38.94,28.76l-2,1.07-1,.53-1,.49-4.12,1.95h0a9.51,9.51,0,0,0-2.59,1.91,8.9,8.9,0,0,0-1.72,2.69,9.58,9.58,0,0,0-.29,6.63,8.49,8.49,0,0,0,4.59,5.17,9.22,9.22,0,0,0,3.5.83,9.93,9.93,0,0,0,1.88-.1,10.55,10.55,0,0,0,1.85-.55l4.5-1.57c.37-.13.75-.25,1.12-.4l1.1-.44,2.21-.88a185.32,185.32,0,0,0,47-28A224.45,224.45,0,0,0,529,513.37a243,243,0,0,0,17.91-20.79c2.93-3.75,5.72-7.61,8.43-11.55h0C555.65,480.62,555.94,480.2,556.21,479.77Z" transform="translate(-399.29 -352.52)"/><path class="cls-7" d="M558.19,481a18.38,18.38,0,0,0,2.11-14.31,15.89,15.89,0,0,0-8.82-10.44,20.11,20.11,0,0,0-13.43-1.13,16.87,16.87,0,0,0-10.2,7.53c-2.49,3.81-5.13,7.55-7.87,11.19-1.19,1.64-2.46,3.21-3.68,4.81L514.4,481c-.64.78-1.27,1.57-1.93,2.33l29.27,22.95c.72-.94,1.41-1.9,2.09-2.87l2.06-2.88c1.32-2,2.69-3.88,4-5.87Q554.24,487.94,558.19,481Z" transform="translate(-399.29 -352.52)"/><path class="cls-8" d="M516.1,486.14l22,17.26L537,504.65q-6.1-3.42-12.12-6.93t-12-7.16C514,489.12,515,487.62,516.1,486.14Z" transform="translate(-399.29 -352.52)"/><path class="cls-5" d="M441.37,549.76l3.81-2.59,9.65,15.17a5.7,5.7,0,0,0-2.25,1.36,24.42,24.42,0,0,1-6.66,1.62l-7.72-9.56Z" transform="translate(-399.29 -352.52)"/><polygon class="cls-5" points="262.89 91.6 262.89 88.49 264.99 91.6 266.87 97.03 265.25 97.03 262.89 91.6"/><path class="cls-5" d="M506.57,627.12s7.9,3.46,13.21,8.35a34.32,34.32,0,0,0,5.51-10.17l2.83,5.13s-3.13,8.59-3.86,9.32-5.48,5.84-8.92,5.06-10-9.24-10.43-9.34S506.57,627.12,506.57,627.12Z" transform="translate(-399.29 -352.52)"/><path class="cls-10" d="M702.73,460.27a.46.46,0,0,1-.46-.42l-4.4-67.07a.46.46,0,0,1,.92-.06l4.4,67.07a.46.46,0,0,1-.43.48Z" transform="translate(-399.29 -352.52)"/><path class="cls-5" d="M637.51,630.72h-.08l-141-25.1a.46.46,0,0,1-.37-.53.45.45,0,0,1,.53-.37l141,25.1a.46.46,0,0,1,.37.53A.45.45,0,0,1,637.51,630.72Z" transform="translate(-399.29 -352.52)"/><path class="cls-5" d="M515.92,609.07a.46.46,0,0,1-.46-.45c-.16-4.61,3.46-16,10.5-28.06,4.44-7.6,6.41-14,8.9-22.09,1.54-5,3.29-10.73,5.95-17.76,6.91-18.25,24.87-36.21,25.05-36.39a.46.46,0,0,1,.65.65c-.18.18-18,18-24.84,36.06-2.65,7-4.4,12.69-5.94,17.71-2.5,8.15-4.48,14.59-9,22.29-7.38,12.63-10.51,23.72-10.38,27.56a.45.45,0,0,1-.44.47Z" transform="translate(-399.29 -352.52)"/><path class="cls-5" d="M824,491.06q-.91,7.69-2,15.4c-1.33,9.42-2.84,18.85-4.79,28.39-.48,2.39-1,4.79-1.57,7.2l-.44,1.81-.47,1.92c-.23,1-.48,2-.73,2.93s-.5,1.93-.78,2.88a74.53,74.53,0,0,1-3.86,10.88,42.28,42.28,0,0,1-2.51,4.73,30,30,0,0,1-3,4,20.65,20.65,0,0,1-3.5,3.19c-.64.44-1.31.87-2,1.3-.36.19-.73.38-1.1.55l-.58.24c-.1,0-.18.1-.29.1l-.3.11a15.3,15.3,0,0,1-4.92.89,20.83,20.83,0,0,1-4.81-.47c-.79-.17-1.57-.38-2.35-.61l-1.17-.4c-.39-.14-.78-.3-1.16-.45a32.87,32.87,0,0,1-4.59-2.31c-.38-.21-.75-.45-1.13-.69s-.75-.47-1.12-.73c-.74-.52-1.48-1-2.21-1.58-1.46-1.09-2.88-2.3-4.27-3.53s-2.75-2.53-4.06-3.86c-.67-.66-1.31-1.34-2-2l-.89-.94-.63-.7c-1.66-1.87-3.26-3.75-4.82-5.64-3.1-3.78-6-7.61-8.87-11.48-2-2.78-4-5.58-5.94-8.4a9.48,9.48,0,0,1,2-13.54,9.74,9.74,0,0,1,13.34,1.94c2.09,2.48,4.21,4.94,6.36,7.34,3,3.35,6,6.62,9.15,9.73,1.56,1.55,3.12,3.07,4.7,4.52l.6.54a3.89,3.89,0,0,0,.35.3l.56.43c.37.28.75.55,1.12.81a14.14,14.14,0,0,0,4.43,2.27,2.76,2.76,0,0,0,2.27-.27,2.79,2.79,0,0,0,.79-1,7.5,7.5,0,0,0,.46-1.19,21.13,21.13,0,0,0,.74-4.57c0-.35,0-.7,0-1l.21-1.5.22-1.61c.29-2.14.55-4.32.78-6.52.92-8.78,1.48-17.8,1.87-26.84.2-4.78.35-9.58.45-14.37Z" transform="translate(-399.29 -352.52)"/><path class="cls-8" d="M786.27,577.29c-.81-.16-1.61-.39-2.37-.61l-1.17-.4c-.26-.09-.51-.19-.77-.3l-.4-.16a33,33,0,0,1-4.61-2.31c-.37-.21-.75-.45-1.11-.68l0,0-.4-.25c-.24-.16-.49-.31-.73-.48l-.41-.29c-.6-.41-1.21-.84-1.8-1.3-1.49-1.11-2.94-2.35-4.3-3.54-1.66-1.51-2.92-2.71-4.06-3.87-.56-.55-1.12-1.13-1.65-1.69l-.31-.32c-.31-.32-.69-.72-.89-1l-.63-.7c-1.57-1.75-3.15-3.6-4.83-5.64-2.84-3.46-5.74-7.22-8.88-11.49-2-2.69-4-5.52-5.94-8.41a9.79,9.79,0,0,1-1.91-7.52A9.41,9.41,0,0,1,743,520a9.92,9.92,0,0,1,13.62,2c2.14,2.54,4.28,5,6.36,7.33,3.27,3.66,6.26,6.84,9.14,9.72,1.67,1.66,3.2,3.14,4.7,4.52l.59.54a2.16,2.16,0,0,0,.27.22l.63.49c.37.29.74.55,1.11.81a14.26,14.26,0,0,0,4.35,2.23,2.51,2.51,0,0,0,2.11-.24,2.39,2.39,0,0,0,.72-.92,7.12,7.12,0,0,0,.45-1.15,20.69,20.69,0,0,0,.73-4.53c0-.34,0-.69.05-1l.43-3.1c.29-2.14.55-4.34.78-6.52.83-7.89,1.42-16.41,1.87-26.83.19-4.6.34-9.43.45-14.37V489l32.86,1.87,0,.22c-.63,5.3-1.3,10.48-2,15.41-1.55,11-3.07,20-4.79,28.4-.49,2.41-1,4.84-1.58,7.21l-.9,3.73c-.24,1-.49,2-.74,2.93l0,.14c-.24.9-.48,1.84-.74,2.75a76.46,76.46,0,0,1-3.87,10.9,41.16,41.16,0,0,1-2.54,4.76,28.82,28.82,0,0,1-3,4,21.46,21.46,0,0,1-3.54,3.22c-.57.4-1.21.81-2,1.32l-1.12.56-.6.25-.07,0a.68.68,0,0,1-.24.07l-.27.1a15.51,15.51,0,0,1-5,.9h-.44A20.78,20.78,0,0,1,786.27,577.29Zm10.08-.94h0l.1,0a.3.3,0,0,1,.11,0l.57-.24c.36-.17.73-.35,1.08-.54.79-.49,1.42-.91,2-1.29a21.91,21.91,0,0,0,3.47-3.16,30.71,30.71,0,0,0,3-3.95,43.29,43.29,0,0,0,2.5-4.71A74.57,74.57,0,0,0,813,551.53c.27-.9.51-1.83.74-2.74l0-.14c.25-.92.5-1.91.74-2.92l.9-3.73c.55-2.37,1.08-4.78,1.58-7.19,1.71-8.38,3.23-17.4,4.78-28.38.69-4.85,1.35-10,2-15.17l-32-1.82c-.11,4.87-.26,9.63-.45,14.15-.45,10.43-1,19-1.87,26.87-.23,2.18-.49,4.38-.78,6.52l-.43,3.08c0,.31,0,.67,0,1a20.54,20.54,0,0,1-.75,4.62,7.9,7.9,0,0,1-.48,1.23,2.83,2.83,0,0,1-.85,1.07,3,3,0,0,1-2.45.3,14.85,14.85,0,0,1-4.5-2.29c-.37-.26-.74-.54-1.12-.82l-.63-.49-.3-.25-.59-.54c-1.5-1.38-3-2.86-4.71-4.53-2.88-2.88-5.88-6.07-9.16-9.74-2.08-2.32-4.22-4.79-6.37-7.35a9.5,9.5,0,0,0-13-1.9,9,9,0,0,0-3.75,6,9.44,9.44,0,0,0,1.84,7.22c2,2.89,4,5.72,5.94,8.4,3.13,4.27,6,8,8.87,11.47,1.68,2,3.25,3.88,4.81,5.63l.63.7.89.94.31.32c.53.55,1.08,1.13,1.64,1.68,1.14,1.16,2.39,2.35,4.05,3.86,1.34,1.17,2.79,2.41,4.26,3.51.59.46,1.2.88,1.79,1.29l.41.29c.24.17.48.32.72.47l.4.25,0,0c.36.22.72.46,1.09.66a33.91,33.91,0,0,0,4.55,2.29l.41.16.75.29,1.15.4c.75.21,1.54.44,2.34.6a20.85,20.85,0,0,0,4.77.47,15.17,15.17,0,0,0,4.84-.88l.34-.12Z" transform="translate(-399.29 -352.52)"/><path class="cls-9" d="M786,519.25c.93-5.23,1.77-10.55,2.54-15.9s1.46-10.57,2.1-15.88a17.52,17.52,0,0,1,18.28-16.1,17.17,17.17,0,0,1,16.28,18.51l0,.33c-.19,5.48-.42,11-.73,16.48-.33,5.71-.73,11.44-1.24,17.23Z" transform="translate(-399.29 -352.52)"/><path class="cls-8" d="M819.33,523.43l-29.15-3.66-.13,1.81c9.44,2.41,19.14,5.67,28.54,8.26C819,528,819,525.31,819.33,523.43Z" transform="translate(-399.29 -352.52)"/><path class="cls-5" d="M788,528.21c4.7-.4,11.21-1.7,11.21-1.7h0c.23-.09.46-.18.7-.25a9.6,9.6,0,0,1,5.78,18.31s-6.6,2.26-11.78,4-11.25,4.06-13.25,5-2.31-.92-1.5-1.75a62.83,62.83,0,0,1,12.39-7.38c-4.75,1.47-10.55,3.7-12.5,4.56s-2.67-1.08-1.4-2.19a77,77,0,0,1,12.1-7,76.55,76.55,0,0,0-12.26,4.71c-2.29,1.06-2.38-1.24-1.34-2.24s6.67-4.36,12.38-7.07a82.61,82.61,0,0,0-11.14,4.59c-2.54,1.24-2.87.94-3.14.22-.19-.54-.15-1.48,2.17-3.09s8.56-4.79,8.56-4.79a25,25,0,0,1-4.72-.69c-2.1-.57-2.32-1.59-1.76-2.3S783.3,528.6,788,528.21Z" transform="translate(-399.29 -352.52)"/><path class="cls-8" d="M778.74,553.52a1.59,1.59,0,0,1,.27-1.9,59.63,59.63,0,0,1,9.61-6c-3.94,1.34-7.94,2.89-9.49,3.57-1.1.48-1.82.13-2.12-.36a1.7,1.7,0,0,1,.5-2.18,71.62,71.62,0,0,1,9.89-6,89.61,89.61,0,0,0-9.7,4l-.12,0c-1.29.6-1.84.16-2.06-.16a2.07,2.07,0,0,1,.48-2.42c.9-.87,4.93-3.3,9.38-5.6-3,1.14-5.56,2.32-7.9,3.46-1.58.77-2.38,1-2.87.8a1.08,1.08,0,0,1-.56-.7c-.35-.95.39-2,2.25-3.34s6.22-3.58,7.91-4.45a24.3,24.3,0,0,1-4-.64c-1.5-.41-2-1-2.12-1.46a1.24,1.24,0,0,1,.25-1.18c.4-.5,1.87-.58,4.89-.69,1.44-.06,3.06-.12,4.76-.26h0c4.63-.39,11.11-1.68,11.14-1.68.27-.11.5-.19.72-.26a9.81,9.81,0,0,1,5.91,18.71c-.07,0-6.66,2.28-11.78,4s-11.12,4-13.24,5a2.45,2.45,0,0,1-1,.27A1.11,1.11,0,0,1,778.74,553.52ZM800,526.46l-.72.26c-.07,0-6.57,1.31-11.23,1.7-1.7.14-3.33.2-4.77.26-2.2.08-4.28.16-4.58.54a.82.82,0,0,0-.18.78c.16.48.81.9,1.83,1.18a25.2,25.2,0,0,0,4.67.68l.8,0-.72.37c-.06,0-6.25,3.19-8.53,4.77-1.66,1.15-2.36,2.11-2.09,2.85.11.28.19.4.32.45.34.14,1.14-.11,2.52-.79a81.47,81.47,0,0,1,11.18-4.6l.15.39c-6,2.84-11.37,6.11-12.33,7a1.68,1.68,0,0,0-.42,1.87c.24.36.79.36,1.53,0l.13-.06a75.58,75.58,0,0,1,12.17-4.66l.13.39a77.56,77.56,0,0,0-12,7,1.33,1.33,0,0,0-.43,1.64c.28.43.88.51,1.6.19,2-.85,7.82-3.11,12.53-4.56l.15.4a62.63,62.63,0,0,0-12.33,7.33,1.15,1.15,0,0,0-.22,1.36c.24.35.78.36,1.48.05,2.13-1,8.26-3.28,13.28-5s11.7-4,11.77-4A9.39,9.39,0,0,0,802.79,526,9.26,9.26,0,0,0,800,526.46Z" transform="translate(-399.29 -352.52)"/><path class="cls-5" d="M755.29,541.23c.73-4.66,1.66-9.43,1.66-9.43h0c.11-.23.21-.45.31-.69A9.6,9.6,0,0,0,739.41,524s-2.73,6.41-4.83,11.45-4.86,10.93-5.9,12.87.75,2.37,1.64,1.62a62.86,62.86,0,0,0,8.25-11.83c-1.81,4.64-4.45,10.26-5.44,12.15s.88,2.73,2.08,1.55a77,77,0,0,0,7.87-11.57,76,76,0,0,1-5.58,11.89c-1.22,2.21,2.81,3.6,3.88,2.65s1.27-6.73,5.64-13.27a0,0,0,0,1,0,0,57.84,57.84,0,0,0-2.52,13c-.1,2.83,1.22,3.47,2,3.21,1-.32,1.31-3.83,1.74-6.62a39.62,39.62,0,0,1,2.47-7.84s.54,3.65,1,5.79,2.17,2.88,2.92,2.37S754.56,545.89,755.29,541.23Z" transform="translate(-399.29 -352.52)"/><path class="cls-8" d="M745.33,557.69c-.5-.37-1.08-1.22-1-3.16a53,53,0,0,1,2.16-11.74,35.52,35.52,0,0,0-3.84,9.37,7.08,7.08,0,0,1-1.12,2.81c-.79.71-2.63.31-3.63-.49a1.79,1.79,0,0,1-.57-2.42l.06-.12a87.21,87.21,0,0,0,4.63-9.38,73,73,0,0,1-6.65,9.44,1.73,1.73,0,0,1-2.22.34c-.46-.34-.75-1.08-.2-2.14.79-1.5,2.63-5.38,4.25-9.21a59.89,59.89,0,0,1-6.73,9.15,1.59,1.59,0,0,1-1.92.13c-.24-.19-.71-.77,0-2,1.11-2,3.86-8,5.89-12.85S739.19,524,739.21,524a9.81,9.81,0,0,1,18.24,7.23c-.08.21-.18.43-.3.67-.07.4-.95,5-1.65,9.4h0a39.33,39.33,0,0,0-.31,6.7c0,2.26,0,3.36-.42,3.66a1.5,1.5,0,0,1-1.38,0,3.37,3.37,0,0,1-1.87-2.55c-.3-1.53-.67-3.86-.85-5.05a35.9,35.9,0,0,0-2.17,7.09c-.07.44-.13.89-.2,1.35-.45,3.19-.79,5.15-1.68,5.44a1.39,1.39,0,0,1-.4.06A1.42,1.42,0,0,1,745.33,557.69ZM751,543.25s.55,3.67,1,5.77a3,3,0,0,0,1.62,2.25,1.11,1.11,0,0,0,1,0c.27-.19.25-1.77.23-3.3a41.34,41.34,0,0,1,.32-6.77h0c.73-4.61,1.65-9.4,1.66-9.44l0-.06q.18-.36.3-.66a9.39,9.39,0,0,0-5.27-12.19,9.4,9.4,0,0,0-12.19,5.27c0,.06-2.75,6.47-4.83,11.45s-4.8,10.84-5.9,12.89c-.37.68-.39,1.22-.06,1.48a1.13,1.13,0,0,0,1.37-.13,62.26,62.26,0,0,0,8.2-11.76l.39.17c-1.79,4.6-4.46,10.28-5.45,12.17-.37.7-.34,1.3.08,1.61a1.31,1.31,0,0,0,1.66-.3,77.25,77.25,0,0,0,7.83-11.52l.39.17a76.15,76.15,0,0,1-5.53,11.8l-.06.12a1.38,1.38,0,0,0,.46,1.88c.92.74,2.54,1,3.09.51a7.36,7.36,0,0,0,1-2.61,34.91,34.91,0,0,1,4.62-10.62l.11-.15.34.16,0,.18c-1.62,5.7-2.39,9.68-2.51,12.92-.07,1.85.5,2.56.84,2.82a1,1,0,0,0,.91.18c.7-.23,1.08-2.93,1.39-5.1.07-.46.13-.91.2-1.35a39.89,39.89,0,0,1,2.49-7.89l.29-.68Z" transform="translate(-399.29 -352.52)"/><path class="cls-9" d="M854.19,465.29l40.64-5a13.66,13.66,0,0,1,15.31,12.82l5.11,94.67L871,569.3l-45.47,3.51-24.13-91.63A8.2,8.2,0,0,1,808.34,471Z" transform="translate(-399.29 -352.52)"/><path class="cls-7" d="M824.14,567.76h91.11c6,17.33,5.59,41.63,5.59,41.63L869.7,603.8H818.55S818.17,585.09,824.14,567.76Z" transform="translate(-399.29 -352.52)"/><path class="cls-5" d="M844.59,466.5l-.79-9.38,11.6-4.7,2.1,12.49,5.36-.67a15.25,15.25,0,0,1-12.68,9.32c-9.92,1.23-11.88-6.28-11.88-6.28Z" transform="translate(-399.29 -352.52)"/><path class="cls-8" d="M859.41,442.82s2.73-12.08-4.94-12.83c-1.92-4.57-11.86-3-15.68-2.63s-7.3.86-7.88,4.47,3.11,5.11,3.11,5.11-2.27,8.33,4.74,8.51S859.41,442.82,859.41,442.82Z" transform="translate(-399.29 -352.52)"/><polygon class="cls-8" points="444.49 104.47 444.58 105.19 457.26 106.66 456.16 100.2 444.49 104.47"/><path class="cls-5" d="M856.3,442.64a10.37,10.37,0,0,0-2.55-7.26c-2.93-3.29-5.28-3.68-9.26-3.19s-7.41,3.7-7.2,9.82,1.05,16.38,10.29,15.24,9.28-9,9.28-9,5.48.44,5-3.5C861.41,441.1,856.3,442.64,856.3,442.64Z" transform="translate(-399.29 -352.52)"/><path class="cls-8" d="M850.56,440.76a14.63,14.63,0,0,0-2.85.26c-1.59.29-1.7-.2-1.56-.75.2-.8,3.29-.76,4.18-.51S851.27,440.75,850.56,440.76Z" transform="translate(-399.29 -352.52)"/><path class="cls-8" d="M838.47,442.26a11.62,11.62,0,0,1,2.52-.41c1.44-.08,1.42-.58,1.18-1.09-.36-.73-3,0-3.73.46S837.86,442.41,838.47,442.26Z" transform="translate(-399.29 -352.52)"/><path class="cls-8" d="M843.61,446a.14.14,0,0,0,.09,0c1-.71.59-2.25.57-2.32a.16.16,0,0,0-.2-.1.16.16,0,0,0-.11.2s.41,1.38-.44,2a.16.16,0,0,0,0,.22A.15.15,0,0,0,843.61,446Z" transform="translate(-399.29 -352.52)"/><path class="cls-5" d="M846.34,447.6l-3.64.44,0,0a1.92,1.92,0,0,0,3.71-.43A0,0,0,0,0,846.34,447.6Z" transform="translate(-399.29 -352.52)"/><path class="cls-8" d="M842.48,448.13l0-.11.12-.17,3.73-.46a.26.26,0,0,1,.21.06l.09.11v.1a2,2,0,0,1-1.85,1.88,2.11,2.11,0,0,1-.35,0A2,2,0,0,1,842.48,448.13Zm.48.1a1.73,1.73,0,0,0,3.2-.4Z" transform="translate(-399.29 -352.52)"/><path class="cls-8" d="M848.34,444.27h0a.53.53,0,0,0,.45-.58l0-.24a.51.51,0,0,0-.58-.45h0a.52.52,0,0,0-.45.58l0,.11v.12A.53.53,0,0,0,848.34,444.27Z" transform="translate(-399.29 -352.52)"/><path class="cls-8" d="M841,445.17h0a.51.51,0,0,0,.45-.57l0-.24a.51.51,0,0,0-.58-.45h0a.52.52,0,0,0-.45.57l0,.12v.12A.52.52,0,0,0,841,445.17Z" transform="translate(-399.29 -352.52)"/><path class="cls-8" d="M858.67,446.54h0a.82.82,0,0,0,.82-.53,1.07,1.07,0,0,0-.33-1.12.15.15,0,0,0-.22,0,.16.16,0,0,0,0,.22.76.76,0,0,1,.22.77.49.49,0,0,1-.52.31h0a1,1,0,0,1-.08-2,1.5,1.5,0,0,1,1.72.46.15.15,0,0,0,.22,0,.16.16,0,0,0,0-.22,1.87,1.87,0,0,0-2.09-.56,1.29,1.29,0,0,0-.94,1.48A1.27,1.27,0,0,0,858.67,446.54Z" transform="translate(-399.29 -352.52)"/><path class="cls-8" d="M856.07,442.93s-3.49,0-4.06-7.2c-3.27,2.34-14.31,4.62-16.32,2s5.84-11.4,16.67-6.52S856.07,442.93,856.07,442.93Z" transform="translate(-399.29 -352.52)"/><path class="cls-11" d="M694.63,654.44a13.78,13.78,0,0,1,23.23,13,13.39,13.39,0,0,1-2.68,4.8,13.59,13.59,0,0,1-20.55-17.8Z" transform="translate(-399.29 -352.52)"/><path class="cls-5" d="M694.63,654.44a13.78,13.78,0,0,1,23.23,13,13.39,13.39,0,0,1-2.68,4.8c-.19.22-.39.43-.59.64h0c-.3.3-.61.59-.94.86l-7.24,6.75s-5.85,5.45-14.29-1.74-6.34-14-5.39-15.14l7.32-8.5,0,0C694.25,654.9,694.44,654.67,694.63,654.44Z" transform="translate(-399.29 -352.52)"/><path class="cls-8" d="M706.41,680.49s-4.9,4.76-7.28,6.51-4.79.06-10.06-4.09-18.24-14.61-20.44-16.34-2.43-5.7,1.72-4.78,10.77,2.68,12.79,2.76a6.82,6.82,0,0,0,3.59-.94s4.74,3.81,5.51,5.42.15,6,3.63,9S703.52,678,706.41,680.49Z" transform="translate(-399.29 -352.52)"/><path class="cls-7" d="M833,572.33c.63-.11,1.27-.19,1.91-.24a21.7,21.7,0,0,1,16,5.29,21.06,21.06,0,0,1,7.21,15A22.15,22.15,0,0,1,852.67,608a21.33,21.33,0,0,1-14.51,7.36c-.62,0-1.24.06-1.85,0h0s-.68,0-3,.08-6.38.27-13,.72c-2.69-.16-8-.26-14.51-.18s-14.12.36-21.27.93c-3.56.28-7,.64-10,1.06-1.51.21-2.92.43-4.17.65s-2.33.46-3.19.65l-.27.06h-.12l-.28,0-.28,0a1.17,1.17,0,0,0-.27,0,3.45,3.45,0,0,0-.92.28c-.14.09-.28.16-.41.23l-.11.05-.16.12-.3.21c-.39.26-.65.43-.83.57-.91.76-1.76,1.51-2.51,2.21l-1.06,1c-.33.34-.64.68-.92,1-1.13,1.22-1.78,2-1.78,2l0,0c-.16.22-.33.43-.5.63-.85,1.13-1.68,2.83-2.9,5-.61,1.07-1.32,2.22-2.17,3.54s-1.86,2.75-3.06,4.29h0c-2,3.13-6.64,8.71-11.65,14.59s-10.39,12-14,16.24L717.61,677,691.22,654.2l4.8-5.76c9.26-11.12,18.58-22.17,28.27-33.14,2.41-2.74,4.91-5.48,7.39-8.22,1.25-1.36,2.56-2.74,3.84-4.11s2.67-2.76,4.05-4.15l1-1,.52-.52.6-.56,1.23-1.12,1.49-1.34c.5-.45,1.06-.9,1.62-1.32.28-.21.55-.43.84-.63l.88-.59c.59-.39,1.2-.73,1.81-1.09s1.24-.67,1.87-1,1.27-.61,1.92-.9l1-.41.83-.35,1.61-.63,1.58-.57c2.06-.72,4.05-1.32,6-1.88,4.54-1.39,8.91-2.49,13.26-3.49s8.65-1.88,12.93-2.69c8.57-1.61,17.08-3,25.57-4.19q8.4-1.18,16.79-2.19Z" transform="translate(-399.29 -352.52)"/><path class="cls-11" d="M852.48,711a13.44,13.44,0,0,1,11.78-23.86,13.28,13.28,0,0,1,4.92,2.41A13.59,13.59,0,0,1,852.48,711Z" transform="translate(-399.29 -352.52)"/><path class="cls-5" d="M852.48,711a13.44,13.44,0,0,1,11.78-23.86,13.28,13.28,0,0,1,4.92,2.41c.23.18.45.37.67.56h0c.32.28.62.58.91.89l7.1,6.86a8.5,8.5,0,0,1,2,3.86c.6,2.49.36,6.07-3,10.49-6.71,8.83-13.68,7.1-14.83,6.21l-8.89-6.88,0,0C853,711.33,852.71,711.16,852.48,711Z" transform="translate(-399.29 -352.52)"/><path class="cls-8" d="M877.86,697.84s5,4.62,6.87,6.89.33,4.77-3.51,10.26l-15.16,21.35c-1.62,2.27-5.57,2.73-4.89-1.47s2.06-10.91,2-12.94a6.77,6.77,0,0,0-1.14-3.53s3.55-4.94,5.12-5.8,6-.48,8.73-4.12S875.54,700.85,877.86,697.84Z" transform="translate(-399.29 -352.52)"/><path class="cls-7" d="M889.54,586.79c.57-.28,1.15-.55,1.75-.79a21.49,21.49,0,0,1,28.16,12.42,21.81,21.81,0,0,1-12.19,28c-.58.23-1.17.43-1.75.6h0s-.66.2-2.9,1-6.07,2.15-12.37,4.55c-3.08.81-9.11,2.64-16.42,5s-15.91,5.43-24.05,8.57c-4.07,1.57-8,3.17-11.64,4.71-.09,0-.1,0-.13,0l-.09,0-.19,0-.38.07-.76.16c-.5.11-1,.25-1.51.39a20.25,20.25,0,0,0-4,1.59,2.86,2.86,0,0,0-1.61,1.84.86.86,0,0,0,.25.7,2.71,2.71,0,0,0,.22.23h0l.29.24a12.64,12.64,0,0,0,3,1.16c1.21.36,2.42.65,3.34,1h0a6.93,6.93,0,0,1,.87.22l.44.15.21.08c.1.06,0,0,.5.34,2.95,2.26,6.34,4.92,9.86,7.69L868,682.29l5.77,4.56-21.4,27.55-6-4.5c-6.78-5.12-13.53-10.29-20.24-15.58q-5-4-10-8L814.59,685l-1.86-1.55c-1.23-1.05-2.47-2.1-3.69-3.16-2.45-2.12-4.87-4.27-7.18-6.48a72.34,72.34,0,0,1-6.33-6.79,37.62,37.62,0,0,1-4.48-7c-.53-1.17-.92-2.35-1.33-3.55-.19-.6-.38-1.21-.55-1.86l-.13-.48c0-.17,0-.34-.06-.51a4.58,4.58,0,0,1,0-.53c0-.09,0-.18,0-.27v-.27a10.51,10.51,0,0,1,.28-2.12,15.79,15.79,0,0,1,.58-2,23.37,23.37,0,0,1,1.66-3.63,35.41,35.41,0,0,1,4.87-6.64,56.06,56.06,0,0,1,6.67-6,134.46,134.46,0,0,1,16.42-10.54l4.15-2.38,3.35-1.89q3.36-1.86,6.72-3.66c4.48-2.39,9-4.69,13.46-6.94,9-4.5,18-8.79,27.09-13q7.63-3.54,15.31-7Z" transform="translate(-399.29 -352.52)"/><path class="cls-5" d="M914.45,479.83q-1.16,7.79-2.61,15.57c-1,5.4-2.09,10.8-3.37,16.22s-2.75,10.88-4.56,16.4c-.91,2.76-1.91,5.54-3.07,8.36a83.22,83.22,0,0,1-4.09,8.61c-.43.75-.83,1.47-1.3,2.23-.24.37-.46.74-.7,1.12l-.84,1.26a39.42,39.42,0,0,1-4.24,5.2,30.32,30.32,0,0,1-5.12,4.22,22.28,22.28,0,0,1-6,2.71,41.76,41.76,0,0,1-6.46,1.3c-.54.08-1.14.11-1.71.15l-1.49.08c-.45,0-.86,0-1.28,0h-1.26l-1.25,0-1.2-.07c-.79,0-1.59-.09-2.38-.16l-2.29-.25-1.14-.13-1.11-.16a140.6,140.6,0,0,1-16.82-3.61c-5.38-1.48-10.6-3.14-15.74-4.91s-10.2-3.67-15.21-5.66q-4.74-1.9-9.44-3.94a9.49,9.49,0,0,1-5.56-12.49,9.71,9.71,0,0,1,12.32-5.48q4.65,1.49,9.34,2.86,7.35,2.22,14.74,4.08c4.92,1.24,9.83,2.35,14.69,3.24a115.13,115.13,0,0,0,14.21,1.81l.85,0,.82,0,1.65,0,1.56,0,.77,0,.72-.06.72-.06a6.69,6.69,0,0,0,.69-.07l.31-.05.08,0h.09l.27-.06a8.09,8.09,0,0,0,1.23-.42,3.38,3.38,0,0,0,1.06-.68,5.29,5.29,0,0,0,.8-1,7.83,7.83,0,0,0,.58-1.06,1.14,1.14,0,0,1,.06-.15l.15-.27c.1-.18.19-.39.29-.59.2-.37.38-.82.58-1.24a57.33,57.33,0,0,0,2.15-5.87c.65-2.11,1.25-4.34,1.79-6.62,1.07-4.58,1.93-9.39,2.65-14.26s1.3-9.85,1.77-14.85c.41-4.67.73-9.38,1-14.09Z" transform="translate(-399.29 -352.52)"/><path class="cls-8" d="M809.28,548.11c-3.17-1.28-6.35-2.61-9.44-3.94a9.41,9.41,0,0,1-5.39-5.11,9,9,0,0,1-.06-7.1,9.48,9.48,0,0,1,12.06-5.37c2.55.82,5.14,1.61,7.73,2.38l-.12-.48c-2.5-.74-5-1.51-7.47-2.3a9.91,9.91,0,0,0-12.59,5.6,9.43,9.43,0,0,0,.07,7.44,9.81,9.81,0,0,0,5.61,5.33c3.09,1.33,6.27,2.66,9.45,3.94q2.34.93,4.61,1.8l.21-.38C812.42,549.34,810.87,548.74,809.28,548.11Z" transform="translate(-399.29 -352.52)"/><path class="cls-9" d="M874.82,508c1.44-5.58,2.69-11.37,3.79-17.25,1-5.1,1.86-10.28,2.65-15.48a17,17,0,0,1,6-11.36,18.07,18.07,0,0,1,12.53-4.21,16.51,16.51,0,0,1,11.91,5.92,17.54,17.54,0,0,1,4,13.06l0,.33c-.35,5.57-.8,11.14-1.38,16.75-.72,6.57-1.61,13.19-2.8,19.91Z" transform="translate(-399.29 -352.52)"/><path class="cls-8" d="M907.68,514.86l-28.75-6-.33,1.95q13.77,5,27.35,10.56C906.56,519.18,907.14,517,907.68,514.86Z" transform="translate(-399.29 -352.52)"/><polygon class="cls-8" points="395.74 200.73 339.94 206.64 341.37 212.74 396.6 206.73 395.74 200.73"/><polygon class="cls-8" points="348.24 211.99 330.61 147.12 254.69 152.66 273.89 218.65 348.24 211.99"/><path class="cls-5" d="M801.48,527l-.33-.76s-3.12.75-4.81,1-4,4.89-4,4.89.06,5.08.21,5.34,1.36,4.93,1.36,4.93l6,2.64,1.54.72,2.82-1S810,531,801.48,527Z" transform="translate(-399.29 -352.52)"/><path class="cls-5" d="M759.23,530.42l-1.37-6.26-3-3.35.68,7.94a42.84,42.84,0,0,1,.92,7c0,2.5,6.07,5.11,5.66,4.09S759.23,530.42,759.23,530.42Z" transform="translate(-399.29 -352.52)"/><path class="cls-7" d="M841.86,661.68s-6.36-5.6-8.76-7.37c3.75-2.3,9.71-5.42,9.71-5.42s-16,1.69-16,1.9-2.95,3.76-2.33,4.91,6.44,4.87,7.06,5.11S841.86,661.68,841.86,661.68Z" transform="translate(-399.29 -352.52)"/><path class="cls-5" d="M829.59,616.13a.35.35,0,0,0,.2,0l26.71-13.46a.45.45,0,0,0,.24-.51,136.9,136.9,0,0,1-2.33-32.85.46.46,0,0,0-.44-.48.45.45,0,0,0-.48.44A140.53,140.53,0,0,0,855.77,602l-26.39,13.3a.45.45,0,0,0,.21.86Z" transform="translate(-399.29 -352.52)"/><path class="cls-5" d="M861.51,690.53a.44.44,0,0,0,.35-.16.47.47,0,0,0-.05-.65c-.21-.17-20.8-17.87-43.85-36.44,19.18-13.62,41.3-22.35,59.1-29.37,18-7.12,31-12.25,33.09-19.07,4-13.32-2-35.5-2.09-35.73a.44.44,0,0,0-.56-.31.45.45,0,0,0-.32.56c.06.22,6,22.15,2.09,35.22-1.93,6.39-15.44,11.72-32.55,18.47-18,7.11-40.4,16-59.79,29.84a.46.46,0,0,0-.19.36.48.48,0,0,0,.17.37c23.24,18.7,44.1,36.62,44.3,36.8A.5.5,0,0,0,861.51,690.53Z" transform="translate(-399.29 -352.52)"/><path class="cls-5" d="M846.65,709.5a.48.48,0,0,0,.36-.17l20.72-26.45a.46.46,0,0,0-.08-.64.45.45,0,0,0-.64.08l-20.72,26.44a.46.46,0,0,0,.07.65A.52.52,0,0,0,846.65,709.5Z" transform="translate(-399.29 -352.52)"/><path class="cls-5" d="M722.77,670.8a.48.48,0,0,0,.35-.16.45.45,0,0,0,0-.65l-25.63-22.26a.46.46,0,0,0-.6.7l25.63,22.25A.46.46,0,0,0,722.77,670.8Z" transform="translate(-399.29 -352.52)"/><path class="cls-5" d="M714.85,663.91a.49.49,0,0,0,.32-.12c12.41-12,20.42-22.72,26.86-31.36s11.51-15.45,18-19.26c12.67-7.49,85.33-5.3,86.06-5.28h0a.46.46,0,0,0,0-.91c-3-.1-73.66-2.23-86.56,5.41-6.59,3.89-11.72,10.78-18.21,19.49s-14.41,19.34-26.77,31.25a.45.45,0,0,0,0,.64A.43.43,0,0,0,714.85,663.91Z" transform="translate(-399.29 -352.52)"/><path class="cls-5" d="M741.52,565.5h.12a.46.46,0,0,0,.32-.56l-17.25-65a.46.46,0,1,0-.88.24l17.25,65A.45.45,0,0,0,741.52,565.5Z" transform="translate(-399.29 -352.52)"/><rect class="cls-7" x="517.22" y="91.13" width="6.21" height="6.21"/><rect class="cls-7" x="529.65" y="91.13" width="6.21" height="6.21"/><rect class="cls-7" x="523.44" y="84.91" width="6.21" height="6.21"/></svg>