<svg id="Layer_1" data-name="Layer 1" xmlns="http://www.w3.org/2000/svg" viewBox="0 0 256.69 191.53"><defs><style>.cls-1{fill:#fbd1c2;}.cls-2{fill:#383838;}.cls-3{fill:#4978de;}.cls-4{fill:#ccc;}</style></defs><title>img_03</title><path class="cls-1" d="M2118.65,555.77H2009a3.73,3.73,0,0,1-3.73-3.73v-80a3.73,3.73,0,0,1,3.73-3.73h109.65a3.73,3.73,0,0,1,3.73,3.73v80A3.73,3.73,0,0,1,2118.65,555.77ZM2009,469.34a2.73,2.73,0,0,0-2.73,2.73v80a2.73,2.73,0,0,0,2.73,2.73h109.65a2.73,2.73,0,0,0,2.73-2.73v-80a2.73,2.73,0,0,0-2.73-2.73Z" transform="translate(-1913.37 -468.34)"/><path class="cls-1" d="M2122.38,480.17H2005.27v-8.1a3.73,3.73,0,0,1,3.73-3.73h109.65a3.73,3.73,0,0,1,3.73,3.73Zm-116.11-1h115.11v-7.1a2.73,2.73,0,0,0-2.73-2.73H2009a2.73,2.73,0,0,0-2.73,2.73Z" transform="translate(-1913.37 -468.34)"/><circle class="cls-1" cx="201.58" cy="6.11" r="1.24"/><circle class="cls-1" cx="2103.57" cy="474.45" r="1.24" transform="translate(-615.08 2006.52) rotate(-80.78)"/><circle class="cls-1" cx="195.89" cy="6.11" r="1.24"/><path class="cls-2" d="M2018.28,571.43h-60.34a3.55,3.55,0,0,1-3.55-3.55V508.42a3.55,3.55,0,0,1,3.55-3.55h60.34a3.55,3.55,0,0,1,3.54,3.55v59.46A3.55,3.55,0,0,1,2018.28,571.43Zm-60.34-65.56a2.55,2.55,0,0,0-2.55,2.55v59.46a2.55,2.55,0,0,0,2.55,2.55h60.34a2.55,2.55,0,0,0,2.54-2.55V508.42a2.55,2.55,0,0,0-2.54-2.55Z" transform="translate(-1913.37 -468.34)"/><path class="cls-2" d="M2021.82,516.07h-67.43v-7.65a3.55,3.55,0,0,1,3.55-3.55h60.34a3.55,3.55,0,0,1,3.54,3.55Zm-66.43-1h65.43v-6.65a2.55,2.55,0,0,0-2.54-2.55h-60.34a2.55,2.55,0,0,0-2.55,2.55Z" transform="translate(-1913.37 -468.34)"/><circle class="cls-2" cx="101.43" cy="42.32" r="1.17"/><circle class="cls-2" cx="2004.09" cy="510.65" r="1.17" transform="translate(-734.36 1938.73) rotate(-80.78)"/><circle class="cls-2" cx="96.07" cy="42.32" r="1.17"/><path class="cls-3" d="M2162.33,595.27h-64.85a3.55,3.55,0,0,1-3.55-3.54V516.48a3.55,3.55,0,0,1,3.55-3.55h64.85a3.55,3.55,0,0,1,3.54,3.55v75.25A3.55,3.55,0,0,1,2162.33,595.27Zm-64.85-81.34a2.55,2.55,0,0,0-2.55,2.55v75.25a2.55,2.55,0,0,0,2.55,2.54h64.85a2.54,2.54,0,0,0,2.54-2.54V516.48a2.55,2.55,0,0,0-2.54-2.55Z" transform="translate(-1913.37 -468.34)"/><path class="cls-3" d="M2165.87,524.13h-71.94v-7.65a3.55,3.55,0,0,1,3.55-3.55h64.85a3.55,3.55,0,0,1,3.54,3.55Zm-70.94-1h69.94v-6.65a2.55,2.55,0,0,0-2.54-2.55h-64.85a2.55,2.55,0,0,0-2.55,2.55Z" transform="translate(-1913.37 -468.34)"/><circle class="cls-3" cx="245.47" cy="50.38" r="1.17"/><circle class="cls-3" cx="2148.14" cy="518.71" r="1.17" transform="translate(-621.34 2087.69) rotate(-80.78)"/><circle class="cls-3" cx="240.12" cy="50.38" r="1.17"/><path class="cls-3" d="M2128.43,560.67a29.37,29.37,0,0,1,4.55-4.94,24.92,24.92,0,0,0,3.41-3.53,5.59,5.59,0,0,0,1.11-3.41,5.2,5.2,0,0,0-2.16-4.33,9.36,9.36,0,0,0-5.8-1.66q-6.87,0-10.38,4.91l-6.18-4a18,18,0,0,1,7.07-5.77,24,24,0,0,1,10.19-2q7.14,0,11.37,3.08a10,10,0,0,1,4.24,8.51,11.41,11.41,0,0,1-.86,4.58,13.06,13.06,0,0,1-2.07,3.35,41.77,41.77,0,0,1-3.19,3.15,25,25,0,0,0-3.6,3.82,6.66,6.66,0,0,0-1.17,4h-8.09A9.78,9.78,0,0,1,2128.43,560.67Zm-1.15,19.48a4.8,4.8,0,0,1-1.43-3.53,4.7,4.7,0,0,1,1.43-3.5,5,5,0,0,1,3.66-1.4,4.9,4.9,0,0,1,3.6,1.4,4.67,4.67,0,0,1,1.43,3.5,4.77,4.77,0,0,1-1.43,3.53,4.85,4.85,0,0,1-3.6,1.44A5,5,0,0,1,2127.28,580.15Z" transform="translate(-1913.37 -468.34)"/><path class="cls-1" d="M2058.84,515.64a30,30,0,0,1,4.42-4.93,28,28,0,0,0,3-3.14,4.46,4.46,0,0,0,1-2.73,3.76,3.76,0,0,0-1.69-3.21,7.41,7.41,0,0,0-4.38-1.21,9.66,9.66,0,0,0-5,1.32,10,10,0,0,0-3.62,3.65l-10.29-5.52a19.52,19.52,0,0,1,8-7.52,26.82,26.82,0,0,1,12.49-2.69q8.2,0,13.21,3.42a10.92,10.92,0,0,1,5,9.55,12.3,12.3,0,0,1-1,5,14.08,14.08,0,0,1-2.31,3.65,41.52,41.52,0,0,1-3.49,3.35,25.82,25.82,0,0,0-3.45,3.41,5.17,5.17,0,0,0-1.1,3.28h-12.28A9.94,9.94,0,0,1,2058.84,515.64Zm-1,21.8a6.79,6.79,0,0,1-2.21-5.14,6.61,6.61,0,0,1,2.17-5.1,8,8,0,0,1,5.63-2,8.05,8.05,0,0,1,5.65,2,6.54,6.54,0,0,1,2.21,5.1,6.79,6.79,0,0,1-2.21,5.14,7.82,7.82,0,0,1-5.65,2.11A7.74,7.74,0,0,1,2057.88,537.44Z" transform="translate(-1913.37 -468.34)"/><path class="cls-2" d="M1987.38,544.13a7.62,7.62,0,0,1,1.41-2.21c.56-.61,1.3-1.32,2.22-2.16a18.62,18.62,0,0,0,2.54-2.6,4.32,4.32,0,0,0,.81-2.64,4.06,4.06,0,0,0-1.63-3.38,7.25,7.25,0,0,0-4.52-1.26,9.19,9.19,0,0,0-7.69,3.39l-3.14-2.23a11.71,11.71,0,0,1,4.62-3.57,16,16,0,0,1,6.51-1.25,12.21,12.21,0,0,1,7.44,2,6.61,6.61,0,0,1,2.76,5.61,8,8,0,0,1-.58,3.12,8.29,8.29,0,0,1-1.4,2.26c-.55.6-1.28,1.32-2.2,2.15a17.82,17.82,0,0,0-2.6,2.79,5.1,5.1,0,0,0-.84,3h-4.3A7.34,7.34,0,0,1,1987.38,544.13Zm-.39,12a2.79,2.79,0,0,1,4-3.92,2.73,2.73,0,0,1,.77,2,2.68,2.68,0,0,1-.8,2,2.65,2.65,0,0,1-2,.79A2.7,2.7,0,0,1,1987,556.13Z" transform="translate(-1913.37 -468.34)"/><rect class="cls-4" x="1965.86" y="652.68" width="140.67" height="6.68" transform="translate(2159.02 843.71) rotate(180)"/><polygon class="cls-4" points="13.83 191.03 154.5 191.03 140.67 97.86 0 97.86 13.83 191.03"/><rect class="cls-2" x="158.69" y="187.19" width="8.84" height="1"/><rect class="cls-2" x="173.14" y="187.19" width="3.45" height="1"/><path class="cls-3" d="M2135.88,650.25c-.46,0-.92,0-1.4,0a1.89,1.89,0,0,1,.25-3.77c6.53.44,9.71-2.81,11.21-5.62a15.3,15.3,0,0,0-1.12-15.62c-1.64-2.15-4.67-4.46-9.79-3.28a1.88,1.88,0,0,1-.85-3.67c5.53-1.27,10.37.38,13.64,4.66a19,19,0,0,1,1.44,19.69C2146.6,647.57,2141.88,650.25,2135.88,650.25Z" transform="translate(-1913.37 -468.34)"/><rect class="cls-3" x="186.18" y="139.41" width="38.89" height="51.61"/><path class="cls-2" d="M2138.44,613.28h-38.89a.5.5,0,0,1-.5-.5.51.51,0,0,1,.5-.5h38.89a.5.5,0,0,1,.5.5A.5.5,0,0,1,2138.44,613.28Z" transform="translate(-1913.37 -468.34)"/><path class="cls-2" d="M2169.56,659.87H1919.21a.5.5,0,0,1-.5-.5.5.5,0,0,1,.5-.5h250.35a.5.5,0,0,1,.5.5A.5.5,0,0,1,2169.56,659.87Z" transform="translate(-1913.37 -468.34)"/></svg>