<svg id="Layer_1" data-name="Layer 1" xmlns="http://www.w3.org/2000/svg" viewBox="0 0 830.04 173.19"><defs><style>.cls-1{fill:#456cd1;}</style></defs><title>img_14_bg_02</title><path class="cls-1" d="M1670.57,292.58c23.12,11.75,53.32,20.1,83.43,25.61,65.94,12.05,131,11,186.86,3.73,58.55-7.67,113.59-18.69,166.35-30.8,39.68-9.11,78.84-18.88,124.08-23.64,28.59-3,64.87-3.06,92.65,8.21,23,9.33,32,23.39,33.32,35.42,2.65,25.18-18.57,47.75,9.69,74.89,17.55,16.85,51,25.51,85.08,27.54V240.34H1622C1626.35,258.49,1640.49,277.3,1670.57,292.58Z" transform="translate(-1621.99 -240.34)"/></svg>