<svg id="Layer_1" data-name="Layer 1" xmlns="http://www.w3.org/2000/svg" viewBox="0 0 271 335.76"><defs><style>.cls-1{fill:#ededed;}.cls-2{fill:#4978de;}.cls-3{fill:#f9e3dc;}.cls-4{fill:#aaadaf;}.cls-5{fill:#ccc;}.cls-6{fill:#383838;}.cls-7{fill:#fbd1c2;}.cls-8{fill:#fff;}</style></defs><title>img_02</title><path class="cls-1" d="M1977.48,488.51l38,42.72c.11-.11.23-.21.35-.31a55.74,55.74,0,0,1,87.82,19.8L2156,528a112.88,112.88,0,0,0-177.85-40.09c-.17.14-.34.28-.5.43Z" transform="translate(-1919.22 -395.56)"/><path class="cls-2" d="M1930.81,550.5l56,11.65a55.38,55.38,0,0,1,17.54-30.3c.11-.11.23-.21.35-.31l-37.6-43c-.17.14-.34.28-.5.43l-.21.18a113,113,0,0,0-35.53,61.37Z" transform="translate(-1919.22 -395.56)"/><path class="cls-3" d="M1941.43,561.93c-12.28,60.69,27.56,120.74,88.26,133s120.75-27.56,133-88.26a112.82,112.82,0,0,0-7-67.15l-52.46,22.67a55.74,55.74,0,1,1-105.8,11Z" transform="translate(-1919.22 -395.56)"/><path class="cls-2" d="M1987.18,428.5l2.29,4.73a.75.75,0,0,0,.55.41l5.19.79a.73.73,0,0,1,.4,1.25l-3.79,3.64a.72.72,0,0,0-.22.65l.85,5.18a.73.73,0,0,1-1.07.76l-4.63-2.48a.74.74,0,0,0-.68,0l-4.67,2.4a.73.73,0,0,1-1.06-.77l.93-5.18a.69.69,0,0,0-.2-.64l-3.74-3.7a.74.74,0,0,1,.42-1.25l5.21-.71a.73.73,0,0,0,.55-.4l2.36-4.69A.73.73,0,0,1,1987.18,428.5Z" transform="translate(-1919.22 -395.56)"/><path class="cls-4" d="M2053.51,731.32H1962a3.21,3.21,0,0,1-3.2-3.2V661.37a3.2,3.2,0,0,1,3.2-3.2h91.53a3.2,3.2,0,0,1,3.2,3.2v66.75A3.21,3.21,0,0,1,2053.51,731.32ZM1962,659.17a2.2,2.2,0,0,0-2.2,2.2v66.75a2.21,2.21,0,0,0,2.2,2.2h91.53a2.21,2.21,0,0,0,2.2-2.2V661.37a2.2,2.2,0,0,0-2.2-2.2Z" transform="translate(-1919.22 -395.56)"/><path class="cls-4" d="M2056.71,668.21h-97.93v-6.84a3.2,3.2,0,0,1,3.2-3.2h91.53a3.2,3.2,0,0,1,3.2,3.2Zm-96.93-1h95.93v-5.84a2.2,2.2,0,0,0-2.2-2.2H1962a2.2,2.2,0,0,0-2.2,2.2Z" transform="translate(-1919.22 -395.56)"/><circle class="cls-4" cx="131.19" cy="267.79" r="1.03"/><circle class="cls-4" cx="121.7" cy="267.79" r="1.03"/><circle class="cls-4" cx="126.45" cy="267.79" r="1.03"/><path class="cls-2" d="M1968.26,715.08l13.38-14.6a1.53,1.53,0,0,1,2-.24l17.2,11.52,22-24.82a1.46,1.46,0,0,1,.57-.41l24.64-10,1.15,2.83-24.31,9.84-22.65,25.55a1.52,1.52,0,0,1-2,.26L1983,703.51l-12.49,13.64Z" transform="translate(-1919.22 -395.56)"/><path class="cls-2" d="M1985.78,702a3,3,0,1,1-3-3A3,3,0,0,1,1985.78,702Z" transform="translate(-1919.22 -395.56)"/><path class="cls-2" d="M2004.22,713a3.21,3.21,0,1,1-3.2-3.2A3.2,3.2,0,0,1,2004.22,713Z" transform="translate(-1919.22 -395.56)"/><path class="cls-2" d="M2027,688.47a3.3,3.3,0,1,1-3.3-3.31A3.3,3.3,0,0,1,2027,688.47Z" transform="translate(-1919.22 -395.56)"/><path class="cls-2" d="M2188.05,610.61H2131.4a2.19,2.19,0,0,1-2.18-2.18V567.11a2.18,2.18,0,0,1,2.18-2.17h56.65a2.17,2.17,0,0,1,2.17,2.17v41.32A2.18,2.18,0,0,1,2188.05,610.61Zm-56.65-44.67a1.18,1.18,0,0,0-1.18,1.17v41.32a1.18,1.18,0,0,0,1.18,1.18h56.65a1.17,1.17,0,0,0,1.17-1.18V567.11a1.17,1.17,0,0,0-1.17-1.17Z" transform="translate(-1919.22 -395.56)"/><path class="cls-2" d="M2190.22,571.54h-61v-4.43a2.18,2.18,0,0,1,2.18-2.17h56.65a2.17,2.17,0,0,1,2.17,2.17Zm-60-1h59v-3.43a1.17,1.17,0,0,0-1.17-1.17H2131.4a1.18,1.18,0,0,0-1.18,1.17Z" transform="translate(-1919.22 -395.56)"/><circle class="cls-2" cx="266.92" cy="172.78" r="0.64"/><circle class="cls-2" cx="261.04" cy="172.78" r="0.64"/><circle class="cls-2" cx="263.98" cy="172.78" r="0.64"/><rect class="cls-2" x="215.5" y="199.56" width="10.56" height="10.98" rx="1.77"/><rect class="cls-2" x="228.64" y="188.58" width="10.56" height="21.96" rx="1.77"/><rect class="cls-2" x="241.79" y="196.69" width="10.56" height="13.84" rx="1.77"/><rect class="cls-2" x="254.94" y="180.94" width="10.56" height="29.59" rx="1.77"/><path class="cls-5" d="M2093.78,550.93h-38.45a2.7,2.7,0,0,0-2.68,3l2.11,23.29a2.7,2.7,0,0,0,2.68,2.46h34.15a2.7,2.7,0,0,0,2.69-2.45l2.18-23.3A2.69,2.69,0,0,0,2093.78,550.93Z" transform="translate(-1919.22 -395.56)"/><path class="cls-6" d="M2053.11,560.37h42.79a1.32,1.32,0,0,0,0-2.64h-42.79a1.32,1.32,0,0,0,0,2.64Z" transform="translate(-1919.22 -395.56)"/><path class="cls-6" d="M2075.61,559a1.31,1.31,0,0,0,1.31-1.31v-43.3a1.32,1.32,0,0,0-2.63,0v43.3A1.32,1.32,0,0,0,2075.61,559Z" transform="translate(-1919.22 -395.56)"/><path class="cls-6" d="M2090.37,559a1.32,1.32,0,0,0,1.25-.89l21.16-62a1.32,1.32,0,1,0-2.5-.85l-21.16,62a1.31,1.31,0,0,0,1.25,1.74Z" transform="translate(-1919.22 -395.56)"/><path class="cls-6" d="M2058.81,559a1.29,1.29,0,0,0,1.26-1.7l-19.06-62a1.32,1.32,0,0,0-2.52.78l19.06,62A1.32,1.32,0,0,0,2058.81,559Z" transform="translate(-1919.22 -395.56)"/><circle class="cls-7" cx="2075.64" cy="461.23" r="59.78" transform="translate(-1850.64 767.63) rotate(-31.81)"/><path class="cls-8" d="M2075.64,400.32V457.5a3.77,3.77,0,0,1-3.76,3.77h-57.19a3.77,3.77,0,0,1-3.76-4,64.85,64.85,0,0,1,60.71-60.71A3.77,3.77,0,0,1,2075.64,400.32Z" transform="translate(-1919.22 -395.56)"/><path class="cls-5" d="M2014.33,441.16a1.26,1.26,0,0,1-.33-.05,1,1,0,0,1-.62-1.27,65.6,65.6,0,0,1,58.2-44.28,1,1,0,1,1,.12,2,63.6,63.6,0,0,0-56.43,42.93A1,1,0,0,1,2014.33,441.16Z" transform="translate(-1919.22 -395.56)"/><path class="cls-2" d="M2115.18,415.25a3.76,3.76,0,0,1,5.48-.24,64.7,64.7,0,0,1,19.45,48.75,3.77,3.77,0,0,1-4.14,3.58L2082.82,462a3.76,3.76,0,0,1-2.48-6.19Z" transform="translate(-1919.22 -395.56)"/><path class="cls-8" d="M2110.78,633.32l1.66,9a1.21,1.21,0,0,0,1,1l9,1.66a1.21,1.21,0,0,1,0,2.39l-9,1.66a1.21,1.21,0,0,0-1,1l-1.66,9a1.21,1.21,0,0,1-2.39,0l-1.66-9a1.21,1.21,0,0,0-1-1l-9-1.66a1.21,1.21,0,0,1,0-2.39l9-1.66a1.21,1.21,0,0,0,1-1l1.66-9A1.21,1.21,0,0,1,2110.78,633.32Z" transform="translate(-1919.22 -395.56)"/><path class="cls-6" d="M1952,629.51h-30.66a2.1,2.1,0,0,1-2.1-2.09v-23a2.1,2.1,0,0,1,2.1-2.1H1952a2.09,2.09,0,0,1,2.09,2.1v23A2.09,2.09,0,0,1,1952,629.51Zm-30.66-26.2a1.1,1.1,0,0,0-1.1,1.1v23a1.09,1.09,0,0,0,1.1,1.09H1952a1.09,1.09,0,0,0,1.09-1.09v-23a1.09,1.09,0,0,0-1.09-1.1Z" transform="translate(-1919.22 -395.56)"/><polygon class="cls-6" points="17.43 220.98 0.76 208.09 1.37 207.3 17.43 219.72 34.04 206.86 34.66 207.65 17.43 220.98"/><ellipse class="cls-2" cx="34.05" cy="207.25" rx="3.49" ry="3.49"/></svg>