<svg id="Layer_1" data-name="Layer 1" xmlns="http://www.w3.org/2000/svg" viewBox="0 0 207.43 11.23"><defs><style>.cls-1{fill:#7b7d7f;}</style></defs><title>courseexpert_logo_black_SVG</title><path class="cls-1" d="M536.3,450.55a5.35,5.35,0,0,1,1.75-4.44,8,8,0,0,1,5.11-1.41c.66,0,1.23,0,1.72.06a11.66,11.66,0,0,1,1.4.17,11.17,11.17,0,0,1,1.37.32l-.5,1.82c-.67-.14-1.32-.25-1.93-.33a16.56,16.56,0,0,0-1.89-.11,5.14,5.14,0,0,0-3.37.92,3.65,3.65,0,0,0-1.09,2.94,3.25,3.25,0,0,0,1.06,2.69,5.3,5.3,0,0,0,3.26.83,17,17,0,0,0,2.23-.14,16.64,16.64,0,0,0,2.14-.39l.45,1.78a16.74,16.74,0,0,1-2.25.48,19.15,19.15,0,0,1-2.94.19,8.06,8.06,0,0,1-4.85-1.25A4.86,4.86,0,0,1,536.3,450.55Z" transform="translate(-536.3 -444.7)"/><path class="cls-1" d="M563.56,445.23a10.52,10.52,0,0,0-3.5-.53,10.18,10.18,0,0,0-3.5.54,4.49,4.49,0,0,0-2.3,1.76,5.93,5.93,0,0,0-.81,3.3,5.8,5.8,0,0,0,.84,3.31,4.67,4.67,0,0,0,2.33,1.77,9.93,9.93,0,0,0,3.46.55,11.71,11.71,0,0,0,2.68-.29,5.76,5.76,0,0,0,2.1-.94,4.26,4.26,0,0,0,1.36-1.75,6.91,6.91,0,0,0,.47-2.7,5.72,5.72,0,0,0-.82-3.26A4.43,4.43,0,0,0,563.56,445.23Zm0,7.4a3,3,0,0,1-1.48,1.18,5.82,5.82,0,0,1-2,.34,6.29,6.29,0,0,1-1.53-.18,3.64,3.64,0,0,1-1.3-.62,2.91,2.91,0,0,1-.89-1.18,4.6,4.6,0,0,1-.33-1.85,4.9,4.9,0,0,1,.32-1.89,2.82,2.82,0,0,1,.89-1.18,3.46,3.46,0,0,1,1.3-.61,6.43,6.43,0,0,1,1.54-.18,5.82,5.82,0,0,1,2,.35,3,3,0,0,1,1.48,1.17,5.11,5.11,0,0,1,0,4.65Z" transform="translate(-536.3 -444.7)"/><path class="cls-1" d="M581.4,451.64a2.08,2.08,0,0,1-.47,1.45,2.44,2.44,0,0,1-1.25.75,6.38,6.38,0,0,1-1.74.22,6.7,6.7,0,0,1-1.72-.21,2.73,2.73,0,0,1-1.29-.73,2.13,2.13,0,0,1-.49-1.48v-6.78H572v6.92a3.78,3.78,0,0,0,.74,2.44,4,4,0,0,0,2.08,1.31,12.45,12.45,0,0,0,6.26,0,4,4,0,0,0,2.08-1.31,3.78,3.78,0,0,0,.74-2.44v-6.92H581.4Z" transform="translate(-536.3 -444.7)"/><path class="cls-1" d="M602.26,453.75a3.16,3.16,0,0,1-1.7-.67,19.81,19.81,0,0,1-2.11-1.72,6.71,6.71,0,0,0,1.74-.58,2.9,2.9,0,0,0,1.14-1,3.33,3.33,0,0,0,.4-1.71,3,3,0,0,0-.6-1.94,3.59,3.59,0,0,0-2-1.05,16.23,16.23,0,0,0-3.67-.33l-2.25,0c-.83,0-1.83.06-3,.11v6.79a13,13,0,0,0,2.48.26l1.09,0h1.89A26.5,26.5,0,0,0,598,454a10.66,10.66,0,0,0,2.15,1.41,4.47,4.47,0,0,0,2,.51h.26l.22,0v-2.17h-.29Zm-4.59-3.8a11.7,11.7,0,0,1-2.21.16h-1.29l-1.46-.05v-3.52c.45,0,.81,0,1.09-.06h1.8a10,10,0,0,1,2.14.18,2,2,0,0,1,1.12.58,1.68,1.68,0,0,1,.32,1.09,1.52,1.52,0,0,1-.35,1.09A2,2,0,0,1,597.67,450Z" transform="translate(-536.3 -444.7)"/><rect class="cls-1" x="53.93" y="8.44" width="2.48" height="2.63"/><path class="cls-1" d="M617.77,450a14.63,14.63,0,0,0-2.49-.61L613,449a4.61,4.61,0,0,1-1.36-.46.86.86,0,0,1-.45-.76,1,1,0,0,1,.77-1,6.36,6.36,0,0,1,2.27-.32,14.46,14.46,0,0,1,1.73.1c.58.07,1.11.15,1.6.24s.85.19,1.11.27l.44-1.81c-.28-.08-.67-.17-1.15-.27s-1.05-.17-1.67-.24a17.29,17.29,0,0,0-1.95-.1,8.76,8.76,0,0,0-4.34.84,2.65,2.65,0,0,0-1.42,2.44,2.42,2.42,0,0,0,.48,1.54,3.32,3.32,0,0,0,1.37,1,10.91,10.91,0,0,0,2.14.64c1,.17,1.83.33,2.53.46a6.07,6.07,0,0,1,1.6.47.82.82,0,0,1,.55.75,1.06,1.06,0,0,1-.78,1,6.71,6.71,0,0,1-2.38.32,14.7,14.7,0,0,1-1.94-.13,19.12,19.12,0,0,1-1.94-.33,14.53,14.53,0,0,1-1.6-.42l-.47,1.84a14.57,14.57,0,0,0,1.62.41c.63.12,1.3.22,2,.3a18.45,18.45,0,0,0,2.06.12,10.16,10.16,0,0,0,4.49-.8,2.65,2.65,0,0,0,1.56-2.51,2.36,2.36,0,0,0-.53-1.6A3.63,3.63,0,0,0,617.77,450Z" transform="translate(-536.3 -444.7)"/><path class="cls-1" d="M629.12,451.08h7.16v-1.93h-7.16v-.89a19.13,19.13,0,0,0-2.52.12v7.39h10.48v-2h-8Z" transform="translate(-536.3 -444.7)"/><polygon class="cls-1" points="93.01 2.17 100.42 2.17 100.42 0.15 90.3 0.15 90.3 2.17 92.83 2.17 93.01 2.17"/><polygon class="cls-1" points="110.95 6.38 118.11 6.38 118.11 4.45 110.95 4.45 110.95 2.17 118.55 2.17 118.55 0.15 108.42 0.15 108.42 6.38 110.95 6.38 110.95 6.38"/><path class="cls-1" d="M647.25,452.44a17.18,17.18,0,0,0-2.53.16v3.17h10.49v-2h-8Z" transform="translate(-536.3 -444.7)"/><polygon class="cls-1" points="137.03 0.2 134.29 0.12 131.28 3.96 128.34 0.11 125.32 0.2 129.69 5.46 124.96 11.03 127.86 11.12 131.1 6.97 134.29 11.12 137.27 11.03 132.76 5.43 137.03 0.2"/><path class="cls-1" d="M690.05,445.57a5.11,5.11,0,0,0-1.92-.66,19.14,19.14,0,0,0-3.13-.21l-1.91,0-3.49.11v7.38a12.4,12.4,0,0,0,2.67.3h0l1,0,.74,0h1.77a11.07,11.07,0,0,0,3.28-.39,3,3,0,0,0,1.73-1.27,4.57,4.57,0,0,0,.52-2.35,5.25,5.25,0,0,0-.27-1.8A2.4,2.4,0,0,0,690.05,445.57Zm-1.47,4a1.3,1.3,0,0,1-.57.68,3.33,3.33,0,0,1-1.19.38,11.91,11.91,0,0,1-2,.13H684l-.81,0-1,0v-4.11l1.41-.06.89,0h.79a8.57,8.57,0,0,1,2.18.22,1.79,1.79,0,0,1,1.06.67,2.18,2.18,0,0,1,.29,1.17A3.07,3.07,0,0,1,688.58,449.58Z" transform="translate(-536.3 -444.7)"/><rect class="cls-1" x="143.3" y="9.05" width="2.51" height="2.03"/><path class="cls-1" d="M700.44,451.08h7.16v-1.93h-7.16v-.94a20.26,20.26,0,0,0-2.53.18v7.38H708.4v-2h-8Z" transform="translate(-536.3 -444.7)"/><polygon class="cls-1" points="164.76 2.17 171.74 2.17 171.74 0.15 161.62 0.15 161.62 2.17 164.14 2.17 164.76 2.17"/><path class="cls-1" d="M727.14,453.75a3.22,3.22,0,0,1-1.7-.67,20.85,20.85,0,0,1-2.1-1.72,6.84,6.84,0,0,0,1.74-.58,2.9,2.9,0,0,0,1.14-1,3.33,3.33,0,0,0,.39-1.71,2.94,2.94,0,0,0-.6-1.94,3.55,3.55,0,0,0-2-1.05,16.29,16.29,0,0,0-3.67-.33l-2.25,0c-.83,0-1.84.06-3,.11v1.88l2.48-.19c.44,0,.81,0,1.09-.06h1.79a10.12,10.12,0,0,1,2.15.18,1.92,1.92,0,0,1,1.11.58,1.69,1.69,0,0,1,.33,1.09,1.57,1.57,0,0,1-.35,1.09,2,2,0,0,1-1.16.56,11.75,11.75,0,0,1-2.22.16h-1.28l-1.46-.05v-2h-2.48v7.73h2.48v-3.88l1.09,0h1.89a26.5,26.5,0,0,0,2.26,2.09,10.62,10.62,0,0,0,2.14,1.41,4.51,4.51,0,0,0,2,.51h.26l.22,0v-2.17h-.3Z" transform="translate(-536.3 -444.7)"/><rect class="cls-1" x="200.38" y="3.73" width="2.51" height="7.35"/><polygon class="cls-1" points="207.43 0.15 195.86 0.15 195.86 2.2 199.82 2.2 199.82 2.2 203.66 2.2 203.66 2.2 207.43 2.2 207.43 0.15"/></svg>