<svg id="Layer_1" data-name="Layer 1" xmlns="http://www.w3.org/2000/svg" viewBox="0 0 329 281.99"><defs><style>.cls-1{fill:#dde7f6;}.cls-2{fill:#383838;}.cls-3{fill:#fff;}.cls-4{fill:#9fb2cd;}</style></defs><title>img_12</title><path class="cls-1" d="M1496.36,595.09a475.42,475.42,0,0,1-40.52,46.77c-24.63,24.94-54.55,47.91-90.37,47.28-16.73-.3-36.23-8.1-43.19-25-3.86-9.41-4-21.42-12.07-27.27-4.57-3.32-10.25-3.36-15.5-3.27l-33.51.59c-10.29.19-20.75.35-31-2.57s-20.4-9.41-25.87-19.35c-11.25-20.43-.52-46.44,9.25-62.57a796.72,796.72,0,0,1,47.34-69c17.85-23.45,38.75-44.62,64.35-56.15,12.46-5.62,28.56-8.08,39.19,3,6.42,6.72,9.07,16.72,14,24.91,11.56,19.33,34.11,26,53.6,24.41,22.67-1.85,42-11,65.37,1.12,15.14,7.88,28,24.07,30.56,42.49C1532.18,551.2,1511.76,574.78,1496.36,595.09Z" transform="translate(-1199.53 -407.16)"/><path class="cls-2" d="M1399.41,499.94c-2.84-4.44-7.64-21.73,5.4-27.84,13.35-6.25,24.72-.85,35,8.53S1454.24,503.35,1452,515s-4.26,18.18,1.42,21.31,21,10.79,22.18,20.54c1.06,8.91-6,17,0,20.65,11.37,6.82,6.54,23-4.83,26.14-13.45,3.7-38.35,7.67-56-.28s-6.54-70.18-6.54-70.18l-3.69-19.88Z" transform="translate(-1199.53 -407.16)"/><path class="cls-3" d="M1440.13,515.12a6,6,0,0,1-4.62,4.32,8.12,8.12,0,0,1-3.47.08c-.38-.07-1.43-.51-1.79-.27s-.46,1.14-.58,1.47a49.43,49.43,0,0,1-3.89,8.06,12.83,12.83,0,0,1-5.69,5.62,33.5,33.5,0,0,1-8.23,2.64,16.14,16.14,0,0,1-8.53-1.19c-1.1-.42-2.74-.79-3.14-2.06s.48-2.41,1.09-3.43q.2-.32.39-.66a21.83,21.83,0,0,0,2.2-6.44,4.06,4.06,0,0,1-1.62-.56.94.94,0,0,1-.56,0,5.76,5.76,0,0,1-3.62-3c-1.19-1.88-2.35-3.76-3.53-5.64a1.16,1.16,0,0,1,.06-1.36,24,24,0,0,1-.6-2.47,22.08,22.08,0,0,1-.22-6.64,11.73,11.73,0,0,1,3.1-6.47,50.43,50.43,0,0,0,4.26-5.19c.72-1.07,1.4-2.14,2.1-3.22.58-4.48,4.71-7.58,8.78-8.88a21.52,21.52,0,0,1,11.85-.33,7.94,7.94,0,0,1,3,.64,1.16,1.16,0,0,1,1.93.93c-.21,2.61-.38,5.24-.53,7.85a1.15,1.15,0,0,1,1.19,1.22c-.07,3.91-.15,7.82-.23,11.75,0,1.13-.16,2.62-.13,4.09.08.55.16,1.11.25,1.66a1,1,0,0,1,1.4.57l.27.75c.06.14.12.29.19.42a4,4,0,0,0,.67,1c0-.1.53-.44.6-.48a7.79,7.79,0,0,1,1-.5,5.32,5.32,0,0,1,4.28-.09A5,5,0,0,1,1440.13,515.12Z" transform="translate(-1199.53 -407.16)"/><path class="cls-3" d="M1406,434.31a8.38,8.38,0,0,1-2.7,3.33,30.12,30.12,0,0,1-3.85,2.78c-3,1.84-6,3.58-9,5.36s-6,3.33-8.41,5.67a47.24,47.24,0,0,0-6,7.83c-1.23,1.82-2.4,3.67-3.53,5.55-.39,3.51-2.8,6.48-4.57,9.48a113,113,0,0,0-5.82,11.78c-.81,1.81-1.62,3.63-2.46,5.43-.67,1.45-1.29,3.47-2.78,4.26s-3.36.26-4.83-.31a34.26,34.26,0,0,1-4.78-2.56,24,24,0,0,0-5.26-2.27,46.16,46.16,0,0,1-5.35-1.82,23.9,23.9,0,0,1-8.83-6.35c-2.55-3.21.34-7.23,2.14-10.1a90.21,90.21,0,0,0,5.64-10,72.7,72.7,0,0,0,5.83-18.87,1.08,1.08,0,0,1-.34-.63c-1-5-2-10.45,0-15.31,1.46-3.55,4.51-6.68,8.41-7.25a8.87,8.87,0,0,1,10-6.14,4.14,4.14,0,0,1,2.36-2.57,7.64,7.64,0,0,1,2.72-.48,4.15,4.15,0,0,0,2.47-.42,11.43,11.43,0,0,1,9.76-1.35,10.31,10.31,0,0,1,6.27,5.8c2.11,4.72.76,9.72-2.06,13.72.12,1.81.23,3.61.34,5.42,0,.28-.09,1.13.1,1.37s.55,0,.8,0a16.45,16.45,0,0,0,2.42-.48c3.13-.86,6-2.43,9-3.65a19,19,0,0,1,8.16-1.77C1404.23,429.93,1406.91,431.61,1406,434.31Z" transform="translate(-1199.53 -407.16)"/><path class="cls-2" d="M1402.64,440c-2,1.23-4.12,2.29-6.15,3.49s-4.1,2.49-6.11,3.82a40.33,40.33,0,0,0-10.24,9.12,102.34,102.34,0,0,0-7.46,12.29q-6.73,12.24-12.45,25c-.64-.27-1.27-.54-1.89-.82q6-13.49,13.2-26.38a98,98,0,0,1,6.93-11.35,40.25,40.25,0,0,1,9.6-8.81,134.49,134.49,0,0,1,11.65-7.09c2.28-1.24,7.34-4,5-7.26-2.49-3.47-7.94-1.12-10.93.34-3.44,1.7-6.69,3.83-10.47,4.72-2.1.5-4.29.25-6.38.74a13.15,13.15,0,0,0-5.2,3.11c-2.86,2.4-5.74,5.33-6.52,9.12-.28,1.31-2.34,1.08-2.08-.23,1-4.58,4.25-8,7.76-10.9a13.48,13.48,0,0,1,6.37-3.28c1.37-.21,2.77-.16,4.14-.33a15,15,0,0,0,3.17-.76c3.86-1.37,7.22-3.83,11-5.27,3.67-1.38,8.91-2,11.14,2.1C1408.74,434.94,1405.54,438.19,1402.64,440Z" transform="translate(-1199.53 -407.16)"/><path class="cls-2" d="M1355.6,433.39a1.14,1.14,0,0,0-1.47-.6,7.87,7.87,0,0,0-2,1.42,8.67,8.67,0,0,0-.89,1,7.8,7.8,0,0,0-.7,1.18,1.14,1.14,0,0,0,0,.85,1.12,1.12,0,0,0,1.47.6,1.29,1.29,0,0,0,.61-.63,7.4,7.4,0,0,1,1-1.32,6.39,6.39,0,0,1,1.21-.93l.2-.12a1.12,1.12,0,0,0,.61-.62A1.14,1.14,0,0,0,1355.6,433.39Z" transform="translate(-1199.53 -407.16)"/><path class="cls-2" d="M1362.34,428.16a20.51,20.51,0,0,0-4.12-6.9,11.4,11.4,0,0,0-6.28-3.06,11.25,11.25,0,0,0-11.49,6.18c-1.35,2.72-1.4,5.86-1.24,8.83.18,3.35.5,6.71.76,10.06.11,1.45,2.34,1.12,2.23-.32l-.57-7.36a35.51,35.51,0,0,1-.13-6.68c.46-3.94,3-7.44,7-8.35a9.18,9.18,0,0,1,9.83,4.42,30.48,30.48,0,0,1,2.75,6.11,9.08,9.08,0,0,1,.19,6.25c-.66,1.66-2.16,3.28-4.1,3.14a3.9,3.9,0,0,1-3.52-3.75c0-1.43-2.2-1.7-2.24-.25-.1,4.71,5.23,7.91,9.23,5.21a8.18,8.18,0,0,0,3.28-5.62C1364.26,433.36,1363.38,430.62,1362.34,428.16Z" transform="translate(-1199.53 -407.16)"/><path class="cls-2" d="M1370.2,423.73c-.65-3.11-2.64-5.44-4.86-7.59a14.87,14.87,0,0,0-3.38-2.75,8,8,0,0,0-4.52-.63,13.88,13.88,0,0,0-8.54,4.53c-1,1.06.83,2.4,1.8,1.34a11.17,11.17,0,0,1,8.19-3.71,6,6,0,0,1,4,2,30.42,30.42,0,0,1,3.14,3.28,9.49,9.49,0,0,1,2,4.22,19.8,19.8,0,0,1,.06,5.16c-.26,2.88-1.24,6.69-4.62,7.22a1.13,1.13,0,0,0,.32,2.23,7.68,7.68,0,0,0,5.85-5.55,19.54,19.54,0,0,0,.76-4.8A18.86,18.86,0,0,0,1370.2,423.73Z" transform="translate(-1199.53 -407.16)"/><path class="cls-2" d="M1367.6,409.79c-3.37-.84-7.41-.3-9.69,2.56-.9,1.13.9,2.48,1.8,1.34,1.59-2,4.48-2.29,6.83-1.85a11.68,11.68,0,0,1,6.17,3.49,13.16,13.16,0,0,1,1.89,15.15c-1.38,2.33-3.77,4.36-6.62,4.07a1.12,1.12,0,0,0-.26,2.23,9,9,0,0,0,7.81-3.7,14.39,14.39,0,0,0,2.86-9.49A14.75,14.75,0,0,0,1367.6,409.79Z" transform="translate(-1199.53 -407.16)"/><path class="cls-2" d="M1384.55,419.8a15.06,15.06,0,0,0-3.3-8.31,12.44,12.44,0,0,0-16.14-2.37c-1.24.75.16,2.52,1.38,1.77a10.34,10.34,0,0,1,14.57,4.37,15,15,0,0,1,1,9.9,7.24,7.24,0,0,1-5.49,5.39,1.13,1.13,0,0,0,.32,2.23,9,9,0,0,0,6.13-4.27A13.66,13.66,0,0,0,1384.55,419.8Z" transform="translate(-1199.53 -407.16)"/><path class="cls-2" d="M1382.52,435.31a28.53,28.53,0,0,1-.14-5.69,1.13,1.13,0,0,0-2.24-.26,34.56,34.56,0,0,0,.15,6.27,1.13,1.13,0,0,0,1.27.95A1.15,1.15,0,0,0,1382.52,435.31Z" transform="translate(-1199.53 -407.16)"/><path class="cls-2" d="M1338.75,457.5c-3.42,7-7,14-10.53,21l-2-1.05q2.08-4.14,4.16-8.27c2.19-4.37,4.46-8.69,6.56-13.1,1.94-4.06,3.65-8.45,3-13a1.13,1.13,0,0,1,2.23-.32C1342.92,447.92,1341,452.91,1338.75,457.5Z" transform="translate(-1199.53 -407.16)"/><path class="cls-4" d="M1409.6,540.43c-.49,2.61-2.32,4.46-4.35,6-2.23,1.72-4.54,3.35-6.92,4.84-4.79,3-10.07,5.39-15.8,5.58a1.17,1.17,0,0,1-.87-.34c-8.17-1.34-16.32-2.69-24.45-4.13-12.19-2.18-25-4.08-36-10.15-5.09-2.81-10.49-6.68-13.11-12-3-6.17-.93-13.21,1.1-19.33a1,1,0,0,1,.51-.61l7.3-14.48,8.24-16.37,1-2,1.89,1q14.89,7.86,30.19,14.4c.65.29,1.28.56,1.91.82a1.08,1.08,0,0,1-.07.46l-.64,1.68-5,13.06c5.37,1,10.77,1.95,16.1,3.19a48.71,48.71,0,0,1,14.73,5.76,53,53,0,0,1,11.46,9.77c3.17,3.53,5.92,7.89,10.35,10a1.14,1.14,0,0,1,.66,1.11l1.3.74A1.1,1.1,0,0,1,1409.6,540.43Z" transform="translate(-1199.53 -407.16)"/><path class="cls-2" d="M1428.87,479.66c-6.23-2.22-13.35-3-19.47,0a16.56,16.56,0,0,0-6.44,5.44,39.81,39.81,0,0,0-2.14,4.1,15.68,15.68,0,0,1-3,3.75,19.32,19.32,0,0,0-6.29,15.21,18.52,18.52,0,0,0,7.2,14.16,19.83,19.83,0,0,0,17.38,3.36c1.39-.39.49-2.46-.88-2.07a17.41,17.41,0,0,1-14-2.26,16.27,16.27,0,0,1-7.42-12.16,17.46,17.46,0,0,1,4.59-13.69c1-1,2.08-2,3-3.12a17.15,17.15,0,0,0,2.24-3.84,14,14,0,0,1,5-5.84c5.79-3.87,13.2-3.2,19.46-1C1429.41,482.24,1430.24,480.15,1428.87,479.66Z" transform="translate(-1199.53 -407.16)"/><path class="cls-2" d="M1411.8,492.4a1.56,1.56,0,0,0-1.47-.91,1.44,1.44,0,0,0-.89.29,1.18,1.18,0,0,0-.35.42,4.16,4.16,0,0,0-1.07.93,2.91,2.91,0,0,0-.51,1.2,1.22,1.22,0,0,0,0,.57,1.29,1.29,0,0,0,.49.68,1.74,1.74,0,0,0,.8.34,2.16,2.16,0,0,0,.59,0,2.05,2.05,0,0,0,.58-.18,3.6,3.6,0,0,0,1-.72A2.45,2.45,0,0,0,1411.8,492.4Z" transform="translate(-1199.53 -407.16)"/><path class="cls-2" d="M1426.17,499.25a2,2,0,0,0-.29-.29,1.91,1.91,0,0,0-.86-.36,2.81,2.81,0,0,0-.41,0,1.42,1.42,0,0,0-.7.09,4.31,4.31,0,0,0-.87.53,2.63,2.63,0,0,0-.43.45,2.11,2.11,0,0,0-.34.8,1.82,1.82,0,0,0,0,.57,1.82,1.82,0,0,0,.67,1.17,2.49,2.49,0,0,0,.36.21l.39.1h.43a1.81,1.81,0,0,0,.45-.14,2.92,2.92,0,0,0,.57-.37,4.32,4.32,0,0,0,.73-.81,4.76,4.76,0,0,0,.34-.57l.09-.18A1.17,1.17,0,0,0,1426.17,499.25Z" transform="translate(-1199.53 -407.16)"/><path class="cls-2" d="M1411.79,480a1.12,1.12,0,0,0-.82,2.09c3.37,1.33,3.73,6.18,3,9.19a11.51,11.51,0,0,1-6.25,7.66c-1.31.6-.44,2.67.88,2.07a13.87,13.87,0,0,0,7.66-9.69C1417.1,487.3,1416.08,481.7,1411.79,480Z" transform="translate(-1199.53 -407.16)"/><path class="cls-2" d="M1414.71,503.81c-.71-1-2.13-.73-3.17-.73h-8a1.33,1.33,0,0,0-1,.42,1,1,0,0,0-.69.88A4.5,4.5,0,0,0,1405,509a9.82,9.82,0,0,0,5.4.34,6.22,6.22,0,0,0,4.12-2.59A2.68,2.68,0,0,0,1414.71,503.81Zm-4.33,3.23a8.06,8.06,0,0,1-3.59.14c-1.06-.17-2.41-.76-2.69-1.85h8.6A3.57,3.57,0,0,1,1410.38,507Z" transform="translate(-1199.53 -407.16)"/><path class="cls-2" d="M1441.46,513.62a7.47,7.47,0,0,0-1.17-3.77A5.12,5.12,0,0,0,1437,508c-2.4-.46-5.73,0-7,2.32a1.17,1.17,0,0,0,.23,1.58,1.13,1.13,0,0,0,1.57-.23c.81-1.43,2.64-1.66,4.15-1.54a3.78,3.78,0,0,1,2.3.78,4,4,0,0,1,.93,2.49c.21,1.55.14,3.51-1.08,4.66s-3.39,1.31-5,1.25-3.6-.38-4.42-1.92a1.15,1.15,0,0,0-1.47-.6,1.13,1.13,0,0,0-.6,1.47,6.61,6.61,0,0,0,5.54,3.24c2.32.23,5.14,0,7.06-1.41S1441.65,516,1441.46,513.62Z" transform="translate(-1199.53 -407.16)"/><path class="cls-2" d="M1435.62,513.32h-4.26a1.26,1.26,0,0,0-.82.22,1.17,1.17,0,0,0-.42.77,1.13,1.13,0,0,0,1,1.24h4.26a1.19,1.19,0,0,0,.81-.23,1.16,1.16,0,0,0,.43-.76A1.13,1.13,0,0,0,1435.62,513.32Z" transform="translate(-1199.53 -407.16)"/><path class="cls-2" d="M1432.19,508.47a1.42,1.42,0,0,0-.59-.37,9.15,9.15,0,0,1-.36-.86,11.76,11.76,0,0,1-.44-1.54,21.13,21.13,0,0,1-.4-3.17c-.14-2.37-.06-4.75-.05-7.12l0-14.94c0-1.43-2.23-1.7-2.23-.25,0,6.37,0,12.75,0,19.12a27.43,27.43,0,0,0,.87,8.18c.32,1,.8,2.82,2,3.06A1.27,1.27,0,0,0,1432.19,508.47Z" transform="translate(-1199.53 -407.16)"/><path class="cls-2" d="M1402.15,523.71a88.32,88.32,0,0,1-5.59,13.27,1.14,1.14,0,0,0,.64,1.46,1.16,1.16,0,0,0,1.46-.64,90.44,90.44,0,0,0,5.59-13.27C1404.7,523.17,1402.61,522.33,1402.15,523.71Z" transform="translate(-1199.53 -407.16)"/><path class="cls-2" d="M1430.28,520q-4.46,7.08-8.27,14.53a1.13,1.13,0,0,0,.64,1.46,1.16,1.16,0,0,0,1.46-.64q3.67-7.17,8-14C1432.85,520.11,1431.05,518.75,1430.28,520Z" transform="translate(-1199.53 -407.16)"/><path class="cls-2" d="M1405,610.82a13.36,13.36,0,0,1-.81,3.88c-.42,1.5-.84,3-1.28,4.5q-2.55,8.82-5.45,17.54t-6.13,17.31c-2.06,5.48-4.15,11-6.53,16.33-1.89,4.26-4.24,8.61-8,11.5-4.54,3.5-10.19,3.51-15.66,3.51q-18.89,0-37.73-1.67-9.4-.83-18.77-2.07c-3.05-.4-6.13-.79-9.16-1.32-2.37-.42-4.76-1.27-6.17-3.36-2.46-3.65-1.22-8.63.42-12.34a79,79,0,0,1,7.16-12.3,112.61,112.61,0,0,1,19.1-21.5,114.72,114.72,0,0,1,24-16.07,109.43,109.43,0,0,1,24.74-8.83c.94-.33,1.88-.63,2.84-.9a52.49,52.49,0,0,1,32,1.23C1401.77,607.08,1404.89,608,1405,610.82Z" transform="translate(-1199.53 -407.16)"/><path class="cls-4" d="M1435.2,567.68c-1.45,4.25-3.25,8.42-5,12.54s-3.68,8.26-5.66,12.32-4.1,8.2-6.28,12.23-4.24,8-6.67,11.72a5.8,5.8,0,0,1-4.42,3,38.88,38.88,0,0,1-6.81-.42q-7.08-.62-14.12-1.46-14.28-1.7-28.43-4.28a1.07,1.07,0,0,1-.79-.57,6,6,0,0,1-4.28-4.5,13.8,13.8,0,0,1-.16-3.85c.09-1.52.19-3,.27-4.57.17-3.17.31-6.34.4-9.51,0-1.62.08-3.23.1-4.85,0-.72.08-1.45,0-2.17a2.39,2.39,0,0,0-.08-.59l-.34-.37a.89.89,0,0,1-.82-1c-1-1.12-1.91-2.25-2.8-3.44a23.25,23.25,0,0,1-4.88-11.44,36.07,36.07,0,0,1,1.25-12.86,25,25,0,0,1,6-10.93,37.19,37.19,0,0,1,9.53-7.64c4-2.09,8.23-2.27,12.63-2.15,4.74.12,9.5.18,14.24-.09a124.33,124.33,0,0,0,14-1.72,52.85,52.85,0,0,1,13.39-1.08,21.11,21.11,0,0,1,11.21,4,24.54,24.54,0,0,1,6.79,8.72,36.14,36.14,0,0,1,3.64,11.76A30.41,30.41,0,0,1,1435.2,567.68Z" transform="translate(-1199.53 -407.16)"/><path class="cls-3" d="M1373.49,537.3a18,18,0,0,1-.31-4.75c.11-1.43-2.12-1.7-2.23-.25a19.47,19.47,0,0,0,.14,4.25c-6.09,1.09-12.29,2.4-17.47,6s-8,9.35-9.17,15.55c-.27,1.42,2,1.67,2.24.25a26.41,26.41,0,0,1,2.86-8.23,18.27,18.27,0,0,1,5.7-6c5.11-3.42,11.34-4.5,17.29-5.54A1.15,1.15,0,0,0,1373.49,537.3Z" transform="translate(-1199.53 -407.16)"/><path class="cls-3" d="M1263.33,651.31c-1.89,3.22-6.41,3.29-9.17,1.28a9.27,9.27,0,0,1-2-2,5.12,5.12,0,0,1-2.53-2.34c-1.07-2-.8-4.61-.3-6.72a1,1,0,0,1,.18-.62,2.46,2.46,0,0,1,1.38-1.59c1.08-.41,2,.31,3,.73a12.18,12.18,0,0,0,3.08.93c1,.17,2,.26,2.92.5a5.34,5.34,0,0,1,3.87,3.8A7.93,7.93,0,0,1,1263.33,651.31Z" transform="translate(-1199.53 -407.16)"/><path class="cls-4" d="M1290.08,627.64c-11.6,4.54-21.88,8.51-27.52,10.82-15.17,6.24-18.58,4-24.15-9.53-.65-1.57-1.47-3.64-2.43-6.08l-1.28-3.33c-7.6-19.67-21-55.94-24.22-63.67-.37-.9-.67-1.74-.92-2.56l41.72-17c1.24,3.19,2.46,6.38,3.71,9.56,6.24,16,12.52,32,19.12,47.83A349.51,349.51,0,0,0,1290.08,627.64Z" transform="translate(-1199.53 -407.16)"/><path class="cls-3" d="M1344.24,605.08c-11.08,5.61-34.52,14.89-54.16,22.56a349.51,349.51,0,0,1-16-34c-6.6-15.85-12.88-31.84-19.12-47.83-1.25-3.18-2.47-6.37-3.71-9.56l2.4-1,77-31.44c.31.65.63,1.36.92,2.12,1.11,2.93,2.85,7.31,4.9,12.51.36.92.74,1.86,1.12,2.84,8.09,20.47,20,50.85,20.79,57.93C1359.5,588.53,1361.87,596.17,1344.24,605.08Z" transform="translate(-1199.53 -407.16)"/><path class="cls-2" d="M1359.55,579.33c-.81-7.18-12.9-38-21.1-58.78l-1.14-2.89c-2.08-5.27-3.84-9.71-5-12.69-.3-.77-.62-1.49-.94-2.15l-78.18,31.91L1208.45,553c.26.83.56,1.69.93,2.6,3.23,7.84,16.87,44.65,24.58,64.61l1.31,3.38c1,2.48,1.8,4.58,2.46,6.17,3.68,9,6.43,13,12.17,13,3.06,0,7-1.16,12.34-3.37,15.4-6.33,65-24.83,82.89-33.87S1360.62,588.76,1359.55,579.33Zm-15.41,24.27c-12.71,6.43-41.65,17.71-62.78,25.94-8.35,3.25-15.56,6.06-19.95,7.87-5.4,2.22-9,3.2-11.51,3.2-4.15,0-6.42-2.62-10.15-11.68-.6-1.47-1.4-3.48-2.44-6.14-.34-.86-.69-1.77-1.06-2.72l-.25-.64c-3.51-9.1-8.17-21.48-12.68-33.45-5.22-13.84-10.15-26.92-11.91-31.22l-.21-.52,20.46-8.35,22.39-9.14,76.2-31.1c1.16,3,2.89,7.41,5,12.8l.59,1.5c.19.46.37.92.55,1.4,6.54,16.57,20.15,51,21,58.22l.24,2C1358.65,589.88,1359.4,595.89,1344.14,603.6Z" transform="translate(-1199.53 -407.16)"/><path class="cls-2" d="M1331.4,502.82l-78.18,31.91L1208.45,553a19.78,19.78,0,0,1-.52-2.16c-1.15-6.45,2.23-10.41,10.48-14.18,10.1-4.62,85.55-34.87,94.79-38.67,7.73-3.18,13.31-3,17.11,2.9A20.42,20.42,0,0,1,1331.4,502.82Z" transform="translate(-1199.53 -407.16)"/><path class="cls-3" d="M1347.2,621.82a52.74,52.74,0,0,1-5.25,4.54,112.94,112.94,0,0,1-14.7,9.13l-.51.39a1,1,0,0,1-.67.25c-1.87,1-3.74,2-5.6,3a113.09,113.09,0,0,0-22.35,15.93.94.94,0,0,1-.75.27c-4.09,3.82-9.31,7.21-15,5a1.21,1.21,0,0,1-.69-1.34c-.07-.15-.12-.3-.18-.45a11.87,11.87,0,0,1-6,.6c-1.26-.21-3.17-.89-4-2.06a10.65,10.65,0,0,1-7.27.64,4.91,4.91,0,0,1-3.35-2.48c-.23-4.75-.4-9.41-.55-14.08a27.85,27.85,0,0,0,5.16-3.51l8.78-6.78-7.8-.82-.17.06c-1.91.41-3.94.63-5.67-.46a3.82,3.82,0,0,1-1.84-3.83c.53-2.88,4.15-4.11,6.66-4.55,1.8-.31,3.58.23,5.37-.21a42.53,42.53,0,0,0,5.21-2c6.11-2.34,13.14-4.06,19.38-1.38,1.58-1.07,3.11-2.22,4.57-3.43a9.31,9.31,0,0,1,3.34-2.91,1.11,1.11,0,0,1,.56-.13l14.44-12.91,4-3.6c1.19-1.07,2.3-1.69,3.92-1.22a27.34,27.34,0,0,1,8.09,4.15,48.12,48.12,0,0,1,6.89,6.1,39,39,0,0,1,5.85,7.23,11.94,11.94,0,0,1,1.65,4.74,1,1,0,0,1,.81.45C1351,618.38,1348.62,620.41,1347.2,621.82Z" transform="translate(-1199.53 -407.16)"/><path class="cls-2" d="M1294.64,618.87a19.19,19.19,0,0,0-14.1-.26c-2.08.76-4.06,1.75-6.17,2.45a31.24,31.24,0,0,1-6.68,1.45c-1.76.18-3.53.11-5.28.41-1.32.23-2.92.76-3.31,2.21s.75,3,1.92,3.82c1.68,1.15,4,1.11,5.92,1a21.42,21.42,0,0,1,7,.53,7.86,7.86,0,0,1,2.51,1.28,1.28,1.28,0,0,1-.38.23,14.18,14.18,0,0,0-1.92.93,8.22,8.22,0,0,0-3-.74c-.6-.06-1.19-.07-1.75-.07-2.6,0-5.2.34-7.72-.44-3.4-1.05-6.37-5.15-4.11-8.54,2.13-3.22,6.86-2.56,10.15-2.94a28.38,28.38,0,0,0,7.26-1.79,68.81,68.81,0,0,1,6.92-2.63,21.32,21.32,0,0,1,13.56.95A1.13,1.13,0,0,1,1294.64,618.87Z" transform="translate(-1199.53 -407.16)"/><path class="cls-2" d="M1276.44,631.81a1.28,1.28,0,0,1-.38.23,14.18,14.18,0,0,0-1.92.93c-2.94,1.67-5.3,4.22-8.05,6.2-3.27,2.37-7.4,4.05-11.42,2.67-1.37-.48-.54-2.57.82-2.1,3.76,1.3,7.6-1,10.44-3.27,1.74-1.4,3.4-2.94,5.22-4.24a19.13,19.13,0,0,1,2.78-1.7,12,12,0,0,1,1.26-.55A1.14,1.14,0,0,1,1276.44,631.81Z" transform="translate(-1199.53 -407.16)"/><path class="cls-2" d="M1273.17,644.55a56,56,0,0,1-6.51,5.07,21.92,21.92,0,0,1-7.17,3.57,6.34,6.34,0,0,1-6.49-2.31c-1.65-1.92-3.24-4.42-2.69-7,.29-1.42-2-1.67-2.24-.26-.63,3,1,5.93,2.77,8.21s4.34,4,7.44,3.82,5.92-1.79,8.49-3.39a56.38,56.38,0,0,0,7.78-5.89C1275.62,645.36,1274.24,643.58,1273.17,644.55Z" transform="translate(-1199.53 -407.16)"/><path class="cls-2" d="M1281,649.22c-2.62,2.59-5.45,5.23-8.94,6.57a12.22,12.22,0,0,1-11.11-1.46c-1.22-.78-2.57,1-1.35,1.8a14.73,14.73,0,0,0,12.5,2c4-1.27,7.32-4.24,10.27-7.16C1283.39,650,1282,648.21,1281,649.22Z" transform="translate(-1199.53 -407.16)"/><path class="cls-2" d="M1286.61,652.9a10.19,10.19,0,0,1-14.65,4.39c-1.22-.77-2.58,1-1.35,1.8a12.31,12.31,0,0,0,18.09-5.37C1289.3,652.4,1287.2,651.58,1286.61,652.9Z" transform="translate(-1199.53 -407.16)"/><path class="cls-2" d="M1347.06,624.56q-9.09,5.7-18.26,11.26-6.6,4-13.27,8a143.93,143.93,0,0,0-12.52,8.12c-2,1.47-3.8,3.06-5.61,4.71a34.64,34.64,0,0,1-5.51,4.38c-3.61,2.15-8.34,3-12,.39-1.19-.84.17-2.64,1.35-1.8,4.26,3,9.48-.15,12.82-3,2-1.71,3.86-3.55,5.92-5.19s4.34-3.25,6.61-4.72c4.16-2.71,8.46-5.19,12.71-7.74q6.69-4,13.34-8.09t13-8.08Z" transform="translate(-1199.53 -407.16)"/><path class="cls-2" d="M1324.81,594.21c-16.23,13.37-29.47,24.24-29.79,24.5l-1.44-1.73c.33-.27,13.62-11.17,29.89-24.58C1323.92,593,1324.37,593.6,1324.81,594.21Z" transform="translate(-1199.53 -407.16)"/><path class="cls-4" d="M1436,554.77c-4,16.2-23.33,26.69-24.14,27.14q-14.61,10-29.33,19.78-16.65,11-33.58,21.68l-1.91,1.19-1.32-1.81q-10.44-14.29-20.93-28.54c-.44-.61-.89-1.21-1.34-1.81q.87-.71,1.74-1.44c23.84-19.63,53.2-43.9,57.83-48.1,12.87-11.67,24.5-16.25,34.56-13.61C1429.16,532.3,1439.2,542,1436,554.77Z" transform="translate(-1199.53 -407.16)"/><path class="cls-2" d="M1450.14,484.8a2.19,2.19,0,0,0-1.55-.15l-1.6.43a5.8,5.8,0,0,0-.16-2.71,1.12,1.12,0,0,0-1.93-.23,7.83,7.83,0,0,0-1.43,5.11l-1,.33a1.13,1.13,0,0,0-.6,1.47,1.15,1.15,0,0,0,1.47.6l3.8-1.23,1.83-.6c.69-.23,1.52-.36,1.9-1.05A1.41,1.41,0,0,0,1450.14,484.8Z" transform="translate(-1199.53 -407.16)"/><path class="cls-2" d="M1482.6,581.26a42.62,42.62,0,0,0-4.83-4.07,5.3,5.3,0,0,1-2-5.36c.42-2.21,1.6-4.24,2.49-6.28a18.36,18.36,0,0,0,1.56-5.63,19.48,19.48,0,0,0-2-10.71,18.28,18.28,0,0,0-7.63-7.89c-3.68-2-7.85-2.71-11.67-4.35a13.93,13.93,0,0,1-5.43-3.87,14.39,14.39,0,0,1-2.72-5.58c-1.13-4.39-.87-9-.5-13.49.11-1.44-2.12-1.7-2.24-.25-.6,7.31-1,16.19,4.68,21.79s15.09,4.73,20.66,10.61a17.46,17.46,0,0,1,4.56,9.45,16.82,16.82,0,0,1-.08,5.3,23.34,23.34,0,0,1-2,5.54c-1.72,3.74-3.27,8.15,0,11.56,1.38,1.45,3.16,2.4,4.61,3.76a12.82,12.82,0,0,1,3.35,5.16,9.93,9.93,0,0,1-3.58,11.47c-2.21,1.5-4.91,1.5-7.48,1.41-3-.11-5.93-.24-8.9-.36-1.44-.05-1.71,2.18-.25,2.24l8.17.32a20.09,20.09,0,0,0,7.45-.61,11.6,11.6,0,0,0,7.18-8.56A13.71,13.71,0,0,0,1482.6,581.26Z" transform="translate(-1199.53 -407.16)"/><path class="cls-3" d="M1308.27,507.18a2.26,2.26,0,0,0-.52-.55,2.41,2.41,0,0,0-.66-.38,2.29,2.29,0,0,0-.72-.17,2.55,2.55,0,0,0-1,.12.85.85,0,0,0-.22.09,2.47,2.47,0,0,0-.44.27,2.5,2.5,0,0,0-.62.79,2.14,2.14,0,0,0-.23.77,2.26,2.26,0,0,0,0,.52,2.46,2.46,0,0,0,0,.28,2.43,2.43,0,0,0,1,1.55l.3.15a2,2,0,0,0,.5.2,2.08,2.08,0,0,0,.93,0,2.66,2.66,0,0,0,1-.4,2.45,2.45,0,0,0,1-1.28,2.54,2.54,0,0,0,.1-1.06A2.41,2.41,0,0,0,1308.27,507.18Z" transform="translate(-1199.53 -407.16)"/><path class="cls-3" d="M1315.65,504.06a2.27,2.27,0,0,0-.51-.56,2.57,2.57,0,0,0-.66-.38,2.6,2.6,0,0,0-.72-.17,2.81,2.81,0,0,0-1,.12l-.22.09a3.12,3.12,0,0,0-.43.27,2.4,2.4,0,0,0-.62.8,2.25,2.25,0,0,0-.24.76,4.69,4.69,0,0,0,0,.53,1.41,1.41,0,0,0,0,.28,2.41,2.41,0,0,0,1,1.55,1,1,0,0,0,.3.14,1.63,1.63,0,0,0,.49.2,2,2,0,0,0,.94,0,2.64,2.64,0,0,0,1-.41,2.43,2.43,0,0,0,1-1.28,2.48,2.48,0,0,0,.1-1.05A2.36,2.36,0,0,0,1315.65,504.06Z" transform="translate(-1199.53 -407.16)"/><path class="cls-3" d="M1324.26,502.14a2.38,2.38,0,0,0-.37-.92,2.27,2.27,0,0,0-.51-.56,2.67,2.67,0,0,0-1.39-.55,2.75,2.75,0,0,0-1,.12,2,2,0,0,0-.22.09,2.89,2.89,0,0,0-.44.27,2.69,2.69,0,0,0-.62.8,2.48,2.48,0,0,0-.23.76,4.69,4.69,0,0,0,0,.53,1.24,1.24,0,0,0,0,.27,2.41,2.41,0,0,0,1,1.56,1.55,1.55,0,0,0,.29.14,1.81,1.81,0,0,0,.5.2,2.09,2.09,0,0,0,.93,0,2.79,2.79,0,0,0,1-.41,2.47,2.47,0,0,0,1.09-2.34Z" transform="translate(-1199.53 -407.16)"/><path class="cls-4" d="M1279.68,537.6q-7.46,2.92-15,5.47c-1.37.46-.49,2.53.88,2.07q7.59-2.53,15-5.46C1281.91,539.15,1281,537.08,1279.68,537.6Z" transform="translate(-1199.53 -407.16)"/><path class="cls-4" d="M1325.81,517.36a280.28,280.28,0,0,1-35.67,15.83c-1.37.5-.49,2.57.87,2.08a279.66,279.66,0,0,0,35.67-15.83C1328,518.76,1327.09,516.69,1325.81,517.36Z" transform="translate(-1199.53 -407.16)"/><path class="cls-4" d="M1329.7,530q-23.49,9.49-47.33,18.14-6.73,2.45-13.49,4.81c-1.37.48-.49,2.55.87,2.07q23.93-8.38,47.52-17.64,6.66-2.62,13.31-5.3A1.13,1.13,0,0,0,1329.7,530Z" transform="translate(-1199.53 -407.16)"/><path class="cls-4" d="M1304.63,552.48q-14.85,5.65-29.51,11.78a1.13,1.13,0,0,0,.88,2.07q14.65-6.14,29.51-11.78C1306.86,554,1306,552,1304.63,552.48Z" transform="translate(-1199.53 -407.16)"/><path class="cls-4" d="M1333.93,540.41a196.28,196.28,0,0,1-21.06,8.43c-1.37.46-.49,2.53.88,2.07a197,197,0,0,0,21-8.43C1336.11,541.86,1335.24,539.79,1333.93,540.41Z" transform="translate(-1199.53 -407.16)"/><path class="cls-4" d="M1338.4,549.92a496.78,496.78,0,0,1-45.66,20.22q-6.6,2.54-13.28,4.88c-1.37.48-.48,2.55.88,2.07a494.43,494.43,0,0,0,46.22-18.91q6.4-3,12.71-6.19C1340.56,551.34,1339.69,549.26,1338.4,549.92Z" transform="translate(-1199.53 -407.16)"/><path class="cls-3" d="M1420,572.31c-2.78.68-5.13,2.31-7.47,3.89s-4.82,3.36-7.18,5.12c-4.66,3.5-9.18,7.17-13.73,10.83s-9.19,7.34-14,10.77-9.79,6.5-14.87,9.48a155,155,0,0,0-16.67,10.73,1.13,1.13,0,0,0,1.38,1.78c9.15-7.07,19.69-12,29.18-18.55s18.31-14.24,27.5-21.31c2.55-2,5.14-3.89,7.78-5.73s5.29-4,8.37-4.79C1421.7,574.19,1421.39,572,1420,572.31Z" transform="translate(-1199.53 -407.16)"/><path class="cls-3" d="M1408.87,527.79c-6.29.4-11.76,3.91-16.64,7.64-5.61,4.3-11.08,8.81-16.59,13.25q-17,13.68-33.71,27.68-9.47,7.9-18.84,15.91c-1.1.93.27,2.71,1.37,1.77q16.39-14,33-27.66T1391,539.29c5.35-4.25,11.14-8.82,18.23-9.28C1410.64,529.92,1410.31,527.7,1408.87,527.79Z" transform="translate(-1199.53 -407.16)"/><path class="cls-3" d="M1358.08,493a282.83,282.83,0,0,1-12,33c-.58,1.32,1.52,2.15,2.09.82a281,281,0,0,0,12-33C1360.58,492.43,1358.49,491.59,1358.08,493Z" transform="translate(-1199.53 -407.16)"/></svg>