<svg id="Layer_1" data-name="Layer 1" xmlns="http://www.w3.org/2000/svg" viewBox="0 0 340 209.56"><defs><style>.cls-1{fill:#ededed;}.cls-2{fill:#383838;}.cls-3{fill:#fff;}.cls-4{fill:#ccc;}.cls-5{fill:#abaeb2;}</style></defs><title>img_11</title><path class="cls-1" d="M1335.66,504.11c.66,5.79,3.44,12,9.77,14.79,7.65,3.4,17.24.62,24.72-3,11.83-5.76,21.92-13.51,32.16-21a373.74,373.74,0,0,1,43.15-27.69c14.55-7.82,31.74-13.25,49.5-12.37,8.11.41,16.32,2.19,22.75,6.18,11.64,7.22,15.3,20.11,15.08,31.91-.29,15.42-6.53,28.57-13,42.69a462.27,462.27,0,0,1-23.22,43.95c-12.43,20.76-28.09,42-53.76,52.3-8,3.22-18,5.15-25.83,1.6-7.62-3.44-10.82-11-11.49-18s.5-14.14-1.28-21a8,8,0,0,0-2.8-4.75c-4-2.9-10.32-.58-14.53,2.11-10.63,6.78-19.15,15.43-28.72,23.18s-20.74,14.83-34,17.21-28.9-1.1-35.8-10.49c-6.67-9.09-3.76-20.71-7.42-30.83a11,11,0,0,0-3.61-5.34c-3.84-2.84-9.9-2.34-14.87-1-15.92,4.14-29.11,14.38-45.67,16.24-6.73.76-14.22-.17-19-4.06a14.24,14.24,0,0,1-4.79-13.46c1.21-7.77,6.86-14.27,11.61-20.89,5.2-7.25,10.44-14.48,15.81-21.65,10.73-14.32,22-28.41,34.31-41.88,9.19-10,19.07-19.75,30.94-27.75,5.84-3.93,12.26-7.47,19.55-9.26,9.91-2.43,20.27-1.12,25.86,6.45C1339.28,479.35,1334.28,492,1335.66,504.11Z" transform="translate(-1192.8 -444.09)"/><path class="cls-2" d="M1475.87,534.93a6.41,6.41,0,0,0-3-.59l-.85-.05a14.43,14.43,0,0,0,6.41-4.17,8.89,8.89,0,0,0,1.23-9.39,12.2,12.2,0,0,0-8.23-6.54,37.69,37.69,0,0,0-5.7-.75c-1.78-.18-3.65-.61-4.73-2.17s0-3,.93-4.33a9.64,9.64,0,0,0,1.78-4.73,11.36,11.36,0,0,0-3.66-9.27,15,15,0,0,0-9.6-3.79c-3.72-.14-7.35.76-10.94,1.56-3.86.87-8.06,1.8-11.94.53a11.12,11.12,0,0,1-7.34-8c-.29-1.23-2.25-1-2,.29a13.21,13.21,0,0,0,5.35,7.92,15,15,0,0,0,9.72,2.28c6.94-.49,14.12-4.29,21.07-1.88a10.64,10.64,0,0,1,7,6.77,8.67,8.67,0,0,1,.08,4.79c-.48,1.67-1.69,2.81-2.47,4.32-1.69,3.26,1.16,6.41,4.23,7.25a44.62,44.62,0,0,0,5.76.7,13.69,13.69,0,0,1,5,1.65c3.27,1.92,5.57,5.95,4,9.7-1.35,3.22-4.94,5-8.15,5.84a1,1,0,0,0-.84.87c-.23,2.45,2.65,2.49,4.37,2.55a4.54,4.54,0,0,1,4.08,4.45c.11,2.56-1.73,4.82-3.73,6.19-2.46,1.68-5.5,2.29-8.36,2.9-1.24.27-1,2.23.28,2,4.53-1,9.55-2.17,12.29-6.28a7.91,7.91,0,0,0,1.35-5.94A6.88,6.88,0,0,0,1475.87,534.93Z" transform="translate(-1192.8 -444.09)"/><path class="cls-2" d="M1470.54,533.93a11.86,11.86,0,0,1,3.51,6.13,11.14,11.14,0,0,1-5.74,12.29,11.38,11.38,0,0,1-6.4,1.33.83.83,0,0,1-.68.13c-1.5-.28-3-.57-4.51-.79-6.22-.89-12.39.47-18.63.55A105.18,105.18,0,0,1,1420,552c-12.1-2-23.9-5.35-36-7.53-5.9-1.07-12.08-1.48-17.71-3.69-4.45-1.76-8.91-4.92-10.72-9.51a10.32,10.32,0,0,1-.43-6.6,6.88,6.88,0,0,1,1.62-2.82c.34-.34,1.11-.74,1-1.26a6.1,6.1,0,0,0-1-1.56,9.49,9.49,0,0,1-1.19-6.69,10.19,10.19,0,0,1,3.61-5.84,8.84,8.84,0,0,0,2.35-2.53c.65-1.28.28-2.76,0-4.09a21.3,21.3,0,0,1-.37-7.59,20.94,20.94,0,0,1,6.83-12.77,1,1,0,0,1,.58-.25c.92-.71,1.85-1.4,2.8-2a48.29,48.29,0,0,1,29.81-8.25,30.93,30.93,0,0,1,13.1,3.7,19.92,19.92,0,0,1,8.78,10.15c1,2.35,1.71,4.85,3.25,6.9a11.21,11.21,0,0,0,5.57,3.78c4.82,1.59,10,.9,14.94,1.2,4.63.28,11,1.69,12.82,6.65.91,2.5-.06,5-.21,7.48s1.56,3.93,3.77,4.82a42.13,42.13,0,0,1,6.71,2.94,12.1,12.1,0,0,1,5,5.56,8.37,8.37,0,0,1-.08,7C1473.84,531.12,1472.08,532.42,1470.54,533.93Z" transform="translate(-1192.8 -444.09)"/><path class="cls-3" d="M1445.87,524.53a110,110,0,0,1-10.49,19.06,54.36,54.36,0,0,1-8.24,9.17c-.54.46-1.08.92-1.64,1.36-.8.63-1.62,1.24-2.47,1.82a36.37,36.37,0,0,1-6.81,3.66,37.42,37.42,0,0,1-8.56,2.35,32.68,32.68,0,0,1-10.26,1.39,22,22,0,0,1-10.51-3,10.18,10.18,0,0,1-1.21-.42,14.54,14.54,0,0,1-7.84-8.4c-2.35-6.36-.33-12.88,3.49-18.13a29.81,29.81,0,0,1,2.81-3.33,33.52,33.52,0,0,1,2.58-2.36,45.11,45.11,0,0,1,12-7.09c4.33-1.69,9.08-2.42,13.55-.88a1.11,1.11,0,0,1,.45.32q2.26.31,4.56.54c4.09.43,8.21.66,12.33.71h2.64a44.64,44.64,0,0,1,8.51.43c.53.1,1.06.21,1.59.36a15.1,15.1,0,0,1,3,1.15A1,1,0,0,1,1445.87,524.53Z" transform="translate(-1192.8 -444.09)"/><path class="cls-3" d="M1365.7,598.86a57.32,57.32,0,0,1-8.79-.14,54.24,54.24,0,0,1-15.11-3.63,5.84,5.84,0,0,1-2.68-2,28,28,0,0,1-1.84-3.25L1335.2,586c-.62-1.13-1.23-2.26-1.84-3.39a11.07,11.07,0,0,0,7.3,2.43,11.25,11.25,0,0,0,7.2-3.09,27,27,0,0,0,7.47-12.48c.47.73.93,1.48,1.37,2.24a60.12,60.12,0,0,1,5.85,13.53,1,1,0,0,1-.49,1.24c1.94,3.58,4,7.12,4.49,11.25A1,1,0,0,1,1365.7,598.86Z" transform="translate(-1192.8 -444.09)"/><path class="cls-3" d="M1378.57,589.6c-.89,3.89-2.64,7.61-6.1,9.85a13.25,13.25,0,0,1-10.27,1.85c-7.92-1.92-11.83-10.12-12.72-17.51a99.3,99.3,0,0,1-.24-13.8c0-3,.1-6,.16-9a1.2,1.2,0,0,1-.1-.35c0-.62-.07-1.23-.07-1.85a44.57,44.57,0,0,1,1-10.24,29.12,29.12,0,0,1,.82-3.28,1.47,1.47,0,0,1,.1-.22,19.31,19.31,0,0,1,3.37-6.94,21.41,21.41,0,0,1,6-5.08,48.64,48.64,0,0,1,14.3-6,4.83,4.83,0,0,1,2.16,1,1,1,0,0,1,.47.91c-.28,5.47-.56,11-.56,16.45a133.13,133.13,0,0,0,1.07,16.33C1379.08,570.84,1380.69,580.39,1378.57,589.6Z" transform="translate(-1192.8 -444.09)"/><path class="cls-2" d="M1325.3,642.15a14.27,14.27,0,0,1-.75-2.92c-.31-1.81-.78-4.54-3.79-13.63-.92-2.75-2-6.41-3.23-10.29-2.74-8.91-6.14-20-9.26-27.51-2.88-6.95-10.39-11-10.47-11-3.45-1.83-25.6-11.59-45.34-19.7-.15-.06-12-4.55-18-6.44-3.47-1.1-5.59,0-6.75,1-1.91,1.78-2.61,5-1.83,8.3.19.78.45,1.9.76,3.28,1.67,7.34,5.15,22.61,8.71,33.58.6,1.85,1.12,3.49,1.57,4.95,2.72,8.68,3.54,11.3,9.13,13.87,8.66,4,65,28.39,70.1,30.12a18.36,18.36,0,0,0,5.46,1.07,4.52,4.52,0,0,0,3.27-1.06C1325.43,645.17,1326,644.06,1325.3,642.15Z" transform="translate(-1192.8 -444.09)"/><path class="cls-2" d="M1383.09,611.34c-3-1.22-9.41-4.07-16.87-7.37-25.18-11.15-46.32-20.39-50-20.62-2.32-.14-8.05,3.25-9.18,3.93l.51.84-61.06,26.29-.69-.7a3.93,3.93,0,0,0-1.1,3.53c.22,1.28,1.23,3.74,5.53,5.76,2.39,1.13,15.35,6.62,29.07,12.43,16.39,7,35,14.81,38.57,16.54a16.9,16.9,0,0,0,7.49,1.68c5.09,0,11.23-2,19.59-6.11,7.27-3.59,21.12-10.94,32.25-16.85,6.86-3.65,12.78-6.79,14.69-7.73.72-.36,2.94-1.46,2.87-3.47C1394.62,617.05,1391.25,614.69,1383.09,611.34Z" transform="translate(-1192.8 -444.09)"/><path class="cls-4" d="M1338.31,598c2.8,1,14.16,5.49,15.9,6.46,2.79,1.58,7,2.8,2.79,5.59-3.09,2.06-11.7,5.59-14.85,4.2s-21.31-10-20.26-11S1335.52,596.93,1338.31,598Z" transform="translate(-1192.8 -444.09)"/><path class="cls-4" d="M1313.16,605c1.74.7,33.22,15,35.28,16.07,4,2.09,8.21,5.41,5.24,7.34-1.67,1.08-23.41,12.92-25.15,13.45a7.66,7.66,0,0,1-3.67,0Z" transform="translate(-1192.8 -444.09)"/><path class="cls-4" d="M1367.83,610.56c2.27.17,12.41,5.24,12.58,6.11s-5.59,3.67-7.16,3.32-13.45-5.07-12.58-6.11S1365.56,610.38,1367.83,610.56Z" transform="translate(-1192.8 -444.09)"/><path class="cls-4" d="M1317.63,589.94c2,.15,11.09,4.36,11.24,5.08s-5,3.05-6.4,2.76-12-4.21-11.24-5.08S1315.6,589.8,1317.63,589.94Z" transform="translate(-1192.8 -444.09)"/><path class="cls-5" d="M1440.75,521.74l-.12.4c-.08.22-.15.45-.24.67a29.11,29.11,0,0,1-4.28,6.8.93.93,0,0,1-.15.86,34.38,34.38,0,0,0-3.17,4.14c-.16.29-.3.58-.46.86-.46,5.33-.84,10.68-1.14,16-.61,10.78-.92,21.57-1.08,32.36-.08,5.31-.08,10.61-.13,15.91,0,3.21-.53,7.07-3.39,8.93a9,9,0,0,1-3.59,2.17,35.51,35.51,0,0,1-5,1.65,40.31,40.31,0,0,1-11,1.08,55,55,0,0,1-10.17-1.33c-6.72-1.49-13.78-3.8-19.25-8.12a25.59,25.59,0,0,1-9.35-17.54,33.12,33.12,0,0,1,.83-11.22,41.8,41.8,0,0,1,1.72-5.47c.35-.88.75-1.73,1.11-2.59a3.28,3.28,0,0,0,0-2.52c-3.91-13.29-2.66-26.26,4.79-37.94.42-.66,2.5-.5,2.87,0a6.71,6.71,0,0,0,.89,0,4.17,4.17,0,0,1,1.73.12c.75.24,1.5-.64,2,0a3,3,0,0,1,.12,2.5l-.12.56c-.2.94-.39,1.88-.59,2.81-.37,1.77-.8,3.55-1.18,5.33,0,.75,0,1.51.08,2.27.19,3,.56,6,1,9,.38,2.76,1.06,5.27,3,7.35a15.61,15.61,0,0,0,2.52,2.13,14.22,14.22,0,0,0,2.37.29,35.12,35.12,0,0,0,9.85-1.51,25.5,25.5,0,0,0,7.31-3.09,29.36,29.36,0,0,0,2-2.92c.37-.6.74-1.21,1.1-1.82,3.72-6.35,6.64-13.17,10.52-19.45a24.18,24.18,0,0,1,7.59-8.18,19.1,19.1,0,0,1,1.84-1c.27,0,.47,0,.68,0A44.64,44.64,0,0,1,1440.75,521.74Z" transform="translate(-1192.8 -444.09)"/><path class="cls-3" d="M1402.88,499.41c-.13,5.36-3.94,9.72-8,12.82-3.23,2.47-6.9,4.45-10,7.14a.89.89,0,0,1-.28,1.16l-2.73,2a1,1,0,0,1-1.4-1.37,20.1,20.1,0,0,1,1.32-1.56,62.53,62.53,0,0,1-5.59-3.67,16.23,16.23,0,0,1-4.78-5.12,14.4,14.4,0,0,1-1.65-6.53c0-.35,0-.69,0-1a.8.8,0,0,1-.45-.7,17.1,17.1,0,0,1,4.44-12.85,1.08,1.08,0,0,1,.77-.33,31.22,31.22,0,0,1,5.66-7.73c3.59-3.45,8.21-4.9,12.92-6.08a.88.88,0,0,1,1.19-.27c1-.13,1.28,1.24.56,1.78-.19,3-.37,5.92-.56,8.88a.89.89,0,0,1-.21.56,21.3,21.3,0,0,0,.66,3,1.08,1.08,0,0,1,.35.58,18,18,0,0,0,2.63,5.72.84.84,0,0,1,.16.38,8.5,8.5,0,0,0,4.06,2.17A1,1,0,0,1,1402.88,499.41Z" transform="translate(-1192.8 -444.09)"/><path class="cls-2" d="M1396.29,474.06a27.37,27.37,0,0,0-12.49,3.21c-4.16,2.27-7.11,5.61-9.69,9.52s-5,8.15-6,12.82a15.35,15.35,0,0,0,2.59,12.25c2.72,3.69,6.78,6.19,10.85,8.16,1.15.55,1.86-1.29.72-1.85a28,28,0,0,1-9.17-6.49,13.35,13.35,0,0,1-3.17-11c.68-4.33,2.92-8.31,5.27-12s4.85-6.89,8.56-9.16a25.63,25.63,0,0,1,12.81-3.53C1397.85,476,1397.55,474,1396.29,474.06Z" transform="translate(-1192.8 -444.09)"/><path class="cls-2" d="M1392.42,489.39a.63.63,0,0,0-.13-.35.54.54,0,0,0-.16-.21.8.8,0,0,0-.32-.22,1.9,1.9,0,0,0-.4-.1,2.57,2.57,0,0,0-.39,0,.51.51,0,0,0-.17,0,1.86,1.86,0,0,0-.38.12,1.4,1.4,0,0,0-.17.09l-.17.11-.28.18a.44.44,0,0,0-.11.09,1.8,1.8,0,0,0-.26.29,1.7,1.7,0,0,0-.19.35c0,.1-.06.21-.08.31a1.5,1.5,0,0,0,0,.37,1.24,1.24,0,0,0,.09.37,1,1,0,0,0,.35.48.92.92,0,0,0,.48.19,2.26,2.26,0,0,0,.45,0,2.2,2.2,0,0,0,.44-.12,1,1,0,0,0,.21-.09,3.14,3.14,0,0,0,.39-.24,3.43,3.43,0,0,0,.33-.33,1,1,0,0,0,.13-.18,2.38,2.38,0,0,0,.23-.41,3.31,3.31,0,0,0,.12-.45Z" transform="translate(-1192.8 -444.09)"/><path class="cls-2" d="M1379,487.94c0-.07-.09-.14-.13-.22a1,1,0,0,0-.22-.2.85.85,0,0,0-.28-.35l-.23-.13-.25-.06a1.18,1.18,0,0,0-.72.2l-.13.11a2.44,2.44,0,0,0-.6.79,2.88,2.88,0,0,0-.13.31,3.38,3.38,0,0,0-.12.57,1,1,0,0,0,.07.49.82.82,0,0,0,.23.32.8.8,0,0,0,.32.22,1.11,1.11,0,0,0,.51.06.9.9,0,0,0,.16,0,2.85,2.85,0,0,0,.39-.11,3,3,0,0,0,.35-.19l.13-.1a2.57,2.57,0,0,0,.29-.28l.11-.13a2.11,2.11,0,0,0,.26-.52.82.82,0,0,0,.06-.38A.81.81,0,0,0,1379,487.94Z" transform="translate(-1192.8 -444.09)"/><path class="cls-2" d="M1383.84,486.38a1,1,0,0,0-1.39-.18,50.77,50.77,0,0,0-5.24,5.63,1,1,0,0,0,.2,1.38,1,1,0,0,0,1.38-.2c.76-.95,1.56-1.88,2.39-2.78.21-.22.41-.44.62-.65l.14-.15c.17-.17.28-.27.38-.38.44-.44.89-.86,1.35-1.28A1,1,0,0,0,1383.84,486.38Z" transform="translate(-1192.8 -444.09)"/><path class="cls-2" d="M1383.67,495.19a1,1,0,0,0-1.39-.18,6.78,6.78,0,0,1-7.83-.34c-1-.78-2.19.8-1.19,1.59a8.82,8.82,0,0,0,10.23.32A1,1,0,0,0,1383.67,495.19Z" transform="translate(-1192.8 -444.09)"/><path class="cls-5" d="M1476.64,611.12c0,2.1-.37,4-2.34,5.13A19.78,19.78,0,0,1,1468,618a136.48,136.48,0,0,1-14.28,1.29c-9.19.56-18.54.86-27.61-1a55.39,55.39,0,0,1-6.59-1.82c-2-.69-3.85-1.48-4.91-3.42a32.32,32.32,0,0,1-2.3-6.42c-.66-2.27-1.22-4.57-1.66-6.89a1,1,0,0,1,1.08-1.13A44.63,44.63,0,0,0,1442,592.9c4.22-2.52,8.49-5.79,11-10.06a30.23,30.23,0,0,0,2.89-8c.77-2.82,1.52-5.65,2.17-8.51A62.65,62.65,0,0,0,1460,549a1,1,0,0,1,1.57-.94,6,6,0,0,1,2.26,5.14q4.56,14.36,8.26,29C1474.46,591.61,1476.82,601.27,1476.64,611.12Z" transform="translate(-1192.8 -444.09)"/><path class="cls-3" d="M1465.08,564.53c-.12,3.07-.26,6.18-.29,9.33a214.63,214.63,0,0,1-2.5,29.23c-1,7.11-1.83,14.59-7,20.25-2.58,2.83-1.91,3.89-5.4,5.36a38.5,38.5,0,0,1-11.85,3.19,31,31,0,0,1-31.06-18.3c-.38-.83-.72-1.68-1-2.54a87.94,87.94,0,0,1-8-15,1,1,0,0,1-.94-.57,39.31,39.31,0,0,1-3-9.77c-.23-.59-.47-1.18-.71-1.77-1.31-3.21-2.72-6.4-3.87-9.68a94.93,94.93,0,0,1-2.85-10.52l-.87-3.83c-.21-.92-.42-1.84-.62-2.75q-1.72-7.61-3.44-15.2l-.12-.52a.84.84,0,0,1,.37-.89,1.16,1.16,0,0,1,.63-.21c-.09-.51-.19-1-.28-1.51q-.48-2.72-.89-5.45c-.33-2.17-.62-4.36-.88-6.55-.08-.73-.16-1.47-.23-2.2a.92.92,0,0,1,.32-.83c-.14-2.08,2.37-3.8,3.91-4.81l7.35-4.79a45.68,45.68,0,0,0,6.75-4.69c3.26-3.13,2.79-8.35,5.86-11.64a1,1,0,0,1,1.15-.33,6.29,6.29,0,0,1,1.5,1.05c0-.2.11-.39.18-.59a1,1,0,0,1,1-.62,7.39,7.39,0,0,1,3,1.08.91.91,0,0,1,.9.13,9.34,9.34,0,0,1,1.9,1.92,3,3,0,0,1,3.41.72,6.18,6.18,0,0,1,1.35,3.38,8,8,0,0,1,.13,2,9.26,9.26,0,0,1-.08,1.28,2.57,2.57,0,0,1,.4.06,1,1,0,0,1,.75-1.34c2.55-.08,4,2.5,3.4,4.79a10.08,10.08,0,0,1-1.58,3.18c-.7,1-1.4,2.08-2.15,3.09a30.89,30.89,0,0,1-2.4,3,19.19,19.19,0,0,1-2.49,2.28,35.82,35.82,0,0,1-3.13,2.05,1.09,1.09,0,0,1-.35,1q-2.55,2.57-5.19,5a13,13,0,0,0-.57,2.18,13.3,13.3,0,0,0-.16,2.66c1.69,2.59,2.26,5.91,3.28,8.78.18.49.37,1,.55,1.46.76,1.08,1.47,2.2,2.12,3.35l.28.5c1.31,2.4,2.94,5.87,4.61,9.67,2.15,4.89,4.38,10.35,6.1,14.81.85,2.2,1.57,4.16,2.1,5.69.38-6.14,1.67-19.94,2.72-27.34.09-.7.19-1.34.28-1.9.35-2.15.75-4.61,1.27-7.17,1.57-7.69,4.27-16.27,10.23-20.08a11.82,11.82,0,0,1,1.47-.8,9.58,9.58,0,0,1,1.21-.49l.74-.22a15.44,15.44,0,0,1,3,1.15,28.28,28.28,0,0,1,7.07,3.27c5.25,3.4,9.86,8.5,11.86,14.63C1466.62,548.51,1465.37,557,1465.08,564.53Z" transform="translate(-1192.8 -444.09)"/><path class="cls-2" d="M1408.16,497.82a3.62,3.62,0,0,0-5.23.93c-1.25,1.7-1.68,3.89-2.65,5.75a24.49,24.49,0,0,1-9.58,9.52c-4.25,2.43-11.78,3.92-11.38,10.24.08,1.27,2,1,2-.28-.14-2.2,1.66-3.92,3.42-4.92,1.92-1.08,4-1.76,6-2.79a28.45,28.45,0,0,0,9.36-7.77,22.54,22.54,0,0,0,3-5.21c.51-1.3,1-3.57,2.43-4.16a1.65,1.65,0,0,1,1.9.65,4,4,0,0,1,.45,3.36,18.71,18.71,0,0,1-2.28,5.6,21.93,21.93,0,0,1-9.69,8.74c-1.16.53-.39,2.35.77,1.82a23.79,23.79,0,0,0,10.12-8.75,22.74,22.74,0,0,0,2.77-6.08C1410.13,502.16,1410.23,499.45,1408.16,497.82Z" transform="translate(-1192.8 -444.09)"/><path class="cls-2" d="M1413.15,497.89a4.9,4.9,0,0,0-5.77-.25c-1,.74.18,2.3,1.21,1.56,1.49-1.06,3.63,0,4.44,1.43,1.2,2.17.39,4.92-.56,7-2,4.43-5.74,7.81-9.27,11-.94.85.27,2.42,1.21,1.56,3.39-3.09,6.84-6.28,9.11-10.32C1415.49,506.39,1417.1,500.75,1413.15,497.89Z" transform="translate(-1192.8 -444.09)"/><path class="cls-2" d="M1420.54,502.82a6,6,0,0,0-5.75-4c-1.27,0-1,2,.28,2,2-.08,3.58,1.9,3.9,3.72.43,2.46-.75,4.93-2,6.95a27.58,27.58,0,0,1-10,9.37c-1.11.61-.35,2.43.77,1.82a29,29,0,0,0,11.8-11.7C1420.8,508.47,1421.59,505.49,1420.54,502.82Z" transform="translate(-1192.8 -444.09)"/><path class="cls-2" d="M1419.74,506a1,1,0,0,0,.28,2,2.28,2.28,0,0,1,2.25,1.73,5.08,5.08,0,0,1-.06,3.31,17.05,17.05,0,0,1-4.34,6.19,54.43,54.43,0,0,1-5.74,5,44.11,44.11,0,0,0-5,4.2,12.4,12.4,0,0,0-3.44,6.17c-.25,1.24,1.71,1.46,2,.22,1-4.71,5.74-7.47,9.2-10.25a46.13,46.13,0,0,0,6.25-6c1.67-2,3.26-4.42,3.33-7.07S1422.81,505.57,1419.74,506Z" transform="translate(-1192.8 -444.09)"/><path class="cls-2" d="M1429.33,589.6q-9.54-21.32-18.47-42.91-2.53-6.15-5-12.31a1,1,0,0,0-1.82.77q8.74,21.66,18.11,43.06,2.67,6.09,5.39,12.16A1,1,0,0,0,1429.33,589.6Z" transform="translate(-1192.8 -444.09)"/><path class="cls-3" d="M1355.69,569.74a26.8,26.8,0,0,1-7.36,12.37,11,11,0,0,1-7.09,3.06,10.78,10.78,0,0,1-7.19-2.41.82.82,0,0,1-.11-.46,18,18,0,0,1-4.27-5.08,20.28,20.28,0,0,0-3,5.74,18.87,18.87,0,0,0-.76,3.39,27.1,27.1,0,0,1-.45,3.22,5.19,5.19,0,0,1-1,2,1,1,0,0,1,0,.17,4,4,0,0,1-.23.82c-.86,1.74-3.29,1.21-4.44.1a3.91,3.91,0,0,1-1.11-4.15.91.91,0,0,1,.2-.33,37.71,37.71,0,0,1,.81-7.78,1.06,1.06,0,0,1,1.19-.83,44.26,44.26,0,0,1,.95-4.69,10,10,0,0,1-6.32-1.7.85.85,0,0,1-.41-.76,12.82,12.82,0,0,1-1.2-.77,5.31,5.31,0,0,1-2.81-3.07,1,1,0,0,1,.05-.73,11.56,11.56,0,0,1,.21-8.46c1.74-4.17,5.73-6.92,9.8-8.52a26.39,26.39,0,0,1,7.32-1.83,15.84,15.84,0,0,1,7.66,1.44,38.42,38.42,0,0,1,19.17,18.65.9.9,0,0,1,.08.21C1355.5,569.44,1355.6,569.59,1355.69,569.74Z" transform="translate(-1192.8 -444.09)"/><path class="cls-2" d="M1340.15,567.9a22.08,22.08,0,0,0-13.81,15.82c-.56,2.54-.23,5.75-1.9,7.91a3.54,3.54,0,0,1-2.82,1.53,2.35,2.35,0,0,1-2-1.72c-.81-2.24-.13-5,.24-7.26.93-5.71,2.56-11.49,5.87-16.3s8.07-8.46,13.81-9.36a1,1,0,0,0-.28-2,22.68,22.68,0,0,0-13.83,8.41c-3.91,4.8-6,10.82-7.15,16.82-.54,2.74-1.2,5.73-.9,8.54.24,2.29,1.57,4.68,4.13,4.81,2.81.14,5-2.26,5.72-4.76.82-2.79.71-5.73,1.69-8.49a20.2,20.2,0,0,1,12-12.17C1342.12,569.29,1341.34,567.47,1340.15,567.9Z" transform="translate(-1192.8 -444.09)"/><path class="cls-2" d="M1342.93,569a1,1,0,0,0-1.39-.18,2.61,2.61,0,0,1-.31.27,2.1,2.1,0,0,1-.36.17,1.09,1.09,0,0,0-.17,0l-.22,0-.2,0a2.6,2.6,0,0,1-.4,0,2.92,2.92,0,0,1-.57-.22l.23.13a1.37,1.37,0,0,0-.57-.24,1.2,1.2,0,0,0-.56.08,1.27,1.27,0,0,0-.63.64,1.2,1.2,0,0,0,.39,1.44,1.07,1.07,0,0,0,1.13,0l.24.07a3.69,3.69,0,0,0,1.15,0,3.64,3.64,0,0,0,2.07-.93,1.1,1.1,0,0,0,.37-.67A1,1,0,0,0,1342.93,569Z" transform="translate(-1192.8 -444.09)"/><path class="cls-2" d="M1348.79,580.28c-2.53,2.35-6.39,4.8-10,4a12.42,12.42,0,0,1-4.62-2.38c-1.16-.85-3-1.88-3-3.5,0-1.27-2-1-2,.28,0,2,1.82,3.3,3.26,4.39a16.14,16.14,0,0,0,5.62,3.06c4.3,1.09,8.89-1.48,12-4.32C1350.93,581,1349.72,579.42,1348.79,580.28Z" transform="translate(-1192.8 -444.09)"/><path class="cls-2" d="M1329,555.34a16.51,16.51,0,0,0-9.23,7.89c-1.79,3.31-3.27,8.91-.19,11.89a1,1,0,0,0,1.38-.2,1,1,0,0,0-.2-1.38c-1.25-1.22-1-3.53-.74-5.09a14.07,14.07,0,0,1,1.82-4.88,14.53,14.53,0,0,1,7.93-6.4C1331,556.77,1330.24,555,1329,555.34Z" transform="translate(-1192.8 -444.09)"/><path class="cls-2" d="M1317.25,560.85a16.5,16.5,0,0,1,1.59-2.21,11,11,0,0,1,.88-.93c.18-.18.37-.36.57-.53l.2-.17c.76.23,1.73-.43,1.34-1.32-1.16-2.63-4.47,1.56-5.22,2.58a17.34,17.34,0,0,0-3.1,6.92c-.5,2.43-.58,5.28.64,7.52a5.47,5.47,0,0,0,6.35,2.83c1.23-.31,1-2.27-.28-2a3.48,3.48,0,0,1-2.81-.19,4.12,4.12,0,0,1-1.62-1.81,9.59,9.59,0,0,1-.41-5.66A15.05,15.05,0,0,1,1317.25,560.85Z" transform="translate(-1192.8 -444.09)"/><path class="cls-3" d="M1379.54,525.66a42.09,42.09,0,0,0-10.61,1.2A26,26,0,0,0,1360,532c-2.61,2.09-5.37,4.22-7.33,7a24.07,24.07,0,0,0-3.65,8.57,66.18,66.18,0,0,0-1.34,10.7c-.08,1.27,1.89,1.5,2,.22.39-5.85.79-12.21,4-17.33,1.71-2.77,4.22-4.79,6.7-6.83a28.68,28.68,0,0,1,8.13-5.16c3.63-1.31,7.58-1.38,11.39-1.47C1381.1,527.59,1380.8,525.63,1379.54,525.66Z" transform="translate(-1192.8 -444.09)"/><path class="cls-2" d="M1421.09,502.47a8.57,8.57,0,0,0-3-4,5.69,5.69,0,0,0-2.11-.92,4.91,4.91,0,0,0-1.15-.07c-.45,0-.93.21-1.32,0s-.5-.59-.74-.84a4.18,4.18,0,0,0-.83-.68,4.46,4.46,0,0,0-2.13-.65,4.67,4.67,0,0,0-3.19,1,3.51,3.51,0,0,0-4.46.92,14.89,14.89,0,0,1-5.76-8.65c-1.17-4.7-.37-9.61,1.2-14.11.42-1.2-1.42-1.93-1.85-.73-1.7,4.88-2.58,10.28-1.25,15.36A16.65,16.65,0,0,0,1402,499.5a1,1,0,0,0,1.58-.68,1.39,1.39,0,0,1,2.34-.52,1,1,0,0,0,1.57,0,2.65,2.65,0,0,1,2.8-.93c1.25.33,1.63,1.75,2.87,2.11a7.89,7.89,0,0,0,2.06,0,3.21,3.21,0,0,1,1.71.6,6.81,6.81,0,0,1,2.32,3.17C1419.73,504.43,1421.55,503.66,1421.09,502.47Z" transform="translate(-1192.8 -444.09)"/><path class="cls-2" d="M1463.92,597.09c-1.24,9.76-2.26,18.37-7.43,27-5.84,9.75-17,11.25-27.53,9.16a30.63,30.63,0,0,1-16.37-9.39c-4.31-4.6-7.51-10.15-10.35-15.74A220,220,0,0,1,1379.1,524c-.09-1.26,1.87-1.55,2-.27.12,1.74.26,3.5.43,5.25a216.49,216.49,0,0,0,8,41.67,209,209,0,0,0,15.72,38.85c2.85,5.36,6.17,10.67,10.66,14.81a28,28,0,0,0,17,7.43c6,.45,13.59,0,18.25-4.17,7.42-6.64,8.78-17.6,10.2-26.88a142.93,142.93,0,0,0,1.38-35,4.7,4.7,0,0,1,.25-2.5c.35-.83.42-1.34,1.26-1a1.47,1.47,0,0,1,.74.65,4.37,4.37,0,0,1,.39,2" transform="translate(-1192.8 -444.09)"/><path class="cls-5" d="M1279.68,444.4a126.45,126.45,0,0,0-20.85,24.32,62.3,62.3,0,0,0-32.54-1.29c-1.24.28-.73,2.2.51,1.91a60.3,60.3,0,0,1,32.19,1.5,1,1,0,0,0,1.11-.47,124.61,124.61,0,0,1,21-24.56C1282,445,1280.62,443.55,1279.68,444.4Z" transform="translate(-1192.8 -444.09)"/><path class="cls-5" d="M1295.59,482.37c-4.24,5.06-8.46,10.19-13,15a13.62,13.62,0,0,1-3.35,2.7,28.84,28.84,0,0,1-4.32,1.73l-9.55,3.28-4.77,1.63a38.43,38.43,0,0,1-4.4,1.46c-1.51.32-2.38-.52-3.26-1.64-1-1.33-2-2.68-3-4l-12.15-16.08c-4.07-5.39-8.69-10.86-10.32-17.58-.3-1.24-2.21-.72-1.91.52,1.5,6.21,5.45,11.34,9.23,16.34l12.74,16.86,3.26,4.32a9,9,0,0,0,2.88,2.92,5.29,5.29,0,0,0,4.13-.05c1.64-.54,3.26-1.11,4.88-1.67l10-3.44c3-1,6.41-1.87,9-3.81a25.2,25.2,0,0,0,3.65-3.58q1.94-2.17,3.85-4.37,3.93-4.51,7.78-9.11C1297.8,482.81,1296.41,481.4,1295.59,482.37Z" transform="translate(-1192.8 -444.09)"/><path class="cls-5" d="M1299.12,474.2,1289.89,457c-1.49-2.79-3-5.58-4.53-8.32-1-1.7-2.86-5.79-5.47-4.18-1.08.67-.1,2.39,1,1.72.75-.46,1.88,1.92,2.13,2.34q1.05,1.78,2,3.6c1.37,2.51,2.71,5,4.06,7.56q4.14,7.76,8.3,15.5C1298,476.31,1299.72,475.32,1299.12,474.2Z" transform="translate(-1192.8 -444.09)"/><path class="cls-5" d="M1277,452.71q-3.45,14-7.43,27.78c-.16.55-.38,2-1,2.33-.35.16-.75-.11-1.07-.24l-1.7-.74q-3.16-1.36-6.38-2.64c-4.26-1.69-8.58-3.25-12.93-4.68q-7.34-2.4-14.83-4.32a1,1,0,0,0-.5,1.92,231,231,0,0,1,27.62,8.94c2.21.88,4.42,1.79,6.6,2.74a9.05,9.05,0,0,0,2.86,1.05,2.57,2.57,0,0,0,2.31-1.35,10.82,10.82,0,0,0,1-2.82c.36-1.24.72-2.48,1.07-3.73q1-3.57,2-7.16,2.25-8.27,4.3-16.58A1,1,0,0,0,1277,452.71Z" transform="translate(-1192.8 -444.09)"/><path class="cls-5" d="M1329.37,517.61c-.2-1.28-.49-2.67-1.71-3.37a4.19,4.19,0,0,0-2.21-.41c-1,0-2,.07-2.92.1l-5.93.21-12,.42c-1.27.05-1.27,2,0,2l18.76-.66c.74,0,1.49-.07,2.23-.08s1.17,0,1.47.62a5.85,5.85,0,0,1,.4,1.7c.12.78.21,1.57.29,2.35a51.61,51.61,0,0,1,.15,8.79c-.1,1.45-.26,2.9-.49,4.34-.12.71-.24,1.42-.39,2.12a3.38,3.38,0,0,1-.67,1.8,2.78,2.78,0,0,1-1.48.54c-.77.14-1.55.23-2.32.32-1.52.18-3,.31-4.59.4a77.9,77.9,0,0,1-9,0c-1.48-.08-3-.21-4.43-.38-1.08-.13-2.75-.1-3.66-.81a2.33,2.33,0,0,1-.65-1.77c-.06-.86-.12-1.72-.17-2.57-.12-1.74-.23-3.48-.35-5.21-.23-3.53-.47-7.06-.7-10.58-.09-1.27-2.07-1.27-2,0l.69,10.42c.12,1.73.23,3.47.35,5.2a15.89,15.89,0,0,0,.53,4.62,3.8,3.8,0,0,0,2.89,2.23,36.85,36.85,0,0,0,4.8.62,78.17,78.17,0,0,0,10.15.28c1.69-.06,3.38-.18,5.07-.35a26,26,0,0,0,4.66-.67,3.74,3.74,0,0,0,2.64-2.8,34.26,34.26,0,0,0,.82-4.72,52.94,52.94,0,0,0,.32-9.83C1329.79,520.84,1329.61,519.22,1329.37,517.61Z" transform="translate(-1192.8 -444.09)"/><path class="cls-5" d="M1325.1,518.43c-1.77,1.83-3.55,3.65-5.33,5.48l-2.61,2.68c-.74.75-1.55,1.61-2.69,1.27a7.69,7.69,0,0,1-2.55-1.75l-2.87-2.42-6-5.05c-1-.82-2.38.56-1.41,1.39l6.73,5.68c1,.88,2.07,1.79,3.14,2.64a6.34,6.34,0,0,0,2.92,1.53c2.57.4,4.34-2.13,5.91-3.74l6.13-6.3C1327.38,518.92,1326,517.51,1325.1,518.43Z" transform="translate(-1192.8 -444.09)"/><path class="cls-2" d="M1416.25,467.56a7.32,7.32,0,0,0-3.41,1.36,10.37,10.37,0,0,0-.52-2.46,1,1,0,0,0-1.84,0,11.48,11.48,0,0,0-.57,5.6,1,1,0,0,0,1.12.84,1.08,1.08,0,0,0,.63-.38.83.83,0,0,0,.59-.16,1.11,1.11,0,0,0,1.32-.56l.44-.17a8.55,8.55,0,0,0,1.26-.69,7.43,7.43,0,0,0,1.91-1.84A1,1,0,0,0,1416.25,467.56Z" transform="translate(-1192.8 -444.09)"/><path class="cls-3" d="M1264.81,605.49c-7-1.39-5.18-14.53,2.08-13.32a6.76,6.76,0,0,1,5.3,8.55C1271.2,603.82,1268.13,606.16,1264.81,605.49Z" transform="translate(-1192.8 -444.09)"/><path class="cls-3" d="M1324.68,641.31c-1-.82-2.16.77-1.19,1.59a1.71,1.71,0,0,1,.21,2.05,2.76,2.76,0,0,1-2.26,1.57,8.82,8.82,0,0,1-3.93-.57c-1.39-.44-2.75-.94-4.1-1.46-5.64-2.17-11.13-4.72-16.66-7.14L1263,622.59l-19.13-8.36c-1.16-.51-1.89,1.33-.72,1.84L1279.61,632l18.22,8c5.88,2.57,11.72,5.34,17.8,7.42,2.62.9,6.21,2.07,8.61,0C1326,645.9,1326.63,643,1324.68,641.31Z" transform="translate(-1192.8 -444.09)"/><path class="cls-2" d="M1401.71,488.94a9.38,9.38,0,0,0-11-3.76c-1.2.45-.42,2.27.77,1.83a7.39,7.39,0,0,1,8.71,3.14,1,1,0,0,0,1.56-1.21Z" transform="translate(-1192.8 -444.09)"/><path class="cls-2" d="M1372.6,609.79a3.88,3.88,0,0,0,.13-.71c.08-1.82-1.69-4.71-2.31-6.43-3.35-9.29-6.25-18.89-10.37-27.88-3-6.67-6.85-13.13-12.16-18.24-5.07-4.89-11.75-8.35-18.9-8.56a19.62,19.62,0,0,0-16.89,8.11,16.13,16.13,0,0,0-3,9.81c.12,3.26,1.69,6.87,5,8,1.2.42,1.92-1.42.72-1.84-2.66-.94-3.69-4-3.73-6.59a14.06,14.06,0,0,1,2.45-7.93A17.61,17.61,0,0,1,1329,550c14.14.58,23.32,13.06,28.8,24.75a276,276,0,0,1,13.32,36C1371.72,612.49,1372.34,610.87,1372.6,609.79Z" transform="translate(-1192.8 -444.09)"/></svg>