<svg id="Layer_1" data-name="Layer 1" xmlns="http://www.w3.org/2000/svg" viewBox="0 0 320 211.88"><defs><style>.cls-1{fill:#f5e3de;}.cls-2{fill:#dfb6af;}.cls-3{fill:#383838;}.cls-4{fill:#fff;}</style></defs><title>img_13</title><path class="cls-1" d="M1337.25,510.14c.62,6.36,3.23,13.17,9.19,16.26,7.2,3.74,16.23.68,23.26-3.32,11.14-6.34,20.63-14.86,30.28-23.07,12.82-10.92,26.23-21.44,40.61-30.45,13.7-8.59,29.87-14.57,46.59-13.6,7.63.45,15.35,2.41,21.41,6.8,11,7.93,14.4,22.11,14.19,35.08-.27,16.95-6.14,31.42-12.26,46.94q-9.72,24.62-21.85,48.31c-11.7,22.83-26.44,46.2-50.61,57.5-7.57,3.54-16.92,5.66-24.3,1.77-7.18-3.79-10.19-12.09-10.82-19.79s.47-15.55-1.2-23.11a9.16,9.16,0,0,0-2.64-5.22c-3.74-3.19-9.71-.63-13.67,2.32-10,7.46-18,17-27,25.48s-19.52,16.31-32,18.93-27.2-1.21-33.69-11.54c-6.28-10-3.54-22.76-7-33.9a12.37,12.37,0,0,0-3.39-5.86c-3.62-3.12-9.32-2.57-14-1.15-15,4.54-27.39,15.8-43,17.85-6.34.83-13.38-.19-17.86-4.47-4-3.79-5.22-9.53-4.51-14.79,1.13-8.55,6.46-15.69,10.93-23,4.89-8,9.82-15.92,14.88-23.8,10.09-15.75,20.67-31.24,32.29-46,8.65-11,17.94-21.72,29.12-30.51,5.49-4.32,11.54-8.22,18.39-10.18,9.33-2.68,19.08-1.24,24.34,7.09C1340.66,482.92,1336,496.83,1337.25,510.14Z" transform="translate(-1202.79 -442.57)"/><path class="cls-2" d="M1256.85,514.58c3,.14,5.8.08,7.29,0-.22,1-.57,2.37-.92,3.43a19.65,19.65,0,0,1-2,3.91.81.81,0,0,0,.71,1.27.67.67,0,0,0,.24,0,24.38,24.38,0,0,0,4.93-2.79,17.84,17.84,0,0,0,5.09-5.73c1.39,0,23.06-.26,26.3-.21,4.5.07,6.88-1.45,7.24-4.64.33-2.87.31-19.1.25-23.76a7.89,7.89,0,0,0-2.32-5.88,6.52,6.52,0,0,0-5-1.65c-2.34.17-25.9.26-32.27.14l-6.49-.11c-3.44-.05-5.82.61-7.26,2a5.81,5.81,0,0,0-1.53,4.38v.22c0,1.67,0,18.27.07,21.77C1251.26,509.53,1251.38,514.33,1256.85,514.58Zm-4-7.68c-.09-3.48-.09-20-.07-21.69V485a4.27,4.27,0,0,1,1-3.22c1.09-1.08,3.14-1.6,6.09-1.56l6.48.11c6.4.12,30,0,32.41-.15a4.93,4.93,0,0,1,3.73,1.23,6.3,6.3,0,0,1,1.79,4.69c.06,4.61.08,20.79-.24,23.56-.17,1.51-1,3.25-5.58,3.18-4-.06-26.78.21-26.85.22a.83.83,0,0,0-.71.45,16.58,16.58,0,0,1-4.78,5.55c-.84.57-1.56,1-2.16,1.37a12.79,12.79,0,0,0,.79-1.86c.59-1.8,1.17-4.5,1.2-4.62a.81.81,0,0,0-.18-.7.83.83,0,0,0-.67-.29s-4,.21-8.2,0C1253.61,512.79,1252.93,510.7,1252.84,506.9Z" transform="translate(-1202.79 -442.57)"/><path class="cls-2" d="M1337.57,463.1a46.12,46.12,0,0,0-9.92,7.51l-2.3,2.18c-.34.32-.67.65-1,1s-.64.64-1.11.23a9,9,0,0,1-2.7-5.2c-.17-1-1.77-.71-1.59.32a11,11,0,0,0,2.9,5.79,2.19,2.19,0,0,0,2.74.71,13.36,13.36,0,0,0,2.61-2.32c3.42-3.25,6.9-6.52,11.1-8.73C1339.21,464.07,1338.5,462.61,1337.57,463.1Z" transform="translate(-1202.79 -442.57)"/><path class="cls-3" d="M1475,537c-.69-3.56-3.24-6.29-6.13-8.29-1.57-1.08-3.26-1.92-4.92-2.85a5.14,5.14,0,0,1-1.92-1.53c-.62-1-.23-2.1.1-3.1,1.31-4,2.73-8.57,1.27-12.77a12.25,12.25,0,0,0-6.38-6.74,62.57,62.57,0,0,0-9.34-3.35,32.47,32.47,0,0,1-9.35-4.56,29.87,29.87,0,0,1-3-2.42c-4.16-5.37-5.74-10.75-7.09-14.74-2.43-7.17.1-19.95-12.54-27.73s-35.71-8.63-46.22-1.1-7,22.86-6.69,22.74a17.09,17.09,0,0,1,2,12.87c-1.65,7.69-13.55,18.18-22.88,26.68s.53,24,16.52,35.13,85.82,21.16,104.47,10a22.67,22.67,0,0,0,6.24-5.22A12.86,12.86,0,0,0,1475,537Zm-23.54-33.48a48.55,48.55,0,0,1-9.55-5.66l.88.43a94,94,0,0,0,9.28,3.18c2.86,1,5.87,2.15,7.94,4.43,2.78,3.06,2.66,7.21,1.71,11-.27,1.06-.59,2.11-.93,3.15-.18.56-.38,1.13-.53,1.71C1459.83,517.06,1466.07,510.16,1451.46,503.48Zm14.9,25.59a17,17,0,0,1,5.43,4.57c2.54,3.5,2.16,8.34-.17,11.84C1473.39,539.44,1470,533.37,1466.36,529.07Z" transform="translate(-1202.79 -442.57)"/><path class="cls-4" d="M1406.52,479.59s-9.32-7.33-8.7-19.19,1.69-13,1.69-13-14.35-1.11-20.56,4.05-7.82,5.85-9,8.07a46.36,46.36,0,0,0-2,4.22S1354.93,476,1365.11,490c4.76,6.54,8.89,6.84,8.89,6.84l-6,12.85a76.34,76.34,0,0,0-7.35-3c-2.82-.88-5.27-2.4-5.57-2.28s-2.57,23.88,30.6,19.08,32.39-15.76,32.39-15.76-2.43-1.42-9.09-.87-14.08,3.06-14,3.61,7.52-19.62,7.52-19.62,11,.87,12.56-5.58-3.84-6.59-5.17-6.52A13.52,13.52,0,0,0,1406.52,479.59Z" transform="translate(-1202.79 -442.57)"/><path class="cls-3" d="M1399.84,446.68c-10.28-.88-21.29,1.71-28.44,9.59a25.31,25.31,0,0,0-4.33,6.59c-.43.95,1.12,1.46,1.54.52,3.93-8.76,13-13.77,22.22-14.95a42.14,42.14,0,0,1,8.91-.13A.81.81,0,0,0,1399.84,446.68Z" transform="translate(-1202.79 -442.57)"/><path class="cls-3" d="M1381.2,497.53a19.91,19.91,0,0,1-15-7.83,19.52,19.52,0,0,1,2.1-25.33c.75-.72-.31-2-1.07-1.23a21.6,21.6,0,0,0-6.29,17.53,20.67,20.67,0,0,0,10,15.4,21,21,0,0,0,10.17,3.08A.81.81,0,0,0,1381.2,497.53Z" transform="translate(-1202.79 -442.57)"/><path class="cls-3" d="M1415.81,482.2a6.16,6.16,0,0,0-4.89-4.37,6.47,6.47,0,0,0-6.26,2.49c-.62.84.73,1.74,1.35.9a4.75,4.75,0,0,1,7.93.64,5,5,0,0,1-.69,5.42,8.24,8.24,0,0,1-5.06,2.66,15.67,15.67,0,0,1-3.62.22c-.64,0-1.78-.15-1.94-.92a.81.81,0,0,0-1.59.31c.51,2.47,3.74,2.32,5.66,2.19a11.17,11.17,0,0,0,7.15-2.73A6.77,6.77,0,0,0,1415.81,482.2Z" transform="translate(-1202.79 -442.57)"/><path class="cls-3" d="M1411.66,483.45a.83.83,0,0,0-1.15-.09c.25-.17-.09,0-.17,0l-.35.11-.75.22-1.45.4-3,.78a.84.84,0,0,0-.64.95.82.82,0,0,0,1,.64c1.07-.27,2.14-.55,3.2-.84l1.56-.44a5.83,5.83,0,0,0,1.68-.61A.81.81,0,0,0,1411.66,483.45Z" transform="translate(-1202.79 -442.57)"/><path class="cls-3" d="M1406.6,478.41c-3.78-1.52-5.56-6.08-6.66-9.68a34.65,34.65,0,0,1-1.3-13.58,33.53,33.53,0,0,1,1.73-7.68.81.81,0,0,0-1.54-.52,35.92,35.92,0,0,0-1.88,14.61,31.77,31.77,0,0,0,4,13.62,10.86,10.86,0,0,0,5.16,4.77C1407.05,480.34,1407.57,478.8,1406.6,478.41Z" transform="translate(-1202.79 -442.57)"/><path class="cls-3" d="M1398,467.68a.62.62,0,0,0-.28-.17.71.71,0,0,0-.41,0,2.83,2.83,0,0,0-1.71.81,3.17,3.17,0,0,0-.69,1,3.86,3.86,0,0,0-.42.66,1.27,1.27,0,0,0,0,1,1.16,1.16,0,0,0,1.26.56,3.05,3.05,0,0,0,1.33-.64,3.28,3.28,0,0,0,.81-1,3.11,3.11,0,0,0,.39-1.58A.87.87,0,0,0,1398,467.68Z" transform="translate(-1202.79 -442.57)"/><path class="cls-3" d="M1381.87,462.75a.62.62,0,0,0-.28-.17.81.81,0,0,0-.41,0,2.77,2.77,0,0,0-1.71.8,43,43,0,0,0-1.11,1.69,1.25,1.25,0,0,0,0,1,1.15,1.15,0,0,0,1.26.57A3.07,3.07,0,0,0,1381,466a3.31,3.31,0,0,0,1.2-2.59A.88.88,0,0,0,1381.87,462.75Z" transform="translate(-1202.79 -442.57)"/><path class="cls-3" d="M1384.67,456a5.48,5.48,0,0,0-5.78-1.14c-1,.4-.25,1.86.71,1.46a4,4,0,0,1,4.39,1.29,7.22,7.22,0,0,1,1.3,5.38,9.08,9.08,0,0,1-2.32,5.29,25.6,25.6,0,0,1-4.27,3.57c-.85.61.21,1.84,1.06,1.23a23.39,23.39,0,0,0,5.09-4.53A10.77,10.77,0,0,0,1387,462,7.93,7.93,0,0,0,1384.67,456Z" transform="translate(-1202.79 -442.57)"/><path class="cls-3" d="M1387.66,476.71a72.36,72.36,0,0,0-11.39.78.73.73,0,0,0-.59,1,1.06,1.06,0,0,0,0,.23,6.17,6.17,0,0,0,2.66,3,6.26,6.26,0,0,0,4.11,1.12,7,7,0,0,0,3.58-2,6.17,6.17,0,0,0,2.34-3.27A.81.81,0,0,0,1387.66,476.71Zm-2.77,3a5.22,5.22,0,0,1-2.7,1.47,4.64,4.64,0,0,1-3-.92,5.6,5.6,0,0,1-1.52-1.34,69.58,69.58,0,0,1,8.65-.6A11,11,0,0,1,1384.89,479.73Z" transform="translate(-1202.79 -442.57)"/><path class="cls-3" d="M1373.2,496.58a106.76,106.76,0,0,1-7.13,15.67c-.51.91.84,1.82,1.35.9a110.19,110.19,0,0,0,7.33-16.06A.82.82,0,0,0,1373.2,496.58Z" transform="translate(-1202.79 -442.57)"/><path class="cls-4" d="M1297.2,552.59s-11.58,18.6-14,22.83-7.92,17.79-5.38,27.12,8.36,16.63,17.35,19.36,14.67,1.5,18.21.39,18.53-5.59,18.53-5.59,32,19.22,40.83,22,22,3.32,29.67-.81c0,0,10.28-6,13-9.93s3.05-4.58,3.05-4.58L1375.79,593s-31-3.94-31.49-4.53-20.64-31.32-20.66-31.63S1297.2,552.59,1297.2,552.59Z" transform="translate(-1202.79 -442.57)"/><path class="cls-3" d="M1295.52,554.62c-1.18,2.15-2.35,4.32-3.49,6.47-.29.53-.57,1.06-.84,1.58-1.46,2.74-2.85,5.42-4.15,7.93-.25.5-.5,1-.75,1.48l-.81,1.58c-.34.7-.69,1.38-1,2-.34.07-.68.15-1,.25a4.17,4.17,0,0,0-1.18.51c.37-.77.78-1.58,1.19-2.41l1.19-2.36c.24-.47.48-.95.74-1.44,1.22-2.38,2.54-4.92,3.91-7.53l.89-1.65c1.19-2.26,2.42-4.55,3.66-6.81.09-.18.19-.35.28-.52Z" transform="translate(-1202.79 -442.57)"/><path class="cls-2" d="M1428.72,526.26a47.3,47.3,0,0,1-5,17.62c-5.59,11.25-14.69,20.43-23.5,29.19q-7.11,7.08-14.59,13.78l-.75.68a11.74,11.74,0,0,1-3,2.11,11.5,11.5,0,0,1-4.43.69l-10.45.24c-6.89.17-13.77.35-20.65.49-6.66.15-13.37.42-20,.05a51.57,51.57,0,0,1-9.5-1.37,12.74,12.74,0,0,1-4-1.41,3.19,3.19,0,0,1-1.2-3.56,97.84,97.84,0,0,1,5.39-17.45q-9-5-17.77-10.36-1.87-1.15-3.73-2.34l-1.39-.89.58-1.05.2-.38,1.31-2.38.81-1.45c.92-1.66,1.83-3.28,2.72-4.84l1-1.76c2.72-4.73,5.17-8.79,7-11.49,7.19-10.69,15.32-22.8,29.71-26.93,6.2-1.78,12.79-1,18.28.51l1.56.45a9.24,9.24,0,0,0-.57,1.57,8.5,8.5,0,0,0-.27,1.56,10.77,10.77,0,0,0,2.71,7.8c3.68,4.38,9.59,5.91,15.07,6.31a47.88,47.88,0,0,0,17.81-2.37c8-2.54,15.25-6.73,22.19-11.38l2.26-1.53c.79.07,1.6.16,2.41.29l-.18.12a8.4,8.4,0,0,1,2.72.65l.47.24a.76.76,0,0,1,.69.09,10.36,10.36,0,0,1,2.73,2.51C1428.65,514.68,1429.09,521,1428.72,526.26Z" transform="translate(-1202.79 -442.57)"/><path class="cls-4" d="M1341.33,533.22c-.21-1.67-.4-3.33-.55-5a.81.81,0,0,0-1-.64.82.82,0,0,0-.64.95q.21,2.36.51,4.71a50.22,50.22,0,0,0-11.59,4.54,27.42,27.42,0,0,0-9.74,9.07,52.59,52.59,0,0,0-3.75,7.32c-.42,1,1.13,1.47,1.54.51,1.81-4.13,3.88-8.24,7.18-11.4a32.32,32.32,0,0,1,10.63-6.47,62.91,62.91,0,0,1,6.94-2.22A.85.85,0,0,0,1341.33,533.22Z" transform="translate(-1202.79 -442.57)"/><path class="cls-3" d="M1402.54,490.29q-2.73,5.25-4.94,10.74c-.72,1.79-1.4,3.61-2,5.43-.33,1-.65,1.91-1,2.88l-.45,1.44-.18.6c0,.12-.07.25-.11.37a.93.93,0,0,0-.4,1.59c.76.59,1.59-.1,1.87-.84.39-1,.64-2.1,1-3.13q1-3.12,2.19-6.18a117.07,117.07,0,0,1,5.39-12C1404.36,490.28,1403,489.36,1402.54,490.29Z" transform="translate(-1202.79 -442.57)"/><path class="cls-4" d="M1338.66,576.87c0-.31-9.26-14.12-14.07-19.63s-12.39-12.83-20.25-13.86-8.5.65-8.85,2-.21,3.82,3.91,5.87,7.27,3.53,8.78,4.78a6.44,6.44,0,0,1,1.86,2.17s-11.67-5-16.29-4.81-7.49,2.24-7.51,3.88a17.33,17.33,0,0,0,1.27,4.77s-5.1.78-5.79,3.18.48,5.42,3,5.81,9.13,1.68,13.18,2.4a14.28,14.28,0,0,1,6.87,3.55s-13.64-3.3-19.64-2.07-5.2,3-4.82,4.37,1.56,4.34,10.24,5.12,9.4,1.11,10.7,2a20,20,0,0,0,3.69,1.76Z" transform="translate(-1202.79 -442.57)"/><path class="cls-3" d="M1312,580l-.91-.2c-1.38-.32-2.76-.68-4.14-1-3.41-.91-6.8-1.89-10.26-2.58-4-.77-8.25-1.28-12.25-.43-.34.07-.68.15-1,.25a4.17,4.17,0,0,0-1.18.51A2.44,2.44,0,0,0,1281,579a3.07,3.07,0,0,0,.16.61,4,4,0,0,0,.75,1.3,5.71,5.71,0,0,0,3.36,1.76c2.08.39,4.24.32,6.35.57a48.69,48.69,0,0,1,6.53,1.21,50.42,50.42,0,0,1,7.06,2.36c.72.3,1.42.61,2.13,1l-2.44.87c-.75-.31-1.51-.62-2.28-.89a48.11,48.11,0,0,0-8.44-2.28c-2.33-.4-4.66-.56-7-.73-2.06-.14-4.33-.48-6-2l-.11-.11a6,6,0,0,1-1.12-1.46,5.22,5.22,0,0,1-.67-3.56c.4-2.13,2.28-3.15,4.12-3.59.72-.16,1.37-.29,2-.38a37.2,37.2,0,0,1,13.85,1.11c2.59.61,5.17,1.35,7.73,2.06,1.85.5,3.69,1,5.51,1.38C1313.67,578.45,1313.11,580.19,1312,580Z" transform="translate(-1202.79 -442.57)"/><path class="cls-3" d="M1316.05,574a38,38,0,0,0-12.68-8.6,32.3,32.3,0,0,0-14-2.72,13.69,13.69,0,0,0-3.86.75,6.43,6.43,0,0,0-3,1.82c-1.5,1.86.39,4,2.17,4.74,2.2.86,4.77.71,7.09,1.07a41,41,0,0,1,6.82,1.71,39.49,39.49,0,0,1,8.42,4,40.15,40.15,0,0,1,3.94,2.8l.12.12c-1.38-.32-2.76-.68-4.14-1a39,39,0,0,0-7.65-3.93,39.73,39.73,0,0,0-4.65-1.45,59.64,59.64,0,0,0-7.41-1.1c-2.41-.27-4.94-1-6.23-3.25a4.27,4.27,0,0,1,1.49-5.85,14.25,14.25,0,0,1,7.92-2.07,36.18,36.18,0,0,1,14.67,3.37,39.37,39.37,0,0,1,12,8.36C1317.82,573.53,1316.78,574.78,1316.05,574Z" transform="translate(-1202.79 -442.57)"/><path class="cls-3" d="M1318.84,566.64c-1.12-2.76-3.62-4.51-6.09-6l-.21-.13c-1-.57-1.92-1.11-2.91-1.61a45.69,45.69,0,0,0-13.39-4.4c-2.5-.4-5.68-.61-7.67,1.27-1.4,1.32-2.09,3.78-.63,5.29.74.75-.5,1.81-1.23,1.07-2-2.08-1.27-5.41.55-7.34,2.11-2.24,5.56-2.38,8.41-2a44.92,44.92,0,0,1,9.61,2.46c.16.06.33.12.48.19a47.65,47.65,0,0,1,4.91,2.18c1.23.63,2.43,1.32,3.6,2,2.47,1.55,4.91,3.48,6,6.27C1320.69,566.9,1319.23,567.62,1318.84,566.64Z" transform="translate(-1202.79 -442.57)"/><path class="cls-3" d="M1337.81,576.21c-4-5.36-7.93-10.73-12.08-15.94a65.32,65.32,0,0,0-10.43-10.85,33.16,33.16,0,0,0-6.3-3.95,17.74,17.74,0,0,0-7.93-2c-2,.06-5.59,1.08-4.68,3.83.79,2.4,3.85,3.21,5.89,4.22a26.65,26.65,0,0,1,8.39,6.08,15.5,15.5,0,0,1,2.08,3l-.21-.13c-1-.57-1.92-1.11-2.91-1.61a19.42,19.42,0,0,0-3.84-3.45,32.68,32.68,0,0,0-3.76-2.24c-1.31-.67-2.7-1.21-4-1.92-2.18-1.2-4.27-3.72-3.08-6.33,1.1-2.43,4.16-3.12,6.58-3.12a19.92,19.92,0,0,1,8.36,2.27,35.23,35.23,0,0,1,6.64,4.23,70.29,70.29,0,0,1,11,11.64c3.92,5,7.7,10.07,11.47,15.17C1339.65,576,1338.43,577.05,1337.81,576.21Z" transform="translate(-1202.79 -442.57)"/><path class="cls-4" d="M1283.41,600s-2.5,11.23,1.84,15.63,11.62,7.93,24,7.29,35-11.27,47.19-18.07,21.86-8.1,21.86-8.1l7.89-23s-2.74-1.19-11.67-2.89-22.45,1.16-30.84,4.06-48.63,15.89-48.63,15.89Z" transform="translate(-1202.79 -442.57)"/><path class="cls-3" d="M1386.27,573.45c-.17.52-.33,1-.49,1.56-.49-.25-1-.49-1.48-.72a38.16,38.16,0,0,0-15-3.23,66.82,66.82,0,0,0-17.57,2.28c-6,1.49-11.94,3.39-17.84,5.3-8.88,2.88-17.69,6-26.47,9.12l-2.44.87L1298.3,591c-1,.35-1.69-1.1-.71-1.46l5.06-1.82c.86-.32,1.73-.62,2.59-.93q6.38-2.29,12.76-4.53c6-2.09,12-4.13,18.07-6s12-3.79,18.09-5.13c10.1-2.21,21.08-2.66,30.63,1.64C1385.29,573,1385.78,573.2,1386.27,573.45Z" transform="translate(-1202.79 -442.57)"/><path class="cls-4" d="M1417.75,624.8a50,50,0,0,0,4.77-12.11c1.82-6.75,5.28-19.92,5.28-19.92l-45.63-9-7.53,22.8Z" transform="translate(-1202.79 -442.57)"/><path class="cls-3" d="M1416.49,506.37l-2.26,1.53a49.19,49.19,0,0,0-17.94,3.11.81.81,0,1,1-.62-1.5A48.83,48.83,0,0,1,1416.49,506.37Z" transform="translate(-1202.79 -442.57)"/><path class="cls-2" d="M1439.27,544.85c-1.09,4.6-2.49,10.62-4.09,17.59-2.55,11-5.45,23.55-8,34.28-.13.53-.26,1.06-.38,1.58l-1.58-.41-21.44-5.5-18.91-4.86-2.77-.71-1.58-.4c.17-.52.33-1,.5-1.56q1.68-5.28,3.32-10.57c.17-.52.32-1,.49-1.55q4.41-14.25,8.58-28.56a.78.78,0,0,1,0-.39,71.19,71.19,0,0,1,21-31,33.08,33.08,0,0,1,5.77-4.26,32,32,0,0,0-3.34-.49c-.89-.09-1.77-.14-2.64-.16l2.26-1.53c.79.07,1.6.16,2.41.29a32.48,32.48,0,0,1,5.65,1.37C1437.93,512.6,1443.57,526.71,1439.27,544.85Z" transform="translate(-1202.79 -442.57)"/><path class="cls-3" d="M1382.06,586.82c-1.56,4.91-3.16,9.83-4.76,14.73a.82.82,0,0,1-1.55-.51q2.09-6.35,4.12-12.7c.2-.64.41-1.28.61-1.92Z" transform="translate(-1202.79 -442.57)"/><path class="cls-3" d="M1368.69,510.27a.81.81,0,0,1-1.11.29,56.25,56.25,0,0,0-10.86-4.58,9.24,9.24,0,0,1,.57-1.57,56.21,56.21,0,0,1,11.12,4.75A.81.81,0,0,1,1368.69,510.27Z" transform="translate(-1202.79 -442.57)"/><path class="cls-3" d="M1378.32,596.74c-.17.31-.37.36-.86.49a100.45,100.45,0,0,0-11.69,3.79c-1.4.55-4.06,2-7.44,3.77-12.08,6.43-33.93,18.07-51.21,19-1.09,0-2.17.07-3.21,0-10-.32-18.23-4.61-23.09-12.06-5.12-7.84-5.88-18.19-2.06-27.69.32-.78.74-1.74,1.25-2.86l1-2.19a3.07,3.07,0,0,0,.16.61,4,4,0,0,0,.75,1.3l-.81,1.74c-.34.77-.63,1.44-.86,2-3.63,9-2.92,18.8,1.9,26.19,4.58,7,12.31,11,21.79,11.32,17.26.55,40.9-12,53.6-18.81,3.56-1.9,6.13-3.27,7.62-3.85a103,103,0,0,1,11.87-3.86l.29-.07a.81.81,0,0,1,1,1.16Z" transform="translate(-1202.79 -442.57)"/><path class="cls-3" d="M1426.76,598.3c-1.68,6.9-3.22,12.94-4.41,17.17a35.28,35.28,0,0,1-20,23.12,38.36,38.36,0,0,1-13.51,3.19,42,42,0,0,1-21-4.53c-15.43-7.75-36.61-19.38-36.82-19.5a.82.82,0,0,1-.32-1.11.81.81,0,0,1,1.1-.31c.22.11,21.36,11.73,36.77,19.46,10.73,5.39,22.82,5.87,33.16,1.31A33.66,33.66,0,0,0,1420.78,615c1.19-4.22,2.72-10.25,4.4-17.14Z" transform="translate(-1202.79 -442.57)"/><path class="cls-4" d="M1391.31,548c-.2-.24-.38-.48-.56-.73l-.12-.19c-.13-.19-.2-.31-.28-.44a13.54,13.54,0,0,1-.8-1.62.81.81,0,0,0-1.08-.38.84.84,0,0,0-.38,1.09,13.33,13.33,0,0,0,2,3.33.82.82,0,0,0,1.15.09A.84.84,0,0,0,1391.31,548Z" transform="translate(-1202.79 -442.57)"/><path class="cls-4" d="M1389.69,548.85l-7.22,28.81-2.07,8.28c-.26,1,1.28,1.53,1.54.51q3.63-14.51,7.27-29l2-8.08C1391.49,548.35,1390,547.83,1389.69,548.85Z" transform="translate(-1202.79 -442.57)"/><path class="cls-3" d="M1417.91,446.15a5.79,5.79,0,0,0-2.2,1.07,4,4,0,0,0-.91-1.62.84.84,0,0,0-.77-.26.78.78,0,0,0-.62.54,5.78,5.78,0,0,0,.26,3.35.85.85,0,0,0-.23,1,3.47,3.47,0,0,0,2.14.44.8.8,0,0,0,.25-.7,10,10,0,0,0,2.91-2.58A.82.82,0,0,0,1417.91,446.15Z" transform="translate(-1202.79 -442.57)"/><path class="cls-3" d="M1345.73,473.73c0-3.5-.19-9.14-.28-10.81v-.21a5.77,5.77,0,0,0-1.68-4.33c-1.5-1.36-3.9-1.94-7.34-1.76l-6.48.36c-6.36.35-12.36.69-14.7.6a6.53,6.53,0,0,0-4.89,1.84,7.88,7.88,0,0,0-2.1,6,127.55,127.55,0,0,0,.67,12.79c.48,3.18,2.91,4.6,7.4,4.37,3.25-.17,7.36-.29,8.75-.32a17.65,17.65,0,0,0,5.3,5.53,24.68,24.68,0,0,0,5,2.61.93.93,0,0,0,.24,0,.79.79,0,0,0,.66-.34.81.81,0,0,0,0-1,20,20,0,0,1-2.18-3.83c-.38-1-.78-2.44-1-3.39,1.5,0,4.34-.05,7.29-.3C1345.82,481.12,1345.76,476.31,1345.73,473.73Zm-5.5,6.21c-4.18.35-8.16.29-8.2.29a.82.82,0,0,0-.81,1c0,.11.71,2.79,1.36,4.57a12.17,12.17,0,0,0,.87,1.83c-.62-.33-1.36-.76-2.21-1.29a16.68,16.68,0,0,1-5-5.37.84.84,0,0,0-.72-.43c-.07,0-5.33.14-9.29.34-4.62.24-5.47-1.46-5.7-3-.42-2.75-.54-8-.65-12.59a6.27,6.27,0,0,1,1.61-4.75,4.92,4.92,0,0,1,3.68-1.37c2.41.09,8.46-.25,14.85-.61l6.47-.35c3-.15,5,.3,6.15,1.33a4.2,4.2,0,0,1,1.15,3.18V463c.09,1.65.24,7.26.28,10.74C1344.14,477.55,1343.53,479.66,1340.23,479.94Z" transform="translate(-1202.79 -442.57)"/><path d="M1278.3,496.86a10.13,10.13,0,0,1,1.6-1.73,9.27,9.27,0,0,0,1.19-1.24,2,2,0,0,0,.4-1.2,1.82,1.82,0,0,0-.77-1.52,3.22,3.22,0,0,0-2-.58,4.19,4.19,0,0,0-3.65,1.72l-2.17-1.41a6.29,6.29,0,0,1,2.48-2,8.47,8.47,0,0,1,3.58-.71,6.61,6.61,0,0,1,4,1.09,3.48,3.48,0,0,1,1.49,3,3.82,3.82,0,0,1-.31,1.61,4.37,4.37,0,0,1-.72,1.18c-.29.32-.66.69-1.12,1.11a8.34,8.34,0,0,0-1.27,1.34,2.38,2.38,0,0,0-.41,1.39h-2.84A3.43,3.43,0,0,1,1278.3,496.86Zm-.41,6.85a1.7,1.7,0,0,1-.5-1.24,1.67,1.67,0,0,1,.5-1.23,1.77,1.77,0,0,1,1.29-.49,1.7,1.7,0,0,1,1.26.49,1.64,1.64,0,0,1,.51,1.23,1.73,1.73,0,0,1-1.77,1.74A1.74,1.74,0,0,1,1277.89,503.71Z" transform="translate(-1202.79 -442.57)"/></svg>