<svg id="Layer_1" data-name="Layer 1" xmlns="http://www.w3.org/2000/svg" viewBox="0 0 440 316.14"><defs><style>.cls-1{fill:#e1e8f0;}.cls-2{fill:#4978de;}.cls-3{fill:#fff;}.cls-4{fill:#383838;}.cls-5{fill:#ace2ff;}</style></defs><title>img_08</title><path class="cls-1" d="M1474.72,627.64a659.48,659.48,0,0,1-58.06,54.74c-34.94,29.17-76.64,56-123.75,55.15-22-.4-46.88-9.62-54.33-29.53-4.14-11-3.1-25.14-13.14-32-5.69-3.91-13.16-4-20.08-3.88l-44.17.58c-13.57.18-27.36.33-40.55-3.13s-25.91-11.1-32.11-22.78c-12.76-24,4-54.49,18.48-73.37a1062.87,1062.87,0,0,1,69.28-80.81c25.86-27.44,55.52-52.2,90.39-65.65,17-6.55,38.41-9.38,51.28,3.7,7.77,7.9,10.26,19.63,15.88,29.26,13.27,22.71,42.3,30.61,68.11,28.81,30-2.09,56.47-12.78,86,1.54,19.14,9.3,34.48,28.33,35.94,50C1526.3,576.28,1497.05,603.87,1474.72,627.64Z" transform="translate(-1084 -421.42)"/><path class="cls-2" d="M1458.54,607.82c-8.42-31.94-31.7-43.21-31.7-43.21-11.87-25.13-40.87-40.28-87.93-36.14L1304,532.42c-19.41,3.18-39.72,13.74-49.21,29.82-10.92,18.52-37.74,3.7-37.74,3.7-33.7,3.24-21,71-14.06,81.5,19.67,29.89,92,40.46,130,36.32,17.82-1.94,37.3-11,54.24-24,5,9.17,11.71,16,20.6,17.91C1463.57,689.8,1467,639.77,1458.54,607.82Z" transform="translate(-1084 -421.42)"/><path class="cls-3" d="M1316.24,549.76c12.59-1.36,29.31-13.49,37.74-22-4.63-.3-10.11.35-15.07.66L1304,532.42a94.14,94.14,0,0,0-12.4,2.91C1294.06,540.42,1301.16,551.38,1316.24,549.76Z" transform="translate(-1084 -421.42)"/><circle class="cls-4" cx="1313.54" cy="493.77" r="27.83" transform="translate(-730.7 1095.65) rotate(-67.42)"/><path class="cls-3" d="M1310.78,484.42a3.21,3.21,0,0,1,5,2.57c.07,4.35.36,9.7,1.29,12.22.2.56,8,11.32,15.85,12.93l3,21.54-29.91,3.26-1.06-8.31c-13.75,1.49-14-6.67-16.46-19.53a69.71,69.71,0,0,1-1-16.52C1295.72,493.82,1305.14,488.41,1310.78,484.42Z" transform="translate(-1084 -421.42)"/><path class="cls-4" d="M1305.88,535.89a.87.87,0,0,1-.86-.76l-.74-5.56c-12.65,1.08-14-6.28-16-17.29-.18-1-.36-2-.56-3a115.08,115.08,0,0,1-1.94-16.13.88.88,0,0,1,.84-.9.87.87,0,0,1,.9.85,114,114,0,0,0,1.91,15.86q.3,1.56.57,3c2,11,3.11,17.08,15,15.79a.88.88,0,0,1,1,.75l.85,6.39a.87.87,0,0,1-.75,1Z" transform="translate(-1084 -421.42)"/><path class="cls-4" d="M1335.79,532.63a.87.87,0,0,1-.86-.75l-2.82-19.62a.87.87,0,0,1,1.73-.25l2.81,19.62a.87.87,0,0,1-.74,1Z" transform="translate(-1084 -421.42)"/><path class="cls-4" d="M1305,529.5a.87.87,0,0,1-.12-1.74,32.36,32.36,0,0,0,10.95-3.39.86.86,0,0,1,1.19.29.88.88,0,0,1-.29,1.2,33.61,33.61,0,0,1-11.6,3.63Z" transform="translate(-1084 -421.42)"/><path class="cls-4" d="M1305.55,531.92s1.83,5.55,5.84,5,6-11.7,6-11.7L1305,528.63Z" transform="translate(-1084 -421.42)"/><path class="cls-3" d="M1330.08,500.67a7.37,7.37,0,1,1-8.13-6.53A7.37,7.37,0,0,1,1330.08,500.67Z" transform="translate(-1084 -421.42)"/><path class="cls-4" d="M1321.55,503.8a1,1,0,0,1-.43-.11.87.87,0,0,1-.33-1.19l2.27-4.05a.87.87,0,0,1,1.52.86l-2.27,4.05A.88.88,0,0,1,1321.55,503.8Z" transform="translate(-1084 -421.42)"/><path class="cls-4" d="M1306.38,500.14a1.76,1.76,0,1,0,1.37-2.09A1.77,1.77,0,0,0,1306.38,500.14Z" transform="translate(-1084 -421.42)"/><path class="cls-4" d="M1292.84,501.61a1.76,1.76,0,1,0,1.36-2.08A1.76,1.76,0,0,0,1292.84,501.61Z" transform="translate(-1084 -421.42)"/><path class="cls-4" d="M1301.17,512l-.19,0-4.09-.92a.88.88,0,0,1-.66-1,.87.87,0,0,1,1-.66l4.09.92a.86.86,0,0,1,.66,1A.88.88,0,0,1,1301.17,512Z" transform="translate(-1084 -421.42)"/><circle class="cls-4" cx="203.74" cy="56.62" r="12.54"/><path class="cls-4" d="M1287.8,491.56a13.41,13.41,0,1,1,13.4-13.41A13.42,13.42,0,0,1,1287.8,491.56Zm0-25.07a11.67,11.67,0,1,0,11.66,11.66A11.67,11.67,0,0,0,1287.8,466.49Z" transform="translate(-1084 -421.42)"/><path class="cls-3" d="M1173.7,510c25.54-11.4,58.4-1.54,55.47,15.86v54.93c34.39-.69,65.53-21.84,112.62-36.14,77.12-23.42,97.45,19.17,97.45,19.17V715.05l-238.5,4.23a43,43,0,0,1-43.81-43v-132c1.69,6.32,0-.27,0-.27v.27A29.18,29.18,0,0,1,1173.7,510Z" transform="translate(-1084 -421.42)"/><path class="cls-1" d="M1230,526a13.3,13.3,0,0,0-2.68-10.48c-8.09-10.71-32.9-15.65-54-6.24a30.1,30.1,0,0,0-18.14,25.17,28.74,28.74,0,0,0-.06,3.59l1.69-1.22c0-.74,0-1.48.1-2.23a28.41,28.41,0,0,1,17.12-23.72,57.61,57.61,0,0,1,30.52-4.34c9.73,1.28,17.52,4.94,21.38,10a11.74,11.74,0,0,1,2.53,7.77A7.6,7.6,0,0,0,1230,526Z" transform="translate(-1084 -421.42)"/><path class="cls-1" d="M1228.48,524.3c-.16,3.34-1.75,6.87-4.78,10.49-12.32,14.75-28.7,13.35-35.17,12.06-9.14-1.83-16.9-6.77-18.45-11.76a.87.87,0,0,0-1.67.52c1.76,5.65,9.9,11,19.78,12.94,6.78,1.35,23.93,2.83,36.85-12.64a21.09,21.09,0,0,0,5-9.95A7.6,7.6,0,0,1,1228.48,524.3Z" transform="translate(-1084 -421.42)"/><path class="cls-1" d="M1169.3,559.85a27.58,27.58,0,0,1-11.5-15.68v-.23a.85.85,0,0,0-.2-.56,27.28,27.28,0,0,1-.77-6.6l-1.69,1.22a29.07,29.07,0,0,0,.92,6.41l1.74,4.79a29.69,29.69,0,0,0,10.54,12.1c20.85,13.84,39.84,20.42,59.21,20.42.49,0,1,0,1.46,0,.11-.57.25-1.14.4-1.72C1211.24,580.4,1192.2,575.05,1169.3,559.85Z" transform="translate(-1084 -421.42)"/><rect class="cls-4" x="1379.79" y="599.57" width="29.97" height="90.1" transform="translate(1705.55 867.82) rotate(180)"/><path class="cls-4" d="M1409.76,690.54h-30a.87.87,0,0,1-.87-.87v-90.1a.87.87,0,0,1,.87-.87h30a.87.87,0,0,1,.87.87v90.1A.87.87,0,0,1,1409.76,690.54Zm-29.1-1.74h28.23V600.44h-28.23Z" transform="translate(-1084 -421.42)"/><rect class="cls-2" x="1349.82" y="627.18" width="29.97" height="62.49" transform="translate(1645.61 895.43) rotate(180)"/><path class="cls-4" d="M1379.79,690.54h-30a.87.87,0,0,1-.87-.87V627.18a.87.87,0,0,1,.87-.87h30a.87.87,0,0,1,.87.87v62.49A.87.87,0,0,1,1379.79,690.54Zm-29.1-1.74h28.23V628.05h-28.23Z" transform="translate(-1084 -421.42)"/><rect class="cls-5" x="1319.85" y="662.24" width="29.97" height="27.43" transform="translate(1585.67 930.49) rotate(180)"/><path class="cls-4" d="M1349.82,690.54h-30a.87.87,0,0,1-.87-.87V662.24a.87.87,0,0,1,.87-.87h30a.87.87,0,0,1,.87.87v27.43A.87.87,0,0,1,1349.82,690.54Zm-29.1-1.74H1349V663.11h-28.23Z" transform="translate(-1084 -421.42)"/><path class="cls-1" d="M1168.91,561.13a.88.88,0,0,1-.88-.87V535.35a.88.88,0,0,1,1.75,0v24.91A.87.87,0,0,1,1168.91,561.13Z" transform="translate(-1084 -421.42)"/><path class="cls-4" d="M1253.45,648.31h-64.07a.87.87,0,0,1,0-1.74H1253l40.85-50.9a.88.88,0,0,1,.68-.33L1364.72,576a.88.88,0,0,1,0,1.75L1295,597.08,1254.13,648A.88.88,0,0,1,1253.45,648.31Z" transform="translate(-1084 -421.42)"/><path class="cls-2" d="M1189.38,657a9.6,9.6,0,1,0-9.59-9.59A9.6,9.6,0,0,0,1189.38,657Z" transform="translate(-1084 -421.42)"/><path class="cls-4" d="M1297.29,511h0a.87.87,0,0,1-.86-.88l.1-11.72a.87.87,0,0,1,.87-.87h0a.88.88,0,0,1,.86.88l-.1,11.72A.87.87,0,0,1,1297.29,511Z" transform="translate(-1084 -421.42)"/><path class="cls-3" d="M1451.37,604.89s6.44-5,1.24-14.78c0,0,7.82-3.91.72-13.57,0,0,5.35-5.16.29-9.82-3-2.79-11.8-5.41-22.36-6.11s-11.15,3.07-11.64,4.43c-.42,1.18-.69,6.91,12.07,9.35-6-.44-14.15-.08-15.25,5.07-1.25,5.87,6.36,8.55,13.47,9.46-5.88.2-13.05,1.6-13.6,7.19s6.15,7.62,12.13,8.31c-3.56.42-6.87,1.83-6.91,5.59-.07,8.17,17.94,8.56,17.94,8.56v8.81s14.77-6.78,15.18-13.65S1451.37,604.89,1451.37,604.89Z" transform="translate(-1084 -421.42)"/><path class="cls-4" d="M1439.47,628.25a.86.86,0,0,1-.47-.14.87.87,0,0,1-.4-.73v-8c-3.72-.19-18-1.46-17.94-9.4a5.72,5.72,0,0,1,3.64-5.4c-7.73-1.79-9.16-5.53-8.86-8.57.37-3.77,3.38-6.26,8.78-7.36-3-.86-6.08-2.26-7.66-4.5a6,6,0,0,1-1-4.89c.72-3.37,4.06-5.33,9.75-5.79-2.86-1.19-4.84-2.72-5.91-4.6a5.24,5.24,0,0,1-.63-4.15c0-.07,0-.15.08-.23.54-1.64,1.79-5.48,12.43-4.77,10.32.69,19.52,3.23,22.9,6.34a6.83,6.83,0,0,1,2.46,5,8.88,8.88,0,0,1-2.22,5.51c2.33,3.37,3.17,6.46,2.51,9.19a8.09,8.09,0,0,1-3.21,4.63c3.74,7.7.55,12.59-1.06,14.38,1.21,1.12,3.13,3.75,2.82,9-.43,7.31-15.06,14.1-15.68,14.39A.9.9,0,0,1,1439.47,628.25Zm-11.31-53.12c-4.66,0-10.08.82-10.87,4.51a4.26,4.26,0,0,0,.69,3.52c1.66,2.35,6,4.13,12,4.9a.87.87,0,0,1-.08,1.74c-5.56.18-12.28,1.44-12.77,6.4s5.91,6.72,11.37,7.35a.87.87,0,0,1,0,1.73c-6.1.73-6.13,3.75-6.13,4.74-.06,6,12.31,7.57,17.08,7.68a.87.87,0,0,1,.85.87V626c4.55-2.3,13.16-7.58,13.44-12.31.36-6.16-2.69-7.95-2.82-8a.88.88,0,0,1-.45-.7.87.87,0,0,1,.33-.75h0c.24-.19,5.77-4.71,1-13.69a.88.88,0,0,1,.38-1.19,6.5,6.5,0,0,0,3.06-4c.56-2.36-.33-5.16-2.65-8.32a.87.87,0,0,1,.1-1.14s2.23-2.2,2.19-4.8a5.13,5.13,0,0,0-1.89-3.75c-2.5-2.3-10.4-5.12-21.83-5.88-9.29-.62-10.22,2.21-10.66,3.57,0,.1-.07.2-.1.28a3.51,3.51,0,0,0,.5,2.7c1,1.75,3.71,4.13,10.91,5.51a.87.87,0,0,1-.22,1.72C1430.59,575.18,1429.4,575.13,1428.16,575.13Z" transform="translate(-1084 -421.42)"/><path class="cls-4" d="M1453.34,577.41h-.09l-21.65-2.15a.87.87,0,1,1,.18-1.73l21.64,2.14a.87.87,0,0,1-.08,1.74Z" transform="translate(-1084 -421.42)"/><path class="cls-4" d="M1452.08,591h0l-22.17-1.23a.87.87,0,0,1,.09-1.74l22.17,1.23a.89.89,0,0,1,.83.92A.88.88,0,0,1,1452.08,591Z" transform="translate(-1084 -421.42)"/><path class="cls-4" d="M1451.35,606.05h0l-22.91-.76a.87.87,0,0,1-.84-.9.85.85,0,0,1,.9-.84l22.91.76a.87.87,0,0,1,0,1.74Z" transform="translate(-1084 -421.42)"/><circle class="cls-2" cx="169.45" cy="226.02" r="8.72"/><circle class="cls-2" cx="210.56" cy="174.8" r="8.72"/><circle class="cls-2" cx="280.72" cy="155.44" r="8.72"/><path class="cls-4" d="M1498.94,470.5h-42.83V427.64l.46,0a41.73,41.73,0,0,1,30.8,13.22c13.21,14.25,11.64,29.08,11.63,29.23Zm-41.83-1H1498c.14-2.53.21-15.46-11.4-28a40.93,40.93,0,0,0-29.53-12.92Z" transform="translate(-1084 -421.42)"/><path class="cls-2" d="M1447,437.62V480h42.38A42.39,42.39,0,1,1,1447,437.62Z" transform="translate(-1084 -421.42)"/></svg>