<svg id="Layer_1" data-name="Layer 1" xmlns="http://www.w3.org/2000/svg" viewBox="0 0 380 350.68"><defs><style>.cls-1{fill:#e1e8f0;}.cls-2{fill:#ace2ff;}.cls-3{fill:#383838;}.cls-4{fill:#fff;}.cls-5{fill:#4978de;}.cls-6{fill:#fbd1c2;}.cls-7{fill:#1c1919;}.cls-8{fill:#f1f9ff;}</style></defs><title>img_05</title><path class="cls-1" d="M1085.48,419.38c-15.73.29-34.12,2.48-26.39,20.5,3.06,7.14,11.19,12.8,13,20.09,2.76,11.08-9.95,17.13-20.32,21.27-26.63,10.64-49,27.86-64.59,49.68-3.78,5.29-7.24,11.16-6.94,18C980.89,563.33,998,575.78,1014,580s32.11,3.07,48.21,6.15,34.14,12.65,38.62,27.14c3.42,11.07-2.14,21.16-7.78,30q-9.15,14.29-19,28.14c-8.18,11.45-17,24.41-12.76,39.33,3.91,13.67,18.46,24.94,33.42,29.61s30.26,3.85,44.58,1.78c28.8-4.16,55.59-13.09,81.52-23.08,44.49-17.14,87.56-37.94,119.74-69.3,7.42-7.23,14.57-16.5,11.47-27.37-3.24-11.34-16.23-19.39-28.28-24.61-22.22-9.62-46-15-67.26-26.68-2.32-1.27-4.81-2.83-5.74-5.07-1.23-2.93.73-5.59,2.76-7.57,17.64-17.3,47.88-25.8,53.38-50,2.9-12.78-2.33-27.62-11.61-39.84s-22.29-22.09-35.94-30.28c-25.08-15.05-56.36-17.67-83.15-18.82q-39.17-1.69-77.77-.25C1094.9,419.38,1090.32,419.29,1085.48,419.38Z" transform="translate(-972.75 -418.59)"/><path class="cls-2" d="M975,477.6a29.18,29.18,0,0,0,3.16,9.29c.73,1.18,1.47,2.35,2.21,3.52,6.51,10.17,13.82,19.86,23.55,28.12a30.87,30.87,0,0,1-7.55-14.68c-.07-.35-.13-.71-.19-1.07-4.54-28.66,47.72-31.8,66.34-30.5,26,1.83,51.41,8.13,77.11,12.36s103.16,5.17,151.94-27.58l-24.39-18.15c-39,30.1-123,24.78-148.73,20.55s-51.12-10.53-77.11-12.35C1022.67,445.8,970.41,448.94,975,477.6Z" transform="translate(-972.75 -418.59)"/><path class="cls-3" d="M996.32,503.85a30.87,30.87,0,0,0,7.55,14.68c14.45,16.14,44.85,22.61,63.4,24.42,68.31,6.66,134.28-24,202.44-31.89,13.54-1.58,27.43-2.23,40.65,1a61.2,61.2,0,0,1,14.35,5.49A48,48,0,0,1,1338,527.93L1318,504.23h0l-1.3-1.54c-7-7.91-17-13.23-27.53-15.8-13.22-3.24-27.11-2.59-40.64-1-68.17,7.93-134.14,38.55-202.45,31.89C1032.25,516.42,1011.81,512.47,996.32,503.85Z" transform="translate(-972.75 -418.59)"/><path class="cls-3" d="M1000.63,638.64a18.89,18.89,0,0,0,3.8,12.86,32.91,32.91,0,0,0,11,9.25c19.34,10.53,41,10.2,62.4,10.56,20.36.34,38.34-5.5,57.78-11.77l86.1-27.78c13.39-4.33,27.66-8.7,41.38-5.45l.79.2a31.34,31.34,0,0,1,12.68,7c-.26-.31-16.82-20.27-17.36-21l0,0h0a31.24,31.24,0,0,0-17.26-11.36c-13.71-3.25-28,1.12-41.38,5.45l-86.1,27.78c-19.44,6.27-37.42,12.11-57.78,11.77C1037.54,645.81,1018.28,646,1000.63,638.64Z" transform="translate(-972.75 -418.59)"/><path class="cls-4" d="M1216.82,492.85c-2.06,1.95-2.65,4.93-2.75,7.72a3.73,3.73,0,0,0,.41,2.24,2.92,2.92,0,0,0,1.51,1.08,6.33,6.33,0,0,0,5.1-.66,15.22,15.22,0,0,0,3.91-3.47c1.48-1.72,7.19-8.66,3.14-10.29C1225.3,488.33,1218.82,491,1216.82,492.85Z" transform="translate(-972.75 -418.59)"/><path class="cls-5" d="M1156.36,505.16c-1.65,2-3.6,3.87-4.49,6.28-1.35,3.69-.13,8.37-2.91,11.2-1.31,1.34-3.46,2.17-3.78,4-.25,1.43.8,2.8.77,4.25,0,2.14-2.39,4.05-1.63,6.06a4,4,0,0,0,1.55,1.7c1.93,1.36,4.13,2.36,5.9,3.92s3.35,4.22,2.7,6.45l-2.57,3.22-1.63,2c-5.52,6.93-14.63,18.4-15.43,19.65-1.46,2.26-4.4-2.47-6.86-3.66-1.83-.88-4.11-.44-5.92-1.36-3.18-1.62-3-6.14-5.06-9-2.8-3.87-9.6-4.54-10.65-9.16-.55-2.42.86-4.88.71-7.35-.23-3.69-3.86-6.63-3.87-10.33s3.64-6.58,4.44-10.24c.51-2.31-.14-4.88,1-7,1.73-3.21,6.56-3.53,8.8-6.42,1.93-2.49,1.46-6.34,3.77-8.51,1.3-1.21,3.22-1.61,4.59-2.75,3-2.47,2.67-7.72,6.15-9.42a9.13,9.13,0,0,1,3.59-.66,9.58,9.58,0,0,0,2.9-.48c.17-.07.34-.14.51-.23,1.82-1,2.56-3.11,3.56-4.89s2.92-3.55,4.91-2.93c6,1.85,12.56,2.58,14,8.54S1160.29,500.4,1156.36,505.16Z" transform="translate(-972.75 -418.59)"/><path class="cls-6" d="M1165.07,567.2l-66.17,6.41a2.09,2.09,0,0,1-2.29-1.83l-4.92-48.19a2.06,2.06,0,0,1,1.88-2.23l66.17-6.41a2.1,2.1,0,0,1,2.3,1.83L1167,565A2,2,0,0,1,1165.07,567.2Z" transform="translate(-972.75 -418.59)"/><path class="cls-4" d="M1186.75,464.22q-.46,1.11-1,2.25l-.9,2v0c-.48,1.08-.94,2.17-1.35,3.27l-.06.16a26.11,26.11,0,0,0-1,3.48,9.76,9.76,0,0,1-5.88,7.35,10.28,10.28,0,0,1-7.46.36,6.72,6.72,0,0,1-1.44-.73c-.56-.35-1.11-.74-1.71-1.07q-2-1.05-3.82-2.24c-.12-.08-.24-.16-.27-.3a.52.52,0,0,1,.08-.36,88,88,0,0,0,4.43-9c.76-2,1.5-4,2.31-5.95l.24-.6c.38-.91.78-1.81,1.2-2.71a4.63,4.63,0,0,1,1.55-1.91c1.49-1,3.52-1,5.53-.41a18.39,18.39,0,0,1,2.3.8c.74.31,1.45.65,2.09,1A15.58,15.58,0,0,1,1186.75,464.22Z" transform="translate(-972.75 -418.59)"/><path class="cls-4" d="M1198.33,456.67a1.25,1.25,0,0,1-.11.74c-.35.75-1.49.69-2,1.32a2.31,2.31,0,0,0-.35.82c-.38,1.36-.48,2.81-1,4.13a21.39,21.39,0,0,1-1.72,3.92c-1.35,2.3-4.58,3.11-7.19,2.8a12.05,12.05,0,0,1-3.71-1.16h0c-.4-.19-.79-.39-1.18-.61-6.57-3.62-13.62-8.67-16.45-15.73-1.39-3.47-1.8-6.46-.57-10.1,2.53-7.51,11.75-11.48,19.42-10.16a15.57,15.57,0,0,1,1.7.39,15,15,0,0,1,7,4.24h0q.46.51.87,1.05a17,17,0,0,1,3,11.88c-.2,1.64-.48,3,.57,4.42C1197.2,455.24,1198.19,455.85,1198.33,456.67Z" transform="translate(-972.75 -418.59)"/><path class="cls-6" d="M1188.19,459.43c1.21,3.07,4.82,5.09,5.57,1.5S1190.87,458.28,1188.19,459.43Z" transform="translate(-972.75 -418.59)"/><path class="cls-3" d="M1193.42,461.43a8.62,8.62,0,0,1-5.72-2.06l.68-.73a7.79,7.79,0,0,0,5.66,1.76l.09,1C1193.9,461.42,1193.67,461.43,1193.42,461.43Z" transform="translate(-972.75 -418.59)"/><path class="cls-7" d="M1192.32,451.79c0,.66-.3,1.21-.68,1.21s-.7-.53-.7-1.2.29-1.2.67-1.21S1192.31,451.12,1192.32,451.79Z" transform="translate(-972.75 -418.59)"/><path class="cls-7" d="M1191,448.8a4,4,0,0,1,.46-.14c.66-.17,1.36-.19,2-.32a2.6,2.6,0,0,0,1.36-.57,1,1,0,0,0,.16-1.33,1.28,1.28,0,0,0-1-.33,6.72,6.72,0,0,0-4,1.26c-.67.49-1.72,1.38-1.78,2.26a.32.32,0,0,0,.09.27.36.36,0,0,0,.25,0,4.21,4.21,0,0,0,1.3-.58A8.32,8.32,0,0,1,1191,448.8Z" transform="translate(-972.75 -418.59)"/><polygon class="cls-3" points="211.5 51.42 203.43 47.03 210.13 55.14 211.5 51.42"/><path class="cls-3" d="M1196.9,437.49a3.1,3.1,0,0,0-.54-.05c-.57,0-1.13.26-1.7.25-2.6,0-2.71-3.49-4.37-4.81a6,6,0,0,0-4.43-1.23c-.29,0-.56.12-.85.17a8.06,8.06,0,0,1-3,.2,14.39,14.39,0,0,1-2.42-1,7.38,7.38,0,0,0-5.77.26,11.12,11.12,0,0,0-2.72,1.81c-.69.61-1.27,1.58-2.09,1.95-1.76.8-4-.2-5.57,1.09-1.08.85-1.52,2.7-1.94,3.93-.59,1.69.26,3.45-.32,5a4.82,4.82,0,0,1-1.31,1.51,5.8,5.8,0,0,0-1.77,4.23c0,2.12,1.3,3.32,2.52,4.87s3.41,2.13,4.39,3.8.44,3.83,1.45,5.45a4.5,4.5,0,0,0,4.51,1.72,9.52,9.52,0,0,0,4.47-2.34,7.37,7.37,0,0,0,1.85-2.13c.73-1.42.61-3.08.66-4.67s.39-3.33,1.69-4.28,3.2-.77,4.64-1.56c2.19-1.2,2.26-3.68,2.44-5.82.12-1.47,1-4.91,3.21-2.83.31.28.51.67.82.94a3,3,0,0,0,1.08.54,7.33,7.33,0,0,0,2.7.45,4.94,4.94,0,0,0,4.15-2.25,4.26,4.26,0,0,0,.61-2.27A2.82,2.82,0,0,0,1196.9,437.49Z" transform="translate(-972.75 -418.59)"/><ellipse class="cls-4" cx="205.28" cy="34.68" rx="6.54" ry="6.37"/><path class="cls-3" d="M1173.07,453.75a4.74,4.74,0,0,1,1.07-3.52,5,5,0,0,1,8.85,2.55l-1,.11a4,4,0,0,0-7.09-2,3.77,3.77,0,0,0-.85,2.79Z" transform="translate(-972.75 -418.59)"/><rect class="cls-3" x="1178.96" y="448.96" width="1" height="6.04" transform="translate(-1028.5 -230.55) rotate(-8.91)"/><path class="cls-4" d="M1127,609.29c1.13-3.28,2.32-6.6,2.5-10.06.28-5.29-1.82-10.47-1.69-15.77.12-5.13,2.35-10,5.4-14.22a67.38,67.38,0,0,1,8.33-9c2.75-2.6,4.32-5.69,6.47-8.78s4.49-6.38,7.89-8.22c3.25-1.76,7.1-2,10.81-2.24a40.67,40.67,0,0,1,7.32,0,14.26,14.26,0,0,1,5.12,1.53c9.38,5.08,6.47,17.58,5.24,25.82a208.56,208.56,0,0,1-4.67,22.94c-1.75,6.63-5.16,12.27-7.43,18.76a352.21,352.21,0,0,1-18.49,43.34l-9.29,15.1-35.17-8.09Z" transform="translate(-972.75 -418.59)"/><path class="cls-4" d="M1255.13,624.93l-17.53-17.88c-10.15-10.54-21.27-20.16-32.14-30-4.82-4.36-10.1-8.47-14.45-13.26-3.54-3.9-6.58-7-11.77-8.92-8.1-2.94-17.29-.58-23.72,4.79s-6,14.92-3,22.34c2.8,6.86,7.71,12.54,13.21,17.72,2.64,2.48,5.42,4.85,8.16,7.17,4,3.39,8.1,7.13,12.34,11l31.15,22-11.69,25.84-21.47,38.7L1178.31,715l-10.39,11.17a5.71,5.71,0,0,0-.87,3.66,5.82,5.82,0,0,0,2.71,4.34l6.62,4.19a8.58,8.58,0,0,0,4.65,1.41c1.69,0,3.52,1.87,6.45,5a32.68,32.68,0,0,0,6.9,5.53L1220.5,766c.94-1.45.74-1.91.58-3.53s-10.8-12.92-10.8-12.92l-12.86-24,6.43-7.82,31.94-38.9,20.88-26.61A20.65,20.65,0,0,0,1255.13,624.93Z" transform="translate(-972.75 -418.59)"/><path class="cls-5" d="M1147.39,479.59c-1.4.55-1.47.77-1.73,1.54-4.71,13.9-1.69,32.37.86,46.68a32.43,32.43,0,0,1,.81,9.29c-.9,8.07-8.43,13.28-12.43,20a58.69,58.69,0,0,0-8,23.9c-.42,4.07-.41,8.22-1.38,12.2-1.9,7.75-7.32,14.19-10.4,21.56s-3.79,15.75-4.39,23.84a111.37,111.37,0,0,0,44.86,9.79c5.77.05,11.67-.38,16.94-2.66,9.59-4.16,15.66-13.74,25-18.46,7.19-3.65,15.6-4,23.44-6s15.81-6.81,19.3-14.14a1.89,1.89,0,0,0,.24-1.22,2.15,2.15,0,0,0-.8-1c-9.06-7.65-18.16-15.28-26.83-23.27q-6.37-5.88-13-11.53c-3.49-3-7.72-5.23-10.38-9.07-2-2.88-4-7-2.59-10.47a59,59,0,0,0,3.1-9c1.33-5.4,2.43-10.84,3.69-16.25,1.49-6.42,5-10,5.92-14.34.64-2.85.18-6-2.66-10.44a89.51,89.51,0,0,1-7.81-14.44,18.74,18.74,0,0,1-1.17-3.13,15.32,15.32,0,0,0-.53-2.3,6.6,6.6,0,0,0-3.08-3.8,15.77,15.77,0,0,0-9.58-1.54C1165.12,476,1154.23,474.92,1147.39,479.59Z" transform="translate(-972.75 -418.59)"/><path class="cls-4" d="M1242.44,508.54a12.44,12.44,0,0,0,4.27-3.73c1-1.62,1-3.95-.44-5.18a6.7,6.7,0,0,1-1-.8c-.53-.68-.39-1.63-.56-2.46a3.32,3.32,0,0,0-1.62-2.18,7.91,7.91,0,0,1-1.52-.82,6.07,6.07,0,0,1-1-1.83,4.49,4.49,0,0,0-4.33-2.37c-.52-1.67-2-3.5-4-3.28a7.32,7.32,0,0,0-3.53,1.8c-5.74,4.5-13.72,10.38-15.64,17.67-1.53,5.79,3.11,8.76,7.84,11C1228.9,520.07,1236.11,512.58,1242.44,508.54Z" transform="translate(-972.75 -418.59)"/><path class="cls-4" d="M1226.47,516.1c-6,6.26-14.87,16.54-21.72,22q-5.46,4.33-11.24,8.25c-4.3,2.91-9.07,5.74-14.29,5.65a10.61,10.61,0,0,1-9.91-7.12c-1.59-4.42,1-7.52,4.19-10.67,5.09-5.05,11-9.17,17-13.26l10.56-7.3c2.24-1.55,10.36-8.57,14.32-11.44Z" transform="translate(-972.75 -418.59)"/><rect class="cls-3" x="1217.24" y="637.74" width="19.02" height="1" transform="translate(-1062.89 -202.32) rotate(-9.72)"/><path class="cls-5" d="M1165.07,481.6a16.18,16.18,0,0,0-1,1.63c-2.33,4.23.22,7.59-1.08,11.83-.88,2.9-3.78,4.73-5.36,7.33a8.94,8.94,0,0,0-.79,7.46c1.07,3.09,3.84,5.59,4.13,8.84.28,3.09-1.63,4.58-2.77,7.09-1.27,2.82-1.89,6.61-.3,9.42,1,1.81,2.89,3.14,3.58,5.09s0,4.31,0,6.48a9.88,9.88,0,0,0,9.46,9.29c2.57.05,5.78-1.31,8.25-.28,2.29,1,4,2.92,6.64,3.41a8.06,8.06,0,0,0,6.78-2.36,22.13,22.13,0,0,0,4.1-6.05,12.1,12.1,0,0,1,2.7-3.87c2.72-2.28,7-1.88,9.83-4,3.55-2.67,6.35-12,6-12.56q-5-6.95-9.89-13.88c-1-1.4-2-3.44-3.28-4.6a4,4,0,0,0-3.12-.93c-1.63.23-5.59,2.76-6.11,4.35a108,108,0,0,0,3-11.46c.39-1.87,1.13-3.43.83-5.37a67.27,67.27,0,0,0-2.55-11.08c-2.59-7.38-12.33-12.76-20.25-11.3A14.06,14.06,0,0,0,1165.07,481.6Z" transform="translate(-972.75 -418.59)"/><path class="cls-3" d="M1193.24,515.42l-1-.3a112.71,112.71,0,0,0,3-11.41c.11-.53.25-1,.38-1.52a8.3,8.3,0,0,0,.44-3.67l1-.16a9.51,9.51,0,0,1-.46,4.1c-.13.47-.26,1-.37,1.45-.64,3.06-1.41,6.11-2.3,9.11a12.09,12.09,0,0,1,4.82-2.59,4.41,4.41,0,0,1,3.51,1.05l-.66.75a3.5,3.5,0,0,0-2.72-.81c-1.55.21-5.27,2.67-5.7,4Z" transform="translate(-972.75 -418.59)"/><path class="cls-3" d="M1185.7,559.68a11.65,11.65,0,0,1-4.23-2,15.54,15.54,0,0,0-2.52-1.44c-1.43-.6-3.23-.3-5,0a17.35,17.35,0,0,1-3.08.33c-5.25-.1-9.9-4.67-10-9.78a19.79,19.79,0,0,1,.16-2.32,9.06,9.06,0,0,0-.14-4,9.33,9.33,0,0,0-1.89-2.81,13.73,13.73,0,0,1-1.65-2.2c-1.72-3-1-7.09.28-9.87a16.27,16.27,0,0,1,1.21-2.16c.91-1.45,1.69-2.71,1.51-4.69a11.73,11.73,0,0,0-2.16-5,18.82,18.82,0,0,1-2-3.72,9.45,9.45,0,0,1,.84-7.88,19.76,19.76,0,0,1,2.41-3,11.74,11.74,0,0,0,2.91-4.23,12.29,12.29,0,0,0,.2-5.07c-.23-2.14-.46-4.36.91-6.86a15.7,15.7,0,0,1,1.09-1.69l.8.59a15.61,15.61,0,0,0-1,1.58c-1.23,2.22-1,4.19-.8,6.28a12.93,12.93,0,0,1-.24,5.46,12.43,12.43,0,0,1-3.13,4.62,18.4,18.4,0,0,0-2.28,2.82,8.42,8.42,0,0,0-.75,7,18.17,18.17,0,0,0,1.85,3.51,12.65,12.65,0,0,1,2.31,5.44c.21,2.32-.7,3.77-1.66,5.31a16.62,16.62,0,0,0-1.15,2c-1.16,2.56-1.85,6.26-.32,9a12.63,12.63,0,0,0,1.54,2,7.69,7.69,0,0,1,2.27,7.57,20.53,20.53,0,0,0-.16,2.2c.06,4.52,4.33,8.71,9,8.79a15.67,15.67,0,0,0,2.91-.32c1.88-.31,3.82-.63,5.52.08a16.29,16.29,0,0,1,2.68,1.52,10.67,10.67,0,0,0,3.87,1.86Z" transform="translate(-972.75 -418.59)"/><rect class="cls-3" x="1216.44" y="492.64" width="11.84" height="1" transform="translate(-991.01 519.78) rotate(-41.71)"/><polygon class="cls-3" points="241 344.6 248.67 338.23 233.85 319.84 223.35 334.82 241 344.6"/><path class="cls-4" d="M1144.38,762.52c-.9-1.29-15.75-6.1-15.75-6.1l-22.88-14.75,6.46-12.58h0l32.34-60.56-35.17-8.09c-9.3,16-10.7,34.49-19,62.32l.09,0-7.12,20.66-3.21,12.94a5.66,5.66,0,0,0,1,3.62,5.83,5.83,0,0,0,4.49,2.49l7.83.48a8.64,8.64,0,0,0,4.76-1c1.47-.83,4-.06,8,1.22a33.67,33.67,0,0,0,8.74,1.52l30.54,1.17C1145.71,764.17,1145.31,763.86,1144.38,762.52Z" transform="translate(-972.75 -418.59)"/><polygon class="cls-3" points="165.56 348.08 169.18 338.82 147.24 329.88 145.34 348.02 165.56 348.08"/><rect class="cls-3" x="1142.36" y="496.68" width="1" height="19.36" transform="translate(-1038.38 -231.72) rotate(-9.09)"/><path class="cls-3" d="M1164.45,444.65a5.92,5.92,0,0,0-4.59-5.86,7.67,7.67,0,0,0-7.27,2.57c-1.48,1.71-2.31,4-4.06,5.39-2.74,2.22-6.83,1.65-10,.19s-6.09-3.69-9.49-4.62a13.64,13.64,0,0,0-13.5,4v17.88c3.67,0,7.91.54,10.89,2.67,2.23,1.6,4.08,4,6.76,4.59,3.79.87,7.43-2.23,9.15-5.71,1.06-2.16,1.86-4.74,4-5.81,3-1.52,6.8.95,10-.12,2.51-.83,3.84-3.49,4.91-5.9S1164.25,447.41,1164.45,444.65Z" transform="translate(-972.75 -418.59)"/><path class="cls-3" d="M1164.82,731.09h0a3.76,3.76,0,0,0,1.12,5.41L1215.25,767a4,4,0,0,0,5.19-.88l.06-.08Z" transform="translate(-972.75 -418.59)"/><path class="cls-3" d="M1079.83,762.15h0a3.78,3.78,0,0,0,3.61,4.2l58,2.91a4,4,0,0,0,4.12-3.27l0-.1Z" transform="translate(-972.75 -418.59)"/><path class="cls-2" d="M983.25,626.32l2.37,2.82,18.81,22.36a18.89,18.89,0,0,1-3.8-12.86,17.77,17.77,0,0,1,.27-2c1.11-5.89,4.6-11.12,8.69-15.58,9.63-10.51,22.76-17.53,36.46-22,16.42-5.41,33.71-7.68,50.83-9.73,40.65-4.86,81.59-8.52,122.59-7.46,30.2.78,60.53,4.12,90.52.54,10.39-1.24,21.32-3.63,28.72-10.84,9.64-9.38,10.48-25.27,4-36.93a38.44,38.44,0,0,0-3.56-5.28c-.38-.47-.77-.92-1.16-1.37a48,48,0,0,0-13.24-10.37c2.51,10.15.35,21.45-7.18,28.77s-18.33,9.6-28.72,10.84c-30,3.59-60.32.25-90.52-.54-41-1.06-81.94,2.6-122.59,7.46-17.12,2-34.41,4.32-50.82,9.73-13.71,4.51-26.83,11.53-36.46,22-4.09,4.47-7.58,9.69-8.69,15.58A18.71,18.71,0,0,0,983.25,626.32Z" transform="translate(-972.75 -418.59)"/><polygon class="cls-2" points="313.12 41.04 318.77 51.94 323.47 24.8 280.63 14.18 287.73 20.09 313.12 41.04"/><path class="cls-2" d="M1276.55,633.52a31.28,31.28,0,0,0-12.68-7,17.42,17.42,0,0,1-1,5c-2.25,6.1-7.59,10.6-13,14.36-25.89,17.94-57.64,25.39-87.95,34.67s-61.44,21.79-80.91,46.25c-6,7.52-10.77,16.21-12.24,25.63a52.24,52.24,0,0,0,.27,15.34h24.79c2.2-4.71,5.1-11.7,8.36-15.8,19.46-24.45,50.59-37,80.91-46.25s62-16.72,88-34.66c5.42-3.76,10.76-8.26,13-14.36C1287.05,648.38,1283.26,639.62,1276.55,633.52Z" transform="translate(-972.75 -418.59)"/><path class="cls-2" d="M981.77,522.73l1,5.4a.74.74,0,0,0,.58.59l5.41,1a.73.73,0,0,1,0,1.43l-5.41,1a.74.74,0,0,0-.58.59l-1,5.4a.73.73,0,0,1-1.43,0l-1-5.4a.72.72,0,0,0-.58-.59l-5.41-1a.73.73,0,0,1,0-1.43l5.41-1a.72.72,0,0,0,.58-.59l1-5.4A.73.73,0,0,1,981.77,522.73Z" transform="translate(-972.75 -418.59)"/><ellipse class="cls-4" cx="60.43" cy="139.53" rx="2.97" ry="2.96"/><ellipse class="cls-8" cx="75.67" cy="286.87" rx="3.32" ry="3.31"/><path class="cls-1" d="M1274.37,708.85l1.88,10.24a1.41,1.41,0,0,0,1.11,1.11l10.25,1.88a1.38,1.38,0,0,1,0,2.71l-10.25,1.88a1.41,1.41,0,0,0-1.11,1.11L1274.37,738a1.38,1.38,0,0,1-2.72,0l-1.89-10.24a1.38,1.38,0,0,0-1.11-1.11l-10.25-1.88a1.38,1.38,0,0,1,0-2.71l10.25-1.88a1.38,1.38,0,0,0,1.11-1.11l1.89-10.24A1.38,1.38,0,0,1,1274.37,708.85Z" transform="translate(-972.75 -418.59)"/></svg>