<svg id="Layer_1" data-name="Layer 1" xmlns="http://www.w3.org/2000/svg" viewBox="0 0 433.39 370.38"><defs><style>.cls-1{fill:#dbe6f2;}.cls-2{fill:#fff;}.cls-3{fill:#ace2ff;}.cls-4{fill:#383838;}.cls-5{fill:#4978de;}.cls-6{fill:#b7b7b7;}.cls-7{fill:#f7a88f;}.cls-8{fill:#ccc;}</style></defs><title>img_10</title><path class="cls-1" d="M1533.7,595.52a644.06,644.06,0,0,1-57.18,52.71c-34.41,28.09-75.49,53.95-121.89,53.12-21.67-.39-46.18-9.27-53.52-28.44-4.07-10.64-3-24.22-12.94-30.85-5.6-3.76-13-3.83-19.77-3.74l-43.52.56c-13.36.17-26.94.32-39.93-3s-25.53-10.69-31.64-21.93c-12.56-23.12,4-52.48,18.21-70.67a1028.8,1028.8,0,0,1,68.24-77.82c25.47-26.43,54.69-50.28,89-63.23,16.72-6.3,37.84-9,50.51,3.56,7.66,7.61,10.11,18.91,15.65,28.18,13.07,21.88,41.66,29.49,67.08,27.75,29.59-2,55.62-12.31,84.67,1.48,18.85,9,34,27.28,35.4,48.11C1584.51,546.05,1555.7,572.62,1533.7,595.52Z" transform="translate(-1148.85 -363.17)"/><path class="cls-2" d="M1286.22,550a11.37,11.37,0,0,1,0,12h33.37a11.37,11.37,0,0,0,0-12Z" transform="translate(-1148.85 -363.17)"/><rect class="cls-2" x="71.14" y="78.8" width="159.81" height="108.05" rx="6.39"/><rect class="cls-3" x="74.35" y="82.84" width="153.36" height="99.97" rx="6.02"/><circle class="cls-2" cx="151.03" cy="132.83" r="37.03"/><polygon class="cls-4" points="65.43 198.9 254.38 198.9 254.38 206 66.19 206 65.43 198.9"/><polygon class="cls-5" points="170.96 97.49 150.53 143 139.42 123.38 127.45 123.38 146.54 157.09 155.82 156.65 182.38 97.49 170.96 97.49"/><path class="cls-4" d="M1311.31,728a.32.32,0,0,1-.13,0,.5.5,0,0,1-.35-.61L1353.33,569a.5.5,0,0,1,.5-.37.48.48,0,0,1,.47.4l31.89,158.33a.5.5,0,0,1-.39.59.49.49,0,0,1-.59-.39l-31.47-156.25L1311.8,727.63A.5.5,0,0,1,1311.31,728Z" transform="translate(-1148.85 -363.17)"/><path class="cls-2" d="M1467.4,447.45l-30.94-56.09c-.85-5.46-1.06-27-7.88-28.15a3.68,3.68,0,0,0-3.9,2.15,4.13,4.13,0,0,0-7.11,2.21,3.78,3.78,0,0,0-3.8-.77,3.82,3.82,0,0,0-2.42,3,2.48,2.48,0,0,0-3-1.14c-3.88,1.55,3.45,19.66,4.68,22.9a14.75,14.75,0,0,0,3.44,5.87l26.3,69.23Z" transform="translate(-1148.85 -363.17)"/><path class="cls-2" d="M1409.21,386.68a13.81,13.81,0,0,0,4.58,4.41c.68-.14.7-1.09.55-1.76-1.06-4.82-2.3-10.29-4.73-14.61C1406.56,376.46,1407.71,384.1,1409.21,386.68Z" transform="translate(-1148.85 -363.17)"/><path class="cls-5" d="M1494.86,517.18c-1.45-16.27-17.37-52.85-30.25-85.17l-32.1,13.85L1455,510.8Z" transform="translate(-1148.85 -363.17)"/><polygon class="cls-2" points="263.64 314.96 269.21 334.4 297.88 332.94 292.85 312.44 263.64 314.96"/><polygon class="cls-4" points="203.81 202.28 253.18 317.98 304.93 317.98 271.73 238.59 203.81 202.28"/><path class="cls-6" d="M1452.68,701.79l-4.53-9.73c-1.38-2.95-3.06-6.18-6.14-7.22-2.86-1-6.14.41-8.09,2.71a15.82,15.82,0,0,0-3.16,8.36,43.87,43.87,0,0,0-17.55-7.95,2.54,2.54,0,0,0-2,.17,1.83,1.83,0,0,0-.63,1c-.54,2,1,3.89,2.35,5.41l-12.07,9.73c-30.78-1.49-34,6.27-31.11,16.11h88C1462.72,713.84,1458.55,707.67,1452.68,701.79Z" transform="translate(-1148.85 -363.17)"/><path class="cls-4" d="M1369.77,720.39l-.11.08a5.65,5.65,0,0,0,3.51,10.09h81.23a5.66,5.66,0,0,0,3.56-10l-.16-.12Z" transform="translate(-1148.85 -363.17)"/><path class="cls-2" d="M1401.76,664.28a2.44,2.44,0,0,1-2-1l-19-25.48a2.47,2.47,0,0,1,4-2.95l19,25.48a2.48,2.48,0,0,1-2,3.95Z" transform="translate(-1148.85 -363.17)"/><path class="cls-4" d="M1428.45,610.7l-75.79-45.25c-4.07-28.08,12.22-39.5,42.26-30.78,29.57,14.1,70.33,32.08,88.9,44.45Z" transform="translate(-1148.85 -363.17)"/><path class="cls-2" d="M1423,609.9a2.5,2.5,0,0,1-1.26-.35l-30.55-18.24a2.48,2.48,0,0,1,2.54-4.26l30.55,18.24a2.48,2.48,0,0,1-1.28,4.61Z" transform="translate(-1148.85 -363.17)"/><path class="cls-4" d="M1513.08,461.09c-13.12-.23-27.39-.09-37.7,8-3.74,2.95-6.69,6.76-9.76,10.41A160,160,0,0,1,1450,495.58l-3.21-11.28a158.76,158.76,0,0,0,15.6-16.06c3.08-3.65,6-7.47,9.77-10.41,10.31-8.11,24.58-8.25,37.69-8l10.17,4.84Z" transform="translate(-1148.85 -363.17)"/><path class="cls-2" d="M1456.55,486.94c-2.66-3.69-5.12-9.12-7.49-15.35,3.26-3.16,6.15-7.33,6.62-11.93.49-4.75-1.27-9.52-4-13.36a15.49,15.49,0,0,0-5.52-5,19.84,19.84,0,0,0-4.24-1.45,28.61,28.61,0,0,0-10-.91c-9.8,1.09-15.78,10.18-16.46,19.45-.16,2.28-.11,1.16-.23,3.43A4.72,4.72,0,0,1,1414,465c-5.48,4.9,1.15,4.66,1.15,4.66a79.2,79.2,0,0,0,1.65,8.61c.6,2.39,1.51,5,3.69,6.16a5.94,5.94,0,0,0,4.21.38,30.35,30.35,0,0,0,4.57-1.55A55,55,0,0,0,1434,495Z" transform="translate(-1148.85 -363.17)"/><path class="cls-4" d="M1418.63,463c0,.66-.33,1.2-.73,1.2s-.74-.54-.74-1.2.33-1.2.74-1.2S1418.63,462.32,1418.63,463Z" transform="translate(-1148.85 -363.17)"/><path class="cls-4" d="M1415.81,459.8a1.92,1.92,0,0,0,1.44.33,12.16,12.16,0,0,0,3-.56,3.29,3.29,0,0,0,1.41-.77,1,1,0,0,0,.13-1.3,1.63,1.63,0,0,0-.73-.33,12.12,12.12,0,0,0-1.82-.3,5.28,5.28,0,0,0-2.2.17C1415.82,457.45,1414.9,458.89,1415.81,459.8Z" transform="translate(-1148.85 -363.17)"/><path class="cls-4" d="M1426.47,463.47a2.91,2.91,0,0,1-2.82-2.21c-.42-1.4,0-2.89.07-4.32.11-1.72.24-3.45.36-5.18a32.85,32.85,0,0,1-6.7.63,10.88,10.88,0,0,1-3.64-.52,2.68,2.68,0,0,1-1.16-.72,1.27,1.27,0,0,1-.27-1.28,1.82,1.82,0,0,1,.51-.63,12.1,12.1,0,0,1,2.25-1.57c-.89.18-2.06.24-2.45-.58s.27-1.59.92-2.1a14.69,14.69,0,0,1,2.68-1.64,74.36,74.36,0,0,1,16.06-5.77c5.21-1.25,12.84-1.81,16.55,2.88a2.63,2.63,0,0,0,.72.73,2.85,2.85,0,0,0,.71.25c5,1.33,7.34,7.79,7.49,12.42.2,6.29-3.13,11.22-5.78,16.58a15.47,15.47,0,0,0-1.39,3.56l1.42,4.73a6.83,6.83,0,0,1-4.65-4.36c-3.46.43-6.61.26-7.58-4.06Z" transform="translate(-1148.85 -363.17)"/><path class="cls-2" d="M1395.74,459.57l-39.88-50.12c-1.74-5.25-5.54-26.42-12.47-26.44a3.67,3.67,0,0,0-3.49,2.77,4.12,4.12,0,0,0-6.63,3.36,3.73,3.73,0,0,0-5.76,3.28,2.49,2.49,0,0,0-3.18-.62c-3.57,2.18,6.69,18.81,8.44,21.8a14.83,14.83,0,0,0,4.38,5.21l37.5,63.86Z" transform="translate(-1148.85 -363.17)"/><path class="cls-2" d="M1328.89,409.61a1.77,1.77,0,0,0,1.11.11c.92-.26,1.11-1.48,1-2.44-.4-4.56-3.14-9.26-5.85-12.86-.34-.45-1-.92-1.38-.52a1,1,0,0,0-.2.7C1323.49,399.11,1323.5,407.58,1328.89,409.61Z" transform="translate(-1148.85 -363.17)"/><path class="cls-2" d="M1346.39,388.69c-2.48,2.06,3.56,13.79,4.4,15.8.31.72.85,1.58,1.62,1.42.59-.12.86-.78,1-1.36,1.5-5.45,1.76-10.72-2.9-14.59a5,5,0,0,0-3.27-1.58A1.41,1.41,0,0,0,1346.39,388.69Z" transform="translate(-1148.85 -363.17)"/><path class="cls-4" d="M1483.82,626c41.38-4.78,35.76-30.83,21.21-61.66l-62.73,18.83Z" transform="translate(-1148.85 -363.17)"/><path class="cls-5" d="M1478.06,476.23l-6.51,1.76a13.86,13.86,0,0,0-3.09.56L1413,495h0a20.5,20.5,0,0,0-2.8.83l-.6.18,0,.05c2.2,17.59,3.61,36.46,10.2,46.87l9.32,29.84a82.55,82.55,0,0,1,13.17,10.44l1.13,1.17,66.15,2.27c-3.5-12.18-4.09-41.18-12.37-63Z" transform="translate(-1148.85 -363.17)"/><polygon class="cls-5" points="279.42 127.04 247.13 87.95 217.13 111.99 270.95 172.96 279.42 127.04"/><circle class="cls-7" cx="286.17" cy="99.09" r="9.34"/><circle class="cls-2" cx="286.17" cy="99.09" r="9.34"/><path class="cls-4" d="M1441.78,462.76a.5.5,0,0,1-.5-.5,6.26,6.26,0,1,0-12.51,0,.5.5,0,0,1-.5.5.51.51,0,0,1-.5-.5,7.26,7.26,0,1,1,14.51,0A.51.51,0,0,1,1441.78,462.76Z" transform="translate(-1148.85 -363.17)"/><polygon class="cls-4" points="333.02 215.29 363.69 219.5 360.45 210.84 333.02 215.29"/><polygon class="cls-4" points="280.27 119.78 287.05 116.42 281.34 123.14 280.27 119.78"/><path class="cls-4" d="M1430.62,466.1a.5.5,0,0,1-.5-.5v-8.46a.5.5,0,1,1,1,0v8.46A.5.5,0,0,1,1430.62,466.1Z" transform="translate(-1148.85 -363.17)"/><path class="cls-2" d="M1483.82,628.52a2.48,2.48,0,0,1-1.79-4.19l7.63-8a2.48,2.48,0,1,1,3.58,3.43l-7.63,8A2.46,2.46,0,0,1,1483.82,628.52Z" transform="translate(-1148.85 -363.17)"/><path class="cls-4" d="M1325.86,719.89l-.11.09c-4.22,3.6-1.84,11,3.51,11h81.23c5.32,0,7.71-7.32,3.56-11l-.15-.13Z" transform="translate(-1148.85 -363.17)"/><polygon class="cls-2" points="219.73 312.65 225.3 333.88 253.97 332.28 248.94 309.89 219.73 312.65"/><polygon class="cls-4" points="159.9 199.74 209.27 315.44 261.02 315.44 227.83 236.05 159.9 199.74"/><path class="cls-8" d="M1408.77,701.65,1404.24,691c-1.37-3.22-3-6.75-6.14-7.89-2.86-1-6.14.45-8.09,3s-2.78,5.85-3.16,9.12a42.07,42.07,0,0,0-17.55-8.67,2.31,2.31,0,0,0-2,.18,2,2,0,0,0-.62,1.1c-.54,2.17,1,4.25,2.34,5.9L1357,704.37c-30.78-1.63-34,6.84-31.11,17.58h88C1418.81,714.8,1414.65,708.06,1408.77,701.65Z" transform="translate(-1148.85 -363.17)"/><path class="cls-8" d="M1414.31,722.23l-.83-.56c4.88-7.1.44-13.65-5.08-19.68l.74-.68C1414.66,707.34,1419.59,714.54,1414.31,722.23Z" transform="translate(-1148.85 -363.17)"/><rect class="cls-8" x="1347.87" y="630.65" width="1" height="31.75" transform="matrix(0.8, -0.6, 0.6, 0.8, -1268.25, 569.29)"/><path class="cls-4" d="M1483.82,626c-18.07,13.81-49.59,9.91-99.28-17.88l-75.78-45.26c-4.08-28.07,12.21-39.49,42.25-30.77,29.57,14.1,59.55,28.26,78.12,40.63,5.48,3.65,32.63,16.84,32.63,16.84Z" transform="translate(-1148.85 -363.17)"/><rect class="cls-8" x="1394.31" y="515.92" width="1" height="77.56" transform="translate(-894.34 1167.7) rotate(-62.25)"/><path class="cls-8" d="M1409.41,678.8,1378,603.67l6.8,4.06c15.8,8.84,30.2,15.47,42.77,19.7l-.32,1c-12.63-4.25-27.08-10.91-43-19.78l-4.2-2.52,30.23,72.34Z" transform="translate(-1148.85 -363.17)"/><rect class="cls-8" x="1363.28" y="577.97" width="1" height="35.57" transform="translate(-995.76 1098.08) rotate(-59.16)"/><polygon class="cls-5" points="278.56 123.14 307.69 114.52 308.9 118.55 280.27 127.04 278.56 123.14"/><path class="cls-4" d="M1419.54,474.88a3.69,3.69,0,0,1-.78-.08,3.32,3.32,0,0,1-1.57-.73,1.51,1.51,0,0,1-.58-1.24,1.82,1.82,0,0,1,.9-1.37,22.25,22.25,0,0,1,2.84-1.74l.18-.1a2.77,2.77,0,0,1,.94-.33,1.2,1.2,0,0,1,1.12.42,1.45,1.45,0,0,1,.28.74l0,.34a4.42,4.42,0,0,1-.53,2.3,3.34,3.34,0,0,1-2.52,1.78Zm2.1-4.85h-.08a2.21,2.21,0,0,0-.68.26l-.18.09a22.9,22.9,0,0,0-2.76,1.69,1.16,1.16,0,0,0-.58.8.83.83,0,0,0,.33.64,2.67,2.67,0,0,0,1.21.56,3,3,0,0,0,.88.05,2.57,2.57,0,0,0,1.92-1.38h0a3.66,3.66,0,0,0,.45-1.91,2.4,2.4,0,0,0,0-.28.8.8,0,0,0-.11-.38A.5.5,0,0,0,1421.64,470Z" transform="translate(-1148.85 -363.17)"/><path class="cls-4" d="M1422,472.92a2.91,2.91,0,0,1-2.21,1.57,3,3,0,0,1-1-.06,2.85,2.85,0,0,1-1.39-.64l5.08-3A4,4,0,0,1,1422,472.92Z" transform="translate(-1148.85 -363.17)"/><path class="cls-4" d="M1474.3,718.58a.5.5,0,0,1-.5-.5V657a.5.5,0,0,1,.5-.5.5.5,0,0,1,.5.5v61.07A.51.51,0,0,1,1474.3,718.58Z" transform="translate(-1148.85 -363.17)"/><path class="cls-4" d="M1505.49,718.58h-61a.5.5,0,0,1-.5-.5.5.5,0,0,1,.5-.5h61a.5.5,0,0,1,.5.5A.5.5,0,0,1,1505.49,718.58Z" transform="translate(-1148.85 -363.17)"/><path class="cls-4" d="M1445,733.55a8,8,0,1,1,7.91-8A8,8,0,0,1,1445,733.55Zm0-15a7,7,0,1,0,6.91,7A7,7,0,0,0,1445,718.58Z" transform="translate(-1148.85 -363.17)"/><path class="cls-4" d="M1474.3,733.55a8,8,0,1,1,7.91-8A8,8,0,0,1,1474.3,733.55Zm0-15a7,7,0,1,0,6.91,7A7,7,0,0,0,1474.3,718.58Z" transform="translate(-1148.85 -363.17)"/><path class="cls-4" d="M1505.49,733.55a8,8,0,1,1,7.91-8A8,8,0,0,1,1505.49,733.55Zm0-15a7,7,0,1,0,6.91,7A7,7,0,0,0,1505.49,718.58Z" transform="translate(-1148.85 -363.17)"/><path class="cls-8" d="M1529.41,550.22h-50.86a9.07,9.07,0,0,0-8.77,6.77L1450,632.69c-6.88.44-13.38,1.81-17.94,5.21a15.57,15.57,0,0,0-6.17,10.57c-.46,3.07.94,16.64,5.79,16.64h81.22c3.38,0,5.57-8.38,5.67-17.16l19.68-86.66A9.06,9.06,0,0,0,1529.41,550.22Z" transform="translate(-1148.85 -363.17)"/><path class="cls-4" d="M1188.47,728a.32.32,0,0,1-.13,0,.5.5,0,0,1-.35-.61L1230.49,569a.5.5,0,0,1,.5-.37.48.48,0,0,1,.47.4l31.89,158.33a.5.5,0,0,1-.39.59.49.49,0,0,1-.59-.39L1230.9,571.35,1189,727.63A.51.51,0,0,1,1188.47,728Z" transform="translate(-1148.85 -363.17)"/><path class="cls-4" d="M1330,410.22a.5.5,0,0,1-.46-.29l-5-10.77a.51.51,0,0,1,.25-.66.49.49,0,0,1,.66.24l5,10.77a.5.5,0,0,1-.24.67A.52.52,0,0,1,1330,410.22Z" transform="translate(-1148.85 -363.17)"/><path class="cls-4" d="M1419.81,536.63a.52.52,0,0,1-.38-.17l-8-9.08a.5.5,0,0,1,0-.71.51.51,0,0,1,.71.05l8,9.08a.5.5,0,0,1,0,.71A.54.54,0,0,1,1419.81,536.63Z" transform="translate(-1148.85 -363.17)"/><path class="cls-4" d="M1429.13,490.71a.5.5,0,0,1-.15-1l28.64-8.49a.5.5,0,0,1,.62.34.51.51,0,0,1-.34.62l-28.63,8.49Z" transform="translate(-1148.85 -363.17)"/><path class="cls-4" d="M1517.66,657.51h-91.08a.5.5,0,0,1,0-1h91.08a.5.5,0,0,1,0,1Z" transform="translate(-1148.85 -363.17)"/></svg>