<svg id="Layer_1" data-name="Layer 1" xmlns="http://www.w3.org/2000/svg" viewBox="0 0 450 326.39"><defs><style>.cls-1{fill:#fce7e0;}.cls-2{fill:#fff;}.cls-3{fill:#4978de;}.cls-4{fill:#383838;}.cls-5{fill:#f9e3dc;}.cls-6{fill:#456cd1;}.cls-7{fill:#9b9fa5;}.cls-8{fill:#3656b3;}.cls-9{fill:#fbfadc;}.cls-10{fill:#ccc;}.cls-11{fill:#d2d2d2;}.cls-12{fill:#fbd1c2;}</style></defs><title>img_09</title><path class="cls-1" d="M1540.26,602.1a670.28,670.28,0,0,1-59.37,54.74c-35.74,29.16-78.39,56-126.56,55.15-22.5-.4-47.95-9.62-55.58-29.53-4.23-11.05-3.17-25.15-13.43-32-5.82-3.91-13.46-4-20.53-3.89l-45.19.58c-13.87.18-28,.34-41.46-3.13s-26.5-11.1-32.85-22.77c-13-24,4.1-54.49,18.91-73.38a1067.7,1067.7,0,0,1,70.85-80.8c26.45-27.44,56.78-52.2,92.44-65.65,17.36-6.55,39.29-9.39,52.45,3.69,8,7.91,10.49,19.64,16.24,29.27,13.58,22.71,43.26,30.61,69.66,28.81,30.72-2.1,57.75-12.79,87.91,1.54,19.58,9.29,35.27,28.32,36.76,49.94C1593,550.74,1563.1,578.33,1540.26,602.1Z" transform="translate(-1140.66 -385.62)"/><path class="cls-2" d="M1444.16,557.35a14.82,14.82,0,0,0-5,.87l-6.15-22.9h-27.16l-8.12,31.36a14.89,14.89,0,1,0,9.84,17c0,9.76,9.2,16.6,17.43,16.6a14.89,14.89,0,0,0,14.84-13.77,14.89,14.89,0,1,0,4.28-29.16Z" transform="translate(-1140.66 -385.62)"/><path class="cls-3" d="M1325.52,534.43s42.22,128.25-40.61,135.57c-95.33,8.42-53.16-113.7-53.16-113.7l13.68-33s-1.92,77,28.82,75.26,14.81-31.23,34.38-64.8Z" transform="translate(-1140.66 -385.62)"/><path class="cls-2" d="M1249.52,664.55a62.56,62.56,0,0,0,6.29,3.15c7.86,2.4,17.45,3.33,29.1,2.3,15.78-1.4,27-7.18,34.87-15.63C1290.07,634.89,1261.12,652.82,1249.52,664.55Z" transform="translate(-1140.66 -385.62)"/><path class="cls-4" d="M1263.23,496.92s20.35,26.9,1.49,35.48c-19.85,9-29.44-23.22-29.44-23.22Z" transform="translate(-1140.66 -385.62)"/><path class="cls-3" d="M1245.45,518.63s5.49-.34,6.81.88c19.35,18,32,38,35.49,52.9,3,13-3.67,33.11-4.17,57.88.42,16.55,6.62,38,6.62,38H1200S1168.11,533.06,1245.45,518.63Z" transform="translate(-1140.66 -385.62)"/><path class="cls-2" d="M1268.24,539.42c-.74-1.76-2.45-2.71-3.83-2.13s-1.89,2.47-1.15,4.23,2.46,2.71,3.83,2.13S1269,541.17,1268.24,539.42Z" transform="translate(-1140.66 -385.62)"/><path class="cls-2" d="M1279.1,560.67c-.74-1.75-2.45-2.71-3.83-2.13s-1.89,2.48-1.15,4.24,2.46,2.71,3.83,2.12S1279.85,562.43,1279.1,560.67Z" transform="translate(-1140.66 -385.62)"/><path class="cls-2" d="M1284.52,585.61c-.22-1.9-1.6-3.29-3.09-3.12s-2.51,1.85-2.28,3.75,1.6,3.28,3.08,3.11S1284.74,587.5,1284.52,585.61Z" transform="translate(-1140.66 -385.62)"/><path class="cls-2" d="M1257,501.48s-2.48,16.19.26,20.21-18.6,1-18.6,1l1.17-24.41Z" transform="translate(-1140.66 -385.62)"/><path class="cls-2" d="M1249.88,503.89l-1.75-11.6s-3.34-6.16-1.18-9.14c0,0,.29-9.8.29-9.81,7.74-2,14.8,1,17.32-3.59a17.06,17.06,0,0,1,.9,2,61.3,61.3,0,0,1,2.62,13c.87.18,4.31-.06,4.87.75s-4.43,4.46-4.43,4.46c0,.33,0,.66,0,1,.17,3.86.21,8.49-2,11.81C1263.92,509.21,1254.42,507.22,1249.88,503.89Z" transform="translate(-1140.66 -385.62)"/><path class="cls-5" d="M1234.75,479.83c1.48-2.78,4.41-2.81,6.85-2.22a17.11,17.11,0,0,0-.14,13C1236.72,489.75,1232.15,484.66,1234.75,479.83Z" transform="translate(-1140.66 -385.62)"/><path class="cls-4" d="M1264.4,482.8a.67.67,0,0,0,.62-.73l-.16-1.68a.67.67,0,0,0-.73-.61.69.69,0,0,0-.62.74l.16,1.67A.67.67,0,0,0,1264.4,482.8Z" transform="translate(-1140.66 -385.62)"/><path class="cls-4" d="M1268.09,497.54c-2.11,0-3.27-3.68-3.32-3.84a.43.43,0,0,1,.28-.53.42.42,0,0,1,.52.28c.31,1,1.38,3.47,2.71,3.23a.42.42,0,0,1,.49.33.41.41,0,0,1-.33.49A1.45,1.45,0,0,1,1268.09,497.54Z" transform="translate(-1140.66 -385.62)"/><path class="cls-2" d="M1235.19,511l21.36,2.75s2.13,7.79,3.06,10.32c1.55,4.23-.6,7.73-5,7-8.17-1.33-19.39-3.82-26.32-8.14Z" transform="translate(-1140.66 -385.62)"/><path class="cls-2" d="M1268.24,539.42c-.74-1.76-2.45-2.71-3.83-2.13s-1.89,2.47-1.15,4.23,2.46,2.71,3.83,2.13S1269,541.17,1268.24,539.42Z" transform="translate(-1140.66 -385.62)"/><path class="cls-2" d="M1279.1,560.67c-.74-1.75-2.45-2.71-3.83-2.13s-1.89,2.48-1.15,4.24,2.46,2.71,3.83,2.12S1279.85,562.43,1279.1,560.67Z" transform="translate(-1140.66 -385.62)"/><path class="cls-2" d="M1283,611.26c.28-1.88-.68-3.59-2.16-3.82s-2.91,1.13-3.19,3,.68,3.6,2.15,3.82S1282.69,613.15,1283,611.26Z" transform="translate(-1140.66 -385.62)"/><path class="cls-2" d="M1360,649.88c-12.4-13.49-21.23-15.42-21.23-15.42s-2.27.81-5.14,4.72c-5.21,7.07-1.27,12.09-1.27,12.09s5.58,6.23,7.36,8.37c1.14,1.38,3.47,4.27,7,2.89,2.9-1.12,2.9-2.59,2.9-2.59s3.95.67,5.78-2.75a34.26,34.26,0,0,1,3,2.75c4.06,4.15,6.45,6.39,8.92,4.49C1370,662.4,1367.06,657.53,1360,649.88Z" transform="translate(-1140.66 -385.62)"/><path class="cls-3" d="M1349.65,660.37c-.38-.24-2.47-3.59-5.23-6.35a.42.42,0,0,1,0-.6.43.43,0,0,1,.6,0,39.49,39.49,0,0,1,5,6.3.42.42,0,0,1-.14.58A.36.36,0,0,1,1349.65,660.37Z" transform="translate(-1140.66 -385.62)"/><path class="cls-3" d="M1355.43,657.62a82.4,82.4,0,0,0-5.53-6.73.42.42,0,0,1,.62-.58,35.49,35.49,0,0,1,5.28,6.68.43.43,0,0,1-.17.58A.49.49,0,0,1,1355.43,657.62Z" transform="translate(-1140.66 -385.62)"/><path class="cls-6" d="M1290,513.42l6,28.29c.92.87,5.27,1.1,10.48.68s9.43-1.32,10.12-2.12c.13-.21,1.61-29.1,1.61-29.1-.44-.2-27.83,2-27.83,2C1290,513.14,1289.93,513.28,1290,513.42Z" transform="translate(-1140.66 -385.62)"/><path class="cls-2" d="M1292,504.09c.21.15,22.29-1.61,22.29-1.61.41-.49-2.83-5.26-2.83-5.26-.23-.12-8.54.54-8.54.54l-8.32.66c-.21.15-2.66,5.38-2.66,5.38A.24.24,0,0,0,1292,504.09Z" transform="translate(-1140.66 -385.62)"/><path class="cls-2" d="M1290.47,513.34l27.2-2.16a3.07,3.07,0,0,0,2.81-3.3s-1.88-6.25-3.56-6.11l-27.2,2.16c-1.68.13-2.55,6.6-2.55,6.6A3.07,3.07,0,0,0,1290.47,513.34Z" transform="translate(-1140.66 -385.62)"/><path class="cls-2" d="M1318,515.56s-.06,1-.24,4.81c-.06,1.31-3.22-.12-5.32-.34a7,7,0,0,0-3.14.13c-2.3.84-3,3.6-2.41,5.89a1.72,1.72,0,0,1-1.24,2.66,5.41,5.41,0,0,0,.85,4.78,3.64,3.64,0,0,0,1.08.93,3.71,3.71,0,0,0-1.2,2.54,4.49,4.49,0,0,0,3.57,4.87l1,.31c2,.66,14.58,2.57,16.87-3.65C1332.73,525,1324,517,1318,515.56Z" transform="translate(-1140.66 -385.62)"/><path class="cls-4" d="M1316.45,528.41a34.12,34.12,0,0,1-9.52-1.29c.28-.59,7.9,1.82,16.44-.11A14.73,14.73,0,0,1,1316.45,528.41Z" transform="translate(-1140.66 -385.62)"/><path class="cls-4" d="M1316,536.29a22.22,22.22,0,0,1-8.9-1.59c.34-.56,6.72,2.37,16.47,0A16.69,16.69,0,0,1,1316,536.29Z" transform="translate(-1140.66 -385.62)"/><path class="cls-4" d="M1398.82,659.19a34.84,34.84,0,0,1-2.4-4.3.46.46,0,0,1,.82-.4l2,4a.46.46,0,0,1-.4.66Zm-4-8.1a35.2,35.2,0,0,1-2.39-4.29.45.45,0,0,1,.21-.61.44.44,0,0,1,.6.21l2,4a.45.45,0,0,1-.21.61A.45.45,0,0,1,1394.84,651.09Zm-4-8.09a34,34,0,0,1-2.39-4.3.44.44,0,0,1,.21-.6.45.45,0,0,1,.6.2l2,4.05a.46.46,0,0,1-.21.61A.45.45,0,0,1,1390.87,643Zm-4-8.09a34,34,0,0,1-2.39-4.3.45.45,0,1,1,.81-.4l2,4a.45.45,0,0,1-.21.6A.35.35,0,0,1,1386.9,634.91Zm-4-8.09a34.13,34.13,0,0,1-2.4-4.3.46.46,0,0,1,.21-.61.46.46,0,0,1,.61.21l2,4a.44.44,0,0,1-.2.6A.37.37,0,0,1,1382.93,626.82Zm-4-8.09a34.84,34.84,0,0,1-2.4-4.3.46.46,0,0,1,.82-.4l2,4.05a.44.44,0,0,1-.21.6A.45.45,0,0,1,1379,618.73Zm-4-8.09a36,36,0,0,1-2.39-4.3.45.45,0,0,1,.21-.61.44.44,0,0,1,.6.21l2,4a.46.46,0,0,1-.41.66Zm-3.22-7.95c-.5-.34-.49-.62-.3-.79l3.36-3a.46.46,0,0,1,.61.68l-3.37,3A.41.41,0,0,1,1371.76,602.69Zm6.73-6c-.51-.34-.49-.63-.3-.8l3.36-3a.45.45,0,1,1,.61.67l-3.37,3A.42.42,0,0,1,1378.49,596.7Zm6.73-6c-.51-.34-.49-.63-.3-.79l3.36-3a.45.45,0,0,1,.64,0,.46.46,0,0,1,0,.64l-3.37,3A.42.42,0,0,1,1385.22,590.7Zm6.73-6c-.51-.34-.49-.62-.3-.79l3.36-3a.45.45,0,0,1,.64,0,.46.46,0,0,1,0,.64l-3.37,3A.43.43,0,0,1,1392,584.7Zm6.73-6c-.51-.34-.49-.63-.3-.8l3.36-3a.45.45,0,1,1,.6.67l-3.36,3A.44.44,0,0,1,1398.68,578.71Zm6.73-6c-.51-.34-.49-.63-.3-.79l3.36-3a.45.45,0,0,1,.6.68l-3.36,3A.44.44,0,0,1,1405.41,572.71Zm6.73-6c-.51-.34-.49-.62-.31-.79l3.37-3a.46.46,0,0,1,.64,0,.45.45,0,0,1,0,.64l-3.36,3A.48.48,0,0,1,1412.14,566.71Zm6.73-6c-.51-.34-.49-.63-.31-.8l3.37-3a.47.47,0,0,1,.64,0,.45.45,0,0,1,0,.64l-3.36,3A.46.46,0,0,1,1418.87,560.72Zm6.73-6c-.51-.34-.49-.63-.31-.79l3.37-3a.45.45,0,1,1,.6.68l-3.36,3A.46.46,0,0,1,1425.6,554.72Zm6.72-6c-.5-.34-.48-.62-.3-.79l3.37-3a.45.45,0,0,1,.6.68l-3.36,3A.51.51,0,0,1,1432.32,548.72Zm6.73-6c-.5-.34-.49-.63-.3-.8l3.37-3a.45.45,0,0,1,.64,0,.46.46,0,0,1,0,.64l-3.37,3A.42.42,0,0,1,1439.05,542.73Zm6.73-6c-.5-.34-.49-.63-.3-.79l3.37-3a.45.45,0,1,1,.6.67l-3.37,3A.42.42,0,0,1,1445.78,536.73Zm6.73-6c-.5-.34-.49-.62-.3-.79l3.37-3a.44.44,0,0,1,.63,0,.45.45,0,0,1,0,.64l-3.37,3A.46.46,0,0,1,1452.51,530.73Zm6.73-6c-.5-.33-.49-.62-.3-.79l3.37-3a.45.45,0,0,1,.6.68l-3.37,3A.41.41,0,0,1,1459.24,524.73Zm6.73-6c-.5-.34-.49-.63-.3-.79l3.36-3a.46.46,0,0,1,.64,0,.47.47,0,0,1,0,.65l-3.37,3A.42.42,0,0,1,1466,518.74Zm6.73-6c-.5-.34-.49-.62-.3-.79l3.36-3a.46.46,0,0,1,.61.68l-3.37,3A.46.46,0,0,1,1472.7,512.74Zm6.73-6c-.51-.34-.49-.63-.3-.8l3.36-3a.46.46,0,0,1,.61.68l-3.37,3A.44.44,0,0,1,1479.43,506.75Zm6.73-6c-.51-.34-.49-.63-.3-.79l3.36-3a.45.45,0,1,1,.61.67l-3.37,3A.44.44,0,0,1,1486.16,500.75Zm4.14-5.64c-.2,0-4.26-2-4.26-2a.46.46,0,0,1-.21-.61.45.45,0,0,1,.61-.21l4,2a.45.45,0,0,1-.19.86Zm-8.12-3.92c-.2-.05-4.25-2-4.25-2a.44.44,0,0,1-.21-.6.46.46,0,0,1,.6-.22l4.06,2a.44.44,0,0,1,.21.6A.46.46,0,0,1,1482.18,491.19Zm-8.11-3.93c-.2,0-4.26-2-4.26-2a.46.46,0,0,1,.4-.82l4,2a.45.45,0,0,1-.19.86Zm-8.12-3.92c-.19,0-4.25-2-4.25-2a.45.45,0,0,1,.39-.81l4.06,2a.45.45,0,0,1-.2.86Zm-8.11-3.92c-.2-.05-4.26-2-4.26-2a.46.46,0,0,1,.4-.82l4.06,2a.46.46,0,0,1-.2.87Zm-8.12-3.93c-.19,0-4.25-2-4.25-2a.45.45,0,0,1,.39-.81l4.06,2a.45.45,0,0,1-.2.86Zm-8.11-3.92c-.2-.05-4.25-2-4.25-2a.45.45,0,1,1,.39-.82l4.06,2a.46.46,0,0,1-.2.87Zm-8.12-3.93c-.19,0-4.25-2-4.25-2a.46.46,0,0,1,.4-.82l4,2a.45.45,0,0,1,.21.61A.44.44,0,0,1,1433.49,467.64Zm-8.11-3.92c-.2-.05-4.25-2-4.25-2a.46.46,0,0,1-.22-.6.47.47,0,0,1,.61-.22l4.06,2a.45.45,0,0,1,.21.6A.45.45,0,0,1,1425.38,463.72Zm-8.11-3.93c-.2,0-4.26-2-4.26-2a.46.46,0,0,1-.21-.61.45.45,0,0,1,.61-.21l4,2a.45.45,0,0,1,.21.61A.43.43,0,0,1,1417.27,459.79Zm-8.12-3.92c-.2-.05-4.25-2-4.25-2a.45.45,0,0,1,.39-.81l4.06,2a.45.45,0,0,1,.21.6A.45.45,0,0,1,1409.15,455.87ZM1401,452c-.2-.05-4.26-2-4.26-2a.46.46,0,0,1,.4-.82l4.06,2a.46.46,0,0,1-.2.87Zm-8.12-3.93c-.19,0-4.25-2-4.25-2a.45.45,0,0,1,.39-.81l4.06,2a.45.45,0,0,1-.2.86Zm-8.11-3.92c-.2-.05-4.26-2-4.26-2a.46.46,0,1,1,.4-.82l4.06,2a.45.45,0,0,1,.21.6A.46.46,0,0,1,1384.81,444.1Zm-8.12-3.93c-.19,0-4.25-2-4.25-2a.45.45,0,0,1-.21-.61.44.44,0,0,1,.6-.21l4.06,2a.45.45,0,0,1-.2.86Zm-8.11-3.92c-.2-.05-4.26-2-4.26-2a.46.46,0,0,1-.21-.61.47.47,0,0,1,.61-.21l4.06,2a.45.45,0,0,1,.21.6A.46.46,0,0,1,1368.58,436.25Zm-8.11-3.93c-.2,0-4.26-2-4.26-2a.46.46,0,1,1,.4-.82l4.05,2a.45.45,0,0,1,.21.61A.44.44,0,0,1,1360.47,432.32Z" transform="translate(-1140.66 -385.62)"/><path class="cls-3" d="M1500.94,495.34a9.23,9.23,0,1,1-9.23-9.22A9.23,9.23,0,0,1,1500.94,495.34Z" transform="translate(-1140.66 -385.62)"/><path class="cls-3" d="M1380.51,602.66a9.22,9.22,0,1,1-9.22-9.22A9.22,9.22,0,0,1,1380.51,602.66Z" transform="translate(-1140.66 -385.62)"/><path class="cls-3" d="M1365.63,429.91a9.22,9.22,0,1,1-9.22-9.22A9.22,9.22,0,0,1,1365.63,429.91Z" transform="translate(-1140.66 -385.62)"/><polygon class="cls-4" points="278.81 97.5 265.23 149.7 278.81 149.7 281.21 149.7 292.39 149.7 278.81 97.5"/><path class="cls-7" d="M1403,437a43.59,43.59,0,0,0-2.26,13.13v72.42h37.52V450.12A43.59,43.59,0,0,0,1436,437Z" transform="translate(-1140.66 -385.62)"/><path class="cls-8" d="M1400.71,476.71v45.83h-20C1380.69,484.4,1400.71,476.71,1400.71,476.71Z" transform="translate(-1140.66 -385.62)"/><path class="cls-8" d="M1438.23,476.71v45.83h20C1458.25,484.4,1438.23,476.71,1438.23,476.71Z" transform="translate(-1140.66 -385.62)"/><path class="cls-6" d="M1400.71,476.71v45.83h-20C1380.69,484.4,1400.71,476.71,1400.71,476.71Z" transform="translate(-1140.66 -385.62)"/><path class="cls-6" d="M1438.23,476.71v45.83h20C1458.25,484.4,1438.23,476.71,1438.23,476.71Z" transform="translate(-1140.66 -385.62)"/><circle class="cls-6" cx="278.81" cy="71.46" r="11.58"/><path class="cls-9" d="M1426.62,457.08a7.15,7.15,0,1,1-7.15-7.15A7.15,7.15,0,0,1,1426.62,457.08Z" transform="translate(-1140.66 -385.62)"/><rect class="cls-10" x="260.05" y="95.83" width="37.54" height="20.45"/><path class="cls-10" d="M1419.47,407.48s-11.57,13.91-16.54,29.61H1436C1431,421.39,1419.47,407.48,1419.47,407.48Z" transform="translate(-1140.66 -385.62)"/><path class="cls-10" d="M1401.26,669.28h-77.85a2.95,2.95,0,0,1,0-5.9h77.85a2.95,2.95,0,1,1,0,5.9Z" transform="translate(-1140.66 -385.62)"/><path class="cls-2" d="M1527.88,568.42H1422.49a14,14,0,0,0-12.9,9l-29.09,72.2c-3.89,9.67,7.54,20.3,17.56,20.3l144.73-93.67C1540.28,573.41,1532,568.42,1527.88,568.42Z" transform="translate(-1140.66 -385.62)"/><path class="cls-11" d="M1502.53,670H1397.14a14,14,0,0,1-12.89-19.44l29.09-68.9a14,14,0,0,1,12.89-8.55h105.39a14,14,0,0,1,12.9,19.44l-29.09,68.9A14,14,0,0,1,1502.53,670Z" transform="translate(-1140.66 -385.62)"/><path class="cls-10" d="M1502.53,670H1397.14a14,14,0,0,1-12.89-19.44l29.09-68.9a14,14,0,0,1,12.89-8.55h105.39a14,14,0,0,1,12.9,19.44l-29.09,68.9A14,14,0,0,1,1502.53,670Z" transform="translate(-1140.66 -385.62)"/><path class="cls-9" d="M1465.14,617.94c-3,5.2-2.66,11,.75,13s8.62-.64,11.62-5.83,2.66-11-.76-13S1468.13,612.75,1465.14,617.94Z" transform="translate(-1140.66 -385.62)"/><path class="cls-4" d="M1552.74,670.1h-395a1.24,1.24,0,0,1,0-2.47h395a1.24,1.24,0,1,1,0,2.47Z" transform="translate(-1140.66 -385.62)"/><path class="cls-3" d="M1338.79,634.46s-24.67-13-73.62-10.84c-37.88,1.63-24.92-64.13-29.89-86.45-1.6-7.23-24.23-13.4-36.42,5.22-12.45,19-29.59,92.07,10.45,123.94,45.58,36.28,95.17,2.06,123.07-15.06,0,0-1.51-2.42.95-8.86C1335.69,636.22,1338.79,634.46,1338.79,634.46Z" transform="translate(-1140.66 -385.62)"/><path class="cls-4" d="M1338.56,634.91c-.25-.13-25.15-12.87-73.37-10.79-6.87.3-12.56-1.62-16.89-5.71-10.6-10-11.75-31.31-12-50.47h1c.25,19,1.38,40,11.7,49.75,4.12,3.9,9.56,5.73,16.16,5.44,48.52-2.09,73.63,10.77,73.87,10.9Z" transform="translate(-1140.66 -385.62)"/><path class="cls-4" d="M1242.39,453.63c-8,1.48-25.28.82-27.26,13.74-1,6.55.21,13.22,4.47,35.18,1.52,16-13,10.5-30,24.87-19.29,16.31-1,41.78-1,41.78,4.87-19.12,15.9-33.24,30.56-33.24,45.34,0,36-45.15,30.85-60.11l17.65-4.28S1263.85,449.65,1242.39,453.63Z" transform="translate(-1140.66 -385.62)"/><polygon class="cls-12" points="158.12 41.7 173.47 37.95 186.8 47.59 171.46 51.35 158.12 41.7"/><polygon class="cls-2" points="171.46 51.35 186.8 47.59 182.68 65.33 167.33 69.07 171.46 51.35"/><polygon class="cls-6" points="158.12 41.7 171.46 51.35 167.33 69.07 154.01 59.43 158.12 41.7"/><polygon class="cls-3" points="366.8 143.5 382.75 139.6 389.51 159.73 373.56 163.64 366.8 143.5"/><polygon class="cls-2" points="373.56 163.64 389.51 159.73 376.68 165.7 360.73 169.6 373.56 163.64"/><polygon class="cls-12" points="366.8 143.5 373.56 163.64 360.73 169.6 353.96 149.45 366.8 143.5"/><polygon class="cls-6" points="304.96 3.24 318.2 0 325.45 15.72 312.2 18.96 304.96 3.24"/><polygon class="cls-12" points="312.2 18.96 325.45 15.72 315.83 23.26 302.59 26.5 312.2 18.96"/><polygon class="cls-2" points="304.96 3.24 312.2 18.96 302.59 26.5 295.34 10.78 304.96 3.24"/><path class="cls-6" d="M1189.64,560.93a.45.45,0,0,1-.44-.42c-1.08-25.28,13.87-27.9,28.33-30.43,6.61-1.15,13.44-2.35,18.93-5.61,14.54-8.64,9.71-27.1,5.44-43.38-.27-1.07-.55-2.12-.82-3.16-4.28-16.67.25-21.42.45-21.61a.45.45,0,0,1,.63,0,.44.44,0,0,1,0,.62c-.05.05-4.35,4.69-.22,20.77.27,1,.54,2.09.82,3.15,4.13,15.77,9.26,35.39-5.84,44.37-5.63,3.35-12.55,4.56-19.23,5.73-14.74,2.57-28.65,5-27.6,29.51a.45.45,0,0,1-.43.46Z" transform="translate(-1140.66 -385.62)"/><path class="cls-6" d="M1184.32,550a.45.45,0,0,1-.44-.48c1.51-19,12.09-22.67,22.32-26.26,4.07-1.43,8.27-2.9,11.79-5.33,12.38-8.52,9.41-27.2,6.1-40.52-3.19-12.84,3.61-18,3.9-18.19a.44.44,0,1,1,.52.72c-.06,0-6.6,5-3.56,17.26,3.38,13.57,6.38,32.63-6.46,41.46-3.62,2.5-7.88,4-12,5.43-10.43,3.66-20.28,7.11-21.74,25.5A.43.43,0,0,1,1184.32,550Z" transform="translate(-1140.66 -385.62)"/></svg>