<svg id="Layer_1" data-name="Layer 1" xmlns="http://www.w3.org/2000/svg" viewBox="0 0 452.9 323.72"><defs><style>.cls-1{fill:#fce7e0;}.cls-2{fill:#fff;}.cls-3{fill:#68b8e2;}.cls-4{fill:#4978de;}.cls-5{fill:#383838;}.cls-6{fill:#ededed;}.cls-7{fill:#fbd1c2;}.cls-8{fill:#dbc1ba;}.cls-9{fill:#c4a59f;}.cls-10{fill:#beccdf;}.cls-11{fill:#dbe6f6;}</style></defs><title>img_06</title><path class="cls-1" d="M833.63,503.05a547.85,547.85,0,0,1-52.7,56.1c-32.31,29.89-72.12,57.42-122,56.57-23.3-.4-51-9.82-62-30.2-6.11-11.31-7.24-25.75-18.92-32.79-6.62-4-14.52-4.06-21.82-4l-46.56.63c-14.31.19-28.85.36-43.31-3.17s-29.13-11.35-37.51-23.3c-17.25-24.57-4.36-55.8,8-75.15A876,876,0,0,1,497.18,365c23-28.11,50.41-53.49,85.12-67.29,16.89-6.72,39.09-9.64,54.74,3.74,9.46,8.09,13.93,20.1,21.38,29.95,17.6,23.25,49.5,31.32,76.48,29.45,31.39-2.16,57.62-13.13,91,1.51,21.68,9.51,40.88,29,45.83,51.12C880,450.42,853.47,478.69,833.63,503.05Z" transform="translate(-420.41 -292.02)"/><path class="cls-2" d="M694.28,428.88a34.53,34.53,0,0,1,5.07,17.48H667.69l-2.54-16.72Z" transform="translate(-420.41 -292.02)"/><polygon class="cls-3" points="259.82 198.77 362.87 198.77 362.87 157.2 267.43 154.86 259.82 198.77"/><path class="cls-4" d="M608.33,399.84c18.42,2.17,28.75,17.38,27,52l-15.2,86.8-37.49-4.73Z" transform="translate(-420.41 -292.02)"/><path class="cls-4" d="M645.68,570.83,529.16,572,506.71,424.53l26-13.89,25.64-13.71c4.89-.09,10.26,0,15.73.14,17.77.55,28,1.4,34.37,2.68l8.36,27.36c2.46,13.58,13.48,33.71,8.61,53.95Z" transform="translate(-420.41 -292.02)"/><path class="cls-5" d="M621.88,478.85h-.12a.51.51,0,0,1-.37-.61c3.71-15.45.05-30.31-2.9-42.26-.89-3.64-1.74-7.08-2.31-10.23a.5.5,0,0,1,1-.18c.57,3.12,1.41,6.55,2.3,10.17,3,12,6.67,27,2.9,42.74A.49.49,0,0,1,621.88,478.85Z" transform="translate(-420.41 -292.02)"/><path class="cls-2" d="M578.05,433.82c-5.07,2.28-11,1.92-16.27,0s-9.84-5.19-14.13-8.72a129.79,129.79,0,0,1-15-14.49l25.64-13.71c4.89-.09,10.26,0,15.73.14l8,12.38c2.24,3.47,4.55,7.16,4.75,11.29C587,426.3,583.12,431.54,578.05,433.82Z" transform="translate(-420.41 -292.02)"/><path class="cls-4" d="M506.71,424.53c-22.36,6.23-29.46,58.49-34.8,116.11,0,.2,0,.4-.05.6-1.14,16.75,17.65,27.42,31.64,18.14l11.61-7.7,15.09-75.59C537.9,446.32,529.13,429.89,506.71,424.53Z" transform="translate(-420.41 -292.02)"/><path class="cls-2" d="M582.72,398.54l-.74,2.12-1.86,5.3L576,417.67c-3.19,9.82-12.64,11.16-31.8-7l8.61-25.51Z" transform="translate(-420.41 -292.02)"/><path class="cls-2" d="M543.93,368.83l.51,1.42a47.81,47.81,0,0,0,24.87,27.24,42.08,42.08,0,0,0,4.41,1.8c9.19,3,23.57,4.83,26.2-7.44,1.82-8.49-2.14-16.93-2.11-25.4a36.47,36.47,0,0,0-.19-3.77,34.49,34.49,0,0,0-.88-4.87c-2.44-9.59-9-17.81-19.22-20.08a35.77,35.77,0,0,0-20,1.45c-5.61,2.06-10.89,5.6-13.9,10.77C540,356.18,541.44,362.54,543.93,368.83Z" transform="translate(-420.41 -292.02)"/><path class="cls-5" d="M589.67,378.59a.49.49,0,0,1-.37-.83c2.07-2.34,2.32-3.42,2.16-3.91-.21-.65-1.39-.91-2.52-1.16a.61.61,0,0,1-.45-.43l-1.15-7.67a.5.5,0,0,1,1-.15l1.09,7.33c1.36.31,2.63.67,3,1.77s-.37,2.63-2.36,4.88A.48.48,0,0,1,589.67,378.59Z" transform="translate(-420.41 -292.02)"/><path class="cls-5" d="M577.25,370.64c.21,1.06.94,1.81,1.64,1.68s1.1-1.11.9-2.17-.94-1.81-1.64-1.67S577.05,369.58,577.25,370.64Z" transform="translate(-420.41 -292.02)"/><path class="cls-5" d="M593.22,368.48c.2,1.06.94,1.81,1.64,1.68s1.1-1.11.9-2.17-.94-1.81-1.64-1.68S593,367.42,593.22,368.48Z" transform="translate(-420.41 -292.02)"/><path class="cls-5" d="M571.46,364.8a5.33,5.33,0,0,1-2.87-1.05,1.4,1.4,0,0,1-.52-.87,1.44,1.44,0,0,1,.77-1.18,6.59,6.59,0,0,1,2-.79c4.07-1.09,9.87-2.54,12.67,1.89a.74.74,0,0,1-.26,1.28C581.36,364.88,573.65,365.09,571.46,364.8Z" transform="translate(-420.41 -292.02)"/><path class="cls-5" d="M588.9,363.05a.8.8,0,0,0,.45.22c1.35.32,5.23-.09,8.27-.59,1.69-2.29,1.55-4-.88-4.87-3.25.08-6.49.92-7.86,4.25A.93.93,0,0,0,588.9,363.05Z" transform="translate(-420.41 -292.02)"/><path class="cls-5" d="M544.27,371.93a55.14,55.14,0,0,1-3.52-7.46c-3.28-9.19-.11-19.81,10.19-22.2,4.9-1.15,7-7.29,12.88-7.92,3-.32,6,.69,9,.57s6.25-1.51,9.2-2.39a12.65,12.65,0,0,1,9.51.39c3.13,1.17,5.34-.1,8.62.27a4.5,4.5,0,0,1,3.64,3.1,5.33,5.33,0,0,1-.95,4.77,9.62,9.62,0,0,0-1.27,1.66c-.48,1-.27,2.23-.66,3.28-.59,1.63-2.47,2.45-4.2,2.55-3.26.2-6.54-1.27-9.18,1.09a7.85,7.85,0,0,1-6.54,1.85c-1.59-.28-3.28-1.05-4.72-.33-.68.34-1.17,1-1.84,1.32-2.87,1.55-6.86-1.17-9.58,1.27a3.39,3.39,0,0,0-1,3.24A13.6,13.6,0,0,0,565,359.5a12.42,12.42,0,0,1,.77,2.47c.36,1.53.72,3,1.09,4.58a9.71,9.71,0,0,1,.37,3.89,3.25,3.25,0,0,1-2.48,2.73,12.87,12.87,0,0,0-2.25.1c-1.77.62-1.91,4.15-2.48,5.67a34.4,34.4,0,0,1-3.33,7.11c-2.09,3.12-4,7.5-7.48,8.84-.39-3.45-1.9-8.68-2.3-12.13a45,45,0,0,0-.87-5.54A18.41,18.41,0,0,0,544.27,371.93Z" transform="translate(-420.41 -292.02)"/><polygon class="cls-6" points="161.3 109.68 159.33 114.94 159.1 115.21 149.04 104.27 161.3 109.68"/><path class="cls-5" d="M588.41,389.72a5,5,0,0,1-1.17-.14,9.51,9.51,0,0,1-4.13-2.24c-1-.9-1-1.64-.8-2.11a2,2,0,0,1,1.15-1.06h0c2.85-1.27,6.42-1,8.91-.57a2.67,2.67,0,0,1,1.38.57,2,2,0,0,1,.81,1.91c-.27,1.57-2.6,2.64-3.3,2.93A7.39,7.39,0,0,1,588.41,389.72Zm-4.55-4.64c-.35.16-.55.32-.61.49-.13.36.34.85.55,1a8.6,8.6,0,0,0,3.67,2,5.1,5.1,0,0,0,3.41-.53c1.24-.51,2.56-1.38,2.69-2.17,0-.12.09-.48-.49-1a1.9,1.9,0,0,0-.89-.33c-2.35-.41-5.71-.67-8.33.5Z" transform="translate(-420.41 -292.02)"/><circle class="cls-2" cx="132.56" cy="86.93" r="11.55"/><path class="cls-5" d="M560.91,380.3h0a.5.5,0,0,1-.45-.55,7.5,7.5,0,0,0-6.65-8.25,7.5,7.5,0,0,0-8.24,6.65.5.5,0,0,1-.55.44.49.49,0,0,1-.44-.55,8.48,8.48,0,0,1,9.34-7.53,8.5,8.5,0,0,1,7.54,9.34A.51.51,0,0,1,560.91,380.3Z" transform="translate(-420.41 -292.02)"/><path class="cls-5" d="M557.48,385.18a.5.5,0,0,1-.43-.24c-2.07-3.44-2.51-7.79-1.31-12.92a.5.5,0,1,1,1,.22c-1.14,4.87-.74,9,1.19,12.19a.49.49,0,0,1-.17.68A.48.48,0,0,1,557.48,385.18Z" transform="translate(-420.41 -292.02)"/><path class="cls-5" d="M575.48,424.57h-.12A.5.5,0,0,1,575,424l4.25-17.11a.51.51,0,0,1,.61-.37.5.5,0,0,1,.36.61L576,424.19A.5.5,0,0,1,575.48,424.57Z" transform="translate(-420.41 -292.02)"/><path class="cls-5" d="M544.58,409.37a.57.57,0,0,1-.18,0,.5.5,0,0,1-.29-.64l2.53-6.84a.5.5,0,1,1,.94.35L545.05,409A.5.5,0,0,1,544.58,409.37Z" transform="translate(-420.41 -292.02)"/><path class="cls-2" d="M739.31,379.74c-9.38-.78-28.81,19.84-29.49,50.58L694,493.81,726,502.6c9.59-2.74,16.59-12,15.54-22Z" transform="translate(-420.41 -292.02)"/><path class="cls-4" d="M822,427.46,794.8,507.82l-.62,26.09,10.69,37.68H696.55l8.78-62.07,5.52-46.62c-5.48-20.43-.79-27.42,14.79-46.38l15.49-45.73c8.49-.38,31,12.5,37.09,20.66A399.2,399.2,0,0,1,822,427.46Z" transform="translate(-420.41 -292.02)"/><path class="cls-2" d="M795.89,402.49c-20.52,16.58-29.68,16.91-32.1,6.88L757,397l-2.65-4.83L753,389.66l30-10.84,5.62,8.55Z" transform="translate(-420.41 -292.02)"/><path class="cls-2" d="M794.78,363.35l-.62,1.38A47.76,47.76,0,0,1,767.25,390a43.55,43.55,0,0,1-4.53,1.45c-9.41,2.32-23.89,3-25.55-9.45-1.15-8.61,3.46-16.72,4.08-25.17a36.09,36.09,0,0,1,.49-3.74l.12-.6a33.44,33.44,0,0,1,1.09-4.07s0-.08,0-.12c3.18-9.37,10.41-17.05,20.73-18.52a35.84,35.84,0,0,1,19.78,3c5.44,2.49,10.43,6.43,13,11.82C799.65,351,797.76,357.27,794.78,363.35Z" transform="translate(-420.41 -292.02)"/><path class="cls-5" d="M746.85,371.36a.51.51,0,0,1-.42-.22c-1.67-2.51-2.19-4.1-1.67-5.16s1.85-1.24,3.2-1.35l2.08-7.11a.5.5,0,1,1,1,.28l-2.18,7.44a.5.5,0,0,1-.44.36c-1.23.1-2.43.2-2.72.81s-.13,1.57,1.6,4.17a.5.5,0,0,1-.14.7A.53.53,0,0,1,746.85,371.36Z" transform="translate(-420.41 -292.02)"/><path class="cls-5" d="M761.42,362.56c-.28,1-1.07,1.74-1.76,1.55s-1-1.19-.73-2.23,1.08-1.73,1.76-1.55S761.71,361.52,761.42,362.56Z" transform="translate(-420.41 -292.02)"/><ellipse class="cls-5" cx="744.43" cy="358.82" rx="1.96" ry="1.29" transform="translate(-218.69 690.01) rotate(-74.68)"/><path class="cls-2" d="M820.78,426.73c18.46,9.66,14,61.39,11.13,119.12,0,.13,0,.26,0,.39a17.07,17.07,0,0,1-29.21,11l-6.59-6.71L793.86,474C791.08,443.37,800.77,428.52,820.78,426.73Z" transform="translate(-420.41 -292.02)"/><path class="cls-5" d="M791.16,370.17a54,54,0,0,0,7-7.86,17.82,17.82,0,0,0,3.39-9.84c0-7.64-6.35-14.91-12.89-18.07a49.74,49.74,0,0,0-18.7-5.19A33.22,33.22,0,0,0,754.37,332c-2.86,1.31-3.1,2-2.28,5.09a20.83,20.83,0,0,0,3.24,6.58,29.17,29.17,0,0,0,21.54,12c-.93.92-1.86,1.86-2.74,2.82a20.43,20.43,0,0,0-3.74,5.23c-1.78,4-.32,8.36,3,11.08a12.3,12.3,0,0,0,8.9,2.55,6.45,6.45,0,0,0-.26,4.36,13.6,13.6,0,0,0,7.07,7.46c.31.14.43-.2.52-.52C791.32,382.76,790,376.18,791.16,370.17Z" transform="translate(-420.41 -292.02)"/><path class="cls-5" d="M827.63,468.69A37.66,37.66,0,0,0,822,435.87c-2.36-3.19-5.24-6-7.15-9.5-4.74-8.6-2.72-19.13-2.55-28.95.12-6.86-.79-13.87-3.81-20s-8.33-11.41-14.94-13.26c-3.08.42-5.18,4.06-6,7.05-2.83,9.92,1.91,20.31,2.44,30.62a37.7,37.7,0,0,1-2.06,14.36c-2.64,7.53-7.66,14.16-9.46,21.94-2.45,10.5,1.3,21.35,5,31.49.34.1.35.36.69.47l28.8-.83A128.82,128.82,0,0,1,814,454.81c1.23,5.45,2.53,9.54,3.75,15Z" transform="translate(-420.41 -292.02)"/><circle class="cls-2" cx="784.99" cy="372.74" r="11.55" transform="translate(-493.19 219.9) rotate(-34.62)"/><path class="cls-5" d="M777,373.47a.51.51,0,0,1-.5-.49,8.49,8.49,0,1,1,17-.49.5.5,0,0,1-.48.52.52.52,0,0,1-.52-.49,7.49,7.49,0,0,0-15,.43.5.5,0,0,1-.48.52Z" transform="translate(-420.41 -292.02)"/><polygon class="cls-6" points="346.7 95.92 336.59 104.96 333.94 100.12 346.7 95.92"/><path class="cls-5" d="M780,378.6a.52.52,0,0,1-.29-.09.5.5,0,0,1-.12-.7c2.18-3.05,2.9-7.11,2.14-12.05a.51.51,0,0,1,.42-.57.49.49,0,0,1,.57.42c.8,5.21,0,9.51-2.31,12.78A.51.51,0,0,1,780,378.6Z" transform="translate(-420.41 -292.02)"/><path class="cls-7" d="M744.72,376.35c1.29,5.45,4.57,4.83,9.73-1.48C748.65,373,744.26,372.41,744.72,376.35Z" transform="translate(-420.41 -292.02)"/><path class="cls-5" d="M747.3,377.31a6.14,6.14,0,0,1-3.57-1,.51.51,0,0,1-.12-.7.49.49,0,0,1,.69-.12c2.18,1.51,5.54,1,10.59-1.56a.51.51,0,0,1,.68.22.5.5,0,0,1-.22.67C752.86,376.05,749.94,377.31,747.3,377.31Z" transform="translate(-420.41 -292.02)"/><path class="cls-5" d="M765,359.35a5.22,5.22,0,0,0,.74.1c3.53.27.88-2.81-.45-3.73a13,13,0,0,0-3.87-1.67,8.52,8.52,0,0,0-2.4-.37c-2.55.06-2.39,1.44-.8,2.45A25.08,25.08,0,0,0,765,359.35Z" transform="translate(-420.41 -292.02)"/><path class="cls-5" d="M748.38,354.47a6.51,6.51,0,0,1-.75,0,22.79,22.79,0,0,1-6.11-1.88c-1-1.35-.34-2.16,1.13-2.72.3,0,.61.07.9.12a13.34,13.34,0,0,1,4,1.16C749,351.83,751.91,354.38,748.38,354.47Z" transform="translate(-420.41 -292.02)"/><path class="cls-5" d="M756.15,335.49a8.21,8.21,0,0,0-2.9,7.49,16.41,16.41,0,0,0,1.3,3.9,5.89,5.89,0,0,0,1.37,2,7.37,7.37,0,0,1-7.23-3.83,9.85,9.85,0,0,1-.26-8.42,6.07,6.07,0,0,1,1.63-2.42,3.17,3.17,0,0,1,2.74-.72C754.33,333.91,755.54,334,756.15,335.49Z" transform="translate(-420.41 -292.02)"/><path class="cls-5" d="M758.18,332.14c-2.83.06-5.75.14-8.35,1.28a11.25,11.25,0,0,0-5.6,5.57,11.74,11.74,0,0,0-.61,7.88c1.77-2.27,3.66-4.16,5.46-6.4C751.74,337.18,754.29,333.82,758.18,332.14Z" transform="translate(-420.41 -292.02)"/><path class="cls-2" d="M621.33,428.88a34.63,34.63,0,0,0-5.07,17.48h31.67l2.53-16.72Z" transform="translate(-420.41 -292.02)"/><path class="cls-5" d="M527.41,481.33h0a.49.49,0,0,1-.45-.54l1.17-11.71a.5.5,0,1,1,1,.09l-1.17,11.71A.49.49,0,0,1,527.41,481.33Z" transform="translate(-420.41 -292.02)"/><rect class="cls-8" x="124.57" y="143.15" width="231.27" height="138.86" rx="5.91"/><path class="cls-9" d="M776.25,441.07v19H545v-19a5.91,5.91,0,0,1,5.91-5.9H770.34A5.91,5.91,0,0,1,776.25,441.07Z" transform="translate(-420.41 -292.02)"/><circle class="cls-2" cx="308.5" cy="155.75" r="3.55"/><circle class="cls-2" cx="341.43" cy="155.75" r="3.55"/><circle class="cls-2" cx="324.71" cy="155.75" r="3.55"/><path class="cls-2" d="M728.36,451.49a107.42,107.42,0,0,0,4.8,17.33c2.24,5.57,5.49,10.85,10.12,14.66l52.81,67,28.69-22.83-60.9-55.63c-2-9.8-6.78-19-9.4-28.66-2.13-7.89-8.78-14.19-14-20.51-1.1-1.33-2.52-2.79-4.22-2.54a1.23,1.23,0,0,0-1.67,1.05,3.86,3.86,0,0,0,.68,2.29l9.59,17.5a151.06,151.06,0,0,0-13.75-19.36,5.47,5.47,0,0,0-2.31-1.83,2,2,0,0,0-2.5,1,2.91,2.91,0,0,0,.27,1.93,85.51,85.51,0,0,0,11.67,20.59c-4.11-6.52-9.75-12.72-15.08-18.29-.74-.78-1.82-1.61-2.78-1.12a2,2,0,0,0-.91,1.57c-.26,2,.85,3.84,1.92,5.52l9.68,15.23c-4.41-5.9-9.37-11.78-15.69-15.58a1.71,1.71,0,0,0-.79-.3c-.85,0-1.17,1.12-1.08,2,.34,3.22,2.72,5.8,5,8.12C721.82,444,725.06,448.1,728.36,451.49Z" transform="translate(-420.41 -292.02)"/><path class="cls-2" d="M596.59,462.44A107.75,107.75,0,0,1,589.54,479c-2.95,5.23-6.86,10-12,13.2L565,508.58l-17.91-17.17L561,479q5-14.17,10.8-28c3.15-7.55,10.57-12.92,16.55-18.49,1.26-1.18,2.86-2.44,4.52-2a1.22,1.22,0,0,1,1.52,1.25,3.9,3.9,0,0,1-1,2.19L581.56,450a151.23,151.23,0,0,1,16.18-17.38,5.42,5.42,0,0,1,2.53-1.51,2,2,0,0,1,2.34,1.31,2.89,2.89,0,0,1-.52,1.88,85.26,85.26,0,0,1-14.28,18.87c4.94-5.92,11.35-11.32,17.36-16.14.84-.68,2-1.36,2.9-.74a2,2,0,0,1,.7,1.67c0,2-1.35,3.69-2.63,5.21L594.54,457c5.15-5.27,10.84-10.45,17.61-13.38a1.66,1.66,0,0,1,.81-.19c.85.1,1,1.26.82,2.09-.76,3.15-3.46,5.39-6,7.39C604.06,455.87,600.3,459.51,596.59,462.44Z" transform="translate(-420.41 -292.02)"/><polygon class="cls-4" points="121.51 178.44 155.78 212.97 94.7 259.66 70.11 221.02 121.51 178.44"/><path class="cls-5" d="M490.52,513.54a.5.5,0,0,1-.32-.89l51.4-42.58a.5.5,0,0,1,.67,0l12.24,12.33a.5.5,0,0,1-.71.71l-11.92-12-51,42.29A.51.51,0,0,1,490.52,513.54Z" transform="translate(-420.41 -292.02)"/><path class="cls-5" d="M524.57,544.64a.48.48,0,0,1-.4-.2.5.5,0,0,1,.1-.7l18.73-14a.5.5,0,0,1,.6.8l-18.73,14A.49.49,0,0,1,524.57,544.64Z" transform="translate(-420.41 -292.02)"/><path class="cls-5" d="M824.48,524.37a.51.51,0,0,1-.31-.11l-29.9-24.83a.49.49,0,0,1-.06-.7.5.5,0,0,1,.7-.07l29.89,24.83a.49.49,0,0,1,.07.7A.5.5,0,0,1,824.48,524.37Z" transform="translate(-420.41 -292.02)"/><path class="cls-2" d="M657.28,450.2a2.8,2.8,0,0,1-.77,2.51,1.9,1.9,0,0,1-2.19-.23,5.41,5.41,0,0,1-1.34-1.92,90.57,90.57,0,0,1-6-15.9c2.38,5.82,4.37,11.63,4.66,17.91a3,3,0,0,1-.83,2.66,2.1,2.1,0,0,1-2.41-.18,5.94,5.94,0,0,1-1.56-2,120.62,120.62,0,0,1-7.59-16.5c1,6.2,3.87,11.29,3.69,17.56,0,1.18-.37,2.59-1.49,3a2.24,2.24,0,0,1-1.69-.23,6.81,6.81,0,0,1-2.58-3.52q-3.4-7.91-6.32-16a112.82,112.82,0,0,1,3.28,14.11c.42,2.11.72,4.51-.58,6.22a1.35,1.35,0,0,1-.63.51,1.31,1.31,0,0,1-.78-.05c-2.48-.77-3.66-3.53-4.51-6Q624,441.72,621,431.17c-1.13-3.91,5.17-6.15,7.57-3.42a5.27,5.27,0,0,1,7.35-.66c1-3.11,6.5-3.33,7.82-.36a4.9,4.9,0,0,1,5.19-2.1c3.73.91,4.64,7.3,5.69,10.45A55.91,55.91,0,0,1,657.28,450.2Z" transform="translate(-420.41 -292.02)"/><path class="cls-2" d="M658.35,450.2a2.8,2.8,0,0,0,.77,2.51,1.9,1.9,0,0,0,2.19-.23,5.41,5.41,0,0,0,1.34-1.92,91.36,91.36,0,0,0,6-15.9c-2.38,5.82-4.38,11.63-4.66,17.91a3,3,0,0,0,.82,2.66,2.12,2.12,0,0,0,2.42-.18,5.94,5.94,0,0,0,1.56-2,120.62,120.62,0,0,0,7.59-16.5c-1,6.2-3.87,11.29-3.69,17.56,0,1.18.37,2.59,1.49,3a2.24,2.24,0,0,0,1.69-.23,6.74,6.74,0,0,0,2.57-3.52q3.42-7.91,6.33-16a112.82,112.82,0,0,0-3.28,14.11c-.42,2.11-.72,4.51.58,6.22a1.31,1.31,0,0,0,.63.51,1.27,1.27,0,0,0,.77-.05c2.49-.77,3.67-3.53,4.52-6q3.59-10.36,6.63-20.91c1.13-3.91-5.17-6.15-7.58-3.42a5.26,5.26,0,0,0-7.34-.66c-1-3.11-6.5-3.33-7.82-.36a4.91,4.91,0,0,0-5.19-2.1c-3.73.91-4.64,7.3-5.7,10.45A56.28,56.28,0,0,0,658.35,450.2Z" transform="translate(-420.41 -292.02)"/><circle class="cls-10" cx="242.93" cy="256.64" r="65.52"/><circle class="cls-11" cx="231.86" cy="256.14" r="65.52"/><path class="cls-5" d="M652.33,602.71c-.85,0-1.7,0-2.56-.05a54.57,54.57,0,1,1,57-52l-.5,0,.5,0a54.55,54.55,0,0,1-54.44,52.06Zm-.12-108.12a53.75,53.75,0,1,0,2.51.06C653.88,494.61,653.05,494.59,652.21,494.59Z" transform="translate(-420.41 -292.02)"/><polygon class="cls-5" points="304.1 280.63 293.03 280.13 293.04 279.13 304.14 279.63 304.1 280.63"/><rect class="cls-5" x="714.76" y="573.91" width="1" height="11.41" transform="translate(-316.95 975.53) rotate(-87.37)"/><rect class="cls-5" x="709.42" y="581.07" width="1" height="12.36" transform="translate(-329.65 977.5) rotate(-87.37)"/><rect class="cls-5" x="703.67" y="589.49" width="1" height="10.76" transform="translate(-342.77 979.01) rotate(-87.37)"/><rect class="cls-5" x="694.05" y="596.3" width="1" height="12.03" transform="translate(-359.35 976.54) rotate(-87.38)"/><rect class="cls-5" x="680.85" y="604.1" width="1" height="10.98" transform="translate(-379.22 970.29) rotate(-87.37)"/><rect class="cls-5" x="720.92" y="558.59" width="1" height="11.08" transform="translate(-295.53 966.96) rotate(-87.38)"/><rect class="cls-5" x="721.95" y="550.48" width="1" height="9.83" transform="translate(-285.87 959.62) rotate(-87.37)"/><rect class="cls-5" x="722.89" y="541.47" width="1" height="10.92" transform="translate(-276.49 952.51) rotate(-87.38)"/><rect class="cls-5" x="722.09" y="533.04" width="1" height="11.08" transform="translate(-268.95 943.7) rotate(-87.37)"/><rect class="cls-5" x="720.38" y="525.08" width="1" height="11.08" transform="matrix(0.05, -1, 1, 0.05, -262.63, 934.39)"/><rect class="cls-5" x="717.49" y="517.7" width="1" height="10.62" transform="translate(-257.76 924.28) rotate(-87.37)"/><rect class="cls-5" x="713.43" y="509.24" width="1" height="10.93" transform="translate(-253.37 912.27) rotate(-87.37)"/><rect class="cls-5" x="708.97" y="502.49" width="1" height="10.24" transform="translate(-250.54 901.04) rotate(-87.37)"/><rect class="cls-5" x="702.52" y="495.46" width="1" height="10.9" transform="translate(-249.96 888.23) rotate(-87.38)"/><rect class="cls-5" x="693.83" y="488.41" width="1" height="11.38" transform="translate(-251.41 873.09) rotate(-87.38)"/><rect class="cls-5" x="682.35" y="482.41" width="1" height="10.74" transform="translate(-256.13 855.53) rotate(-87.37)"/></svg>