<svg id="Layer_1" data-name="Layer 1" xmlns="http://www.w3.org/2000/svg" viewBox="0 0 450.21 290"><defs><style>.cls-1{fill:#dbe6f6;}.cls-2{fill:#4978de;}.cls-3{fill:#383838;}.cls-4{fill:#fff;}.cls-5{fill:#ccc;}.cls-6{fill:#ace2ff;}</style></defs><title>img_07</title><path class="cls-1" d="M1316.24,639.84a619.93,619.93,0,0,1-55.42,50.21c-33.34,26.75-73.15,51.39-118.12,50.59-21-.37-44.75-8.82-51.87-27.09-3.94-10.13-3-23.06-12.53-29.38-5.43-3.58-12.57-3.65-19.17-3.56l-42.17.53c-13,.16-26.11.31-38.7-2.87s-24.74-10.18-30.66-20.89c-12.17-22,3.83-50,17.65-67.31A981.22,981.22,0,0,1,1031.38,516c24.68-25.18,53-47.89,86.28-60.23,16.2-6,36.67-8.61,48.95,3.39,7.42,7.25,9.79,18,15.16,26.84,12.67,20.84,40.37,28.09,65,26.43,28.67-1.92,53.9-11.72,82,1.42,18.27,8.53,32.92,26,34.31,45.81C1365.48,592.72,1337.56,618,1316.24,639.84Z" transform="translate(-941.31 -450.66)"/><path class="cls-2" d="M1187.16,473.59c48.45,15.42,48,52.74,64,67.19L1192,587.58c-7.48-9.15-28.42-36.72-39.72-49.61-21-23.91-40.09-33.07-54.64-16.32l-34.07-9.73S1101.12,446.21,1187.16,473.59Z" transform="translate(-941.31 -450.66)"/><circle class="cls-3" cx="1203.29" cy="514.1" r="9.85" transform="translate(-1046.45 48.95) rotate(-22.5)"/><path class="cls-4" d="M1095.91,530.2a18.3,18.3,0,0,0-3.43-28h0a18.31,18.31,0,0,0-23.87,3.67s-7.64,8.55-9.8,11.69c-5.68,8.3-10.58,22.45-12.87,34.09s-5.88,22,9.41,30.3,16.62-5.46,14.78-8.32-7.39-4.44-7.39-9.52a44.14,44.14,0,0,1,.24-5.36s5.29,8.88,12.66,3c-.16.49-.34,1-.54,1.49-2.34,6-4.53,13.53,3.16,15.45s11.11-10,14.38-19.34c3.13-8.93,5.41-17.14,2.69-26.71a2.47,2.47,0,0,1,.58-2.38Z" transform="translate(-941.31 -450.66)"/><path class="cls-3" d="M1283.32,670.2H1187l-5.83,22.8H1289C1286,673,1283.32,670.2,1283.32,670.2Z" transform="translate(-941.31 -450.66)"/><path class="cls-2" d="M1311.13,570.83c19.35,34.58,45.75,105-8.43,123.15-28.37,9.52-53.36-6.42-70.72-23.77h-44.33l-.38-79.28a48.76,48.76,0,0,1,28.52-44.76l1.27-.56,7.51-2.76,25.31-4.46C1266.4,536.46,1294,540.17,1311.13,570.83Z" transform="translate(-941.31 -450.66)"/><path class="cls-4" d="M1161.61,626.32H1152a.05.05,0,0,1-.06,0,26,26,0,0,0-2.76-6.92l6.76-6.76h0l-8.84-8.84h0l-6.61,6.61a25.4,25.4,0,0,0-7.11-3.09v-9.21h-12.5v9a25.65,25.65,0,0,0-7.4,3l-6.33-6.32h0l-8.84,8.84h0l6.29,6.29a25.67,25.67,0,0,0-3,7.43h-8.93v12.5h9a26,26,0,0,0,3.12,7.25l-6.48,6.48h0l8.84,8.84h0l6.64-6.64a25.61,25.61,0,0,0,7.09,2.81v9.51h12.5v-9.69a26,26,0,0,0,6.82-2.9l6.9,6.91h0l8.84-8.84-6.94-6.94a25.74,25.74,0,0,0,2.83-6.74.06.06,0,0,1,.06,0h9.74v-12.5Zm-27,17.25c-12.74,7.31-25.81-5.76-18.5-18.5a9.53,9.53,0,0,1,3.5-3.49c12.73-7.32,25.81,5.76,18.49,18.49A9.53,9.53,0,0,1,1134.61,643.57Z" transform="translate(-941.31 -450.66)"/><path class="cls-2" d="M1071.4,732h-20.11a.51.51,0,0,1-.5-.5V716.58a41.77,41.77,0,0,1-10.82-4.29l-10.4,10.4a.5.5,0,0,1-.71,0l-14.22-14.22a.5.5,0,0,1,0-.7l10.15-10.15a41.48,41.48,0,0,1-4.78-11.08h-14.16a.5.5,0,0,1-.5-.5V665.93a.5.5,0,0,1,.5-.5h14a42.13,42.13,0,0,1,4.67-11.38l-9.84-9.85a.5.5,0,0,1,0-.7l14.22-14.22a.48.48,0,0,1,.7,0l9.9,9.9a42.08,42.08,0,0,1,11.33-4.57V620.49a.5.5,0,0,1,.5-.5h20.11a.5.5,0,0,1,.5.5v14.42a42,42,0,0,1,10.88,4.72l10.35-10.35a.5.5,0,0,1,.71,0l14.21,14.22a.48.48,0,0,1,0,.7l-10.61,10.61a42,42,0,0,1,4.24,10.62h15.17a.51.51,0,0,1,.5.5V686a.51.51,0,0,1-.5.5h-15.36a42,42,0,0,1-4.33,10.34l10.89,10.89a.48.48,0,0,1,0,.7l-14.21,14.22a.51.51,0,0,1-.71,0l-10.83-10.83a41.83,41.83,0,0,1-10.4,4.41v15.22A.5.5,0,0,1,1071.4,732Zm-19.61-1h19.11v-15.1a.48.48,0,0,1,.37-.48,41,41,0,0,0,10.84-4.61.51.51,0,0,1,.62.07l10.75,10.76L1107,708.12l-10.81-10.81a.52.52,0,0,1-.08-.61,41,41,0,0,0,4.5-10.72.6.6,0,0,1,.58-.44h15.17V666.43h-15a.59.59,0,0,1-.58-.46,41,41,0,0,0-4.39-11,.49.49,0,0,1,.08-.6L1107,643.85l-13.51-13.51-10.28,10.28a.5.5,0,0,1-.62.07,40.73,40.73,0,0,0-11.31-4.91.5.5,0,0,1-.37-.48V621h-19.11v14a.49.49,0,0,1-.38.48,40.86,40.86,0,0,0-11.77,4.75.51.51,0,0,1-.61-.08l-9.82-9.82-13.51,13.51,9.77,9.77a.5.5,0,0,1,.07.61,40.93,40.93,0,0,0-4.85,11.82.49.49,0,0,1-.48.38h-13.86v19.11h14a.48.48,0,0,1,.48.37,41,41,0,0,0,5,11.52.49.49,0,0,1-.07.62l-10.07,10.07,13.51,13.51,10.32-10.32a.5.5,0,0,1,.6-.08,40.86,40.86,0,0,0,11.28,4.46.51.51,0,0,1,.38.49Zm50-65.25h0Zm-40.47,31.81a21.21,21.21,0,0,1-15.19-6.31c-7.22-7.21-8.34-18-2.87-27.57a15.87,15.87,0,0,1,5.81-5.81c9.54-5.47,20.36-4.35,27.58,2.87s8.33,18,2.86,27.57a15.72,15.72,0,0,1-5.81,5.81h0A24.86,24.86,0,0,1,1061.28,697.55Zm.13-42.13a23.85,23.85,0,0,0-11.88,3.31,14.79,14.79,0,0,0-5.44,5.44c-5.24,9.13-4.18,19.48,2.71,26.37s17.23,7.94,26.36,2.7h0a14.71,14.71,0,0,0,5.44-5.44c5.25-9.13,4.18-19.48-2.7-26.37A20.3,20.3,0,0,0,1061.41,655.42Zm12,38.25h0Z" transform="translate(-941.31 -450.66)"/><circle class="cls-3" cx="1223.06" cy="510.22" r="25.01" transform="translate(-620.09 1030.57) rotate(-69.76)"/><path class="cls-4" d="M1243.64,524.43c-8.87,4.68-16.3.75-17.06-6.59,0,0-11.19-21.77-20.84-18.55-5.9,2.95-8.21,10-6.55,17.88.73,3.44,2.09,12.9,4.38,19.58s5.21,14.19,21,6.1l5,10.83,21.62-12.9Z" transform="translate(-941.31 -450.66)"/><path class="cls-3" d="M1226.89,551.65a.84.84,0,0,1-.8-.6l-2-7c-6.26,3.07-11,3.89-14.47,2.49-4.11-1.66-5.66-6.19-6.79-9.5a119.72,119.72,0,0,1-3.77-16.31c-.25-1.37-.46-2.56-.63-3.37-1.81-8.53.87-15.73,7-18.79a.82.82,0,0,1,1.1.37.83.83,0,0,1-.36,1.11c-5.41,2.7-7.75,9.21-6.11,17,.18.84.39,2,.64,3.42a118.12,118.12,0,0,0,3.71,16.06c1.33,3.91,2.7,7.24,5.85,8.51s7.73.33,14-2.88a.82.82,0,0,1,.7,0,.83.83,0,0,1,.47.53l2.32,8a.84.84,0,0,1-.56,1Z" transform="translate(-941.31 -450.66)"/><path class="cls-3" d="M1224.57,543.67a.82.82,0,0,1-.39-1.55l5.55-2.94a.82.82,0,0,1,1.11.34.84.84,0,0,1-.34,1.12l-5.55,2.94A.85.85,0,0,1,1224.57,543.67Z" transform="translate(-941.31 -450.66)"/><path class="cls-3" d="M1216.54,519.14a1.67,1.67,0,0,1-3,1.4,1.67,1.67,0,1,1,3-1.4Z" transform="translate(-941.31 -450.66)"/><path class="cls-3" d="M1204,521.58a1.67,1.67,0,1,1-2.21-.81A1.67,1.67,0,0,1,1204,521.58Z" transform="translate(-941.31 -450.66)"/><path class="cls-3" d="M1230.62,539.77s2.76,9.57-3.73,11.59l-2.32-8.51Z" transform="translate(-941.31 -450.66)"/><path class="cls-3" d="M1315.56,650.53a.82.82,0,0,1-.82-.75c-.08-.85-2.19-20.84-23-24.53l-.17,0c-21.73-3.86-36.09-6.4-58.78-18.71a.82.82,0,0,1,.78-1.45c22.47,12.18,36.72,14.71,58.29,18.54l.17,0c22,3.91,24.3,25.78,24.32,26a.82.82,0,0,1-.74.89Z" transform="translate(-941.31 -450.66)"/><path class="cls-3" d="M1274.38,621.68a.82.82,0,0,1-.8-.63l-9-37.79a.83.83,0,0,1,.61-1,.81.81,0,0,1,1,.61l9,37.79a.83.83,0,0,1-.61,1A.68.68,0,0,1,1274.38,621.68Z" transform="translate(-941.31 -450.66)"/><path class="cls-3" d="M1230.05,567a5.43,5.43,0,0,1-.57,0c-12.71-.87-13.23-20.28-13.24-21.11a.82.82,0,0,1,.8-.84.83.83,0,0,1,.84.81c0,.19.51,18.73,11.72,19.5,11.53.81,34.77-27.08,35-27.36a.82.82,0,0,1,1.27,1C1264.92,540.17,1242.56,567,1230.05,567Z" transform="translate(-941.31 -450.66)"/><path class="cls-3" d="M1232,671a.83.83,0,0,1-.6-.26c-.1-.1-2.7-2.93-21.14-30.78a.83.83,0,0,1,1.38-.91c18.35,27.73,20.93,30.53,21,30.56a.81.81,0,0,1,0,1.16A.78.78,0,0,1,1232,671Z" transform="translate(-941.31 -450.66)"/><path class="cls-3" d="M1178.15,573,1198,618.11a7,7,0,0,0,9.67,3.27h0a7,7,0,0,0,2.89-9.58l-25-43.3Z" transform="translate(-941.31 -450.66)"/><path class="cls-5" d="M1161.91,481.54a39.57,39.57,0,0,0-10.61-8.18c-5.66-2.76-9.84-1.89-12.36-.68l-7.38,3.56h0c-2.49,1.26-5.63,4-7,10a39.81,39.81,0,0,0-.19,13.4c1.3,10.06,5.22,22.24,11.06,34.32s12.93,22.73,20,30a39.57,39.57,0,0,0,10.61,8.18c5.66,2.76,9.84,1.89,12.35.68l.42-.21,6.75-3.25c2.52-1.22,5.8-4,7.15-10.1a39.78,39.78,0,0,0,.2-13.4c-1.3-10.06-5.23-22.24-11.06-34.32S1169,488.8,1161.91,481.54Z" transform="translate(-941.31 -450.66)"/><ellipse class="cls-4" cx="1154.52" cy="524.77" rx="15.53" ry="48.07" transform="translate(-1054.63 103.68) rotate(-25.78)"/><path class="cls-3" d="M1173,569.39c-8.69,0-22.53-15.34-33.25-37.51-11.92-24.69-14.79-47.15-6.53-51.14s24.06,12.23,36,36.91,14.8,47.15,6.54,51.14A6.17,6.17,0,0,1,1173,569.39Zm-37-87.63a4.79,4.79,0,0,0-2.11.46c-7.18,3.47-3.83,25.88,7.31,48.94,10.14,21,23.88,36.61,31.67,36.61a4.84,4.84,0,0,0,2.12-.46c7.17-3.47,3.83-25.88-7.31-48.94C1157.62,497.37,1143.88,481.76,1136.08,481.76Z" transform="translate(-941.31 -450.66)"/><ellipse class="cls-3" cx="1154.52" cy="524.77" rx="9.15" ry="28.33" transform="translate(-1054.63 103.68) rotate(-25.78)"/><path class="cls-4" d="M1231.6,604.86l-15.64-8s-11.79-17.18-22.52-14.66c0,0,4,6.76-.9,8.52s-8.83-6.4-8.83-6.4-9.58,7.92-4.91,15.47c0,0-4.78,10.78,3,15.25,0,0-3.71,9.47,5.36,12.9,0,0-1,4.81,4.25,7.42,1.45.72,17.58,4.34,17.58,4.34l.31.24a20.84,20.84,0,0,0,33-11.54h0A20.85,20.85,0,0,0,1231.6,604.86Z" transform="translate(-941.31 -450.66)"/><path class="cls-3" d="M1190.35,619.25a.8.8,0,0,1-.3-.06l-8.54-3.43a.83.83,0,0,1,.62-1.53l8.53,3.43a.83.83,0,0,1,.46,1.08A.82.82,0,0,1,1190.35,619.25Z" transform="translate(-941.31 -450.66)"/><path class="cls-3" d="M1190.2,630.1a.8.8,0,0,1-.34-.07l-3-1.38a.83.83,0,0,1,.69-1.5l3,1.38a.82.82,0,0,1-.34,1.57Z" transform="translate(-941.31 -450.66)"/><path class="cls-3" d="M1193.44,607.31a.81.81,0,0,1-.34-.08l-14.64-6.73a.83.83,0,1,1,.69-1.5l14.63,6.74a.82.82,0,0,1,.41,1.09A.83.83,0,0,1,1193.44,607.31Z" transform="translate(-941.31 -450.66)"/><path class="cls-3" d="M1092.93,575.53l-4.75,2.53h0a14.56,14.56,0,0,0-3.19-2.69l1.57-5.12h0l-6.69-2h0l-1.53,5a14.45,14.45,0,0,0-4.33.35l-2.42-4.55h0l-6.17,3.28h0l2.37,4.46a14.59,14.59,0,0,0-2.87,3.42l-4.79-1.46h0l-2,6.69h0l4.76,1.45a14.51,14.51,0,0,0,.45,4.48h0l-4.41,2.34h0l3.29,6.18h0l4.46-2.38h0a14.45,14.45,0,0,0,3.45,2.76l-1.5,4.9h0l6.69,2h0l1.54-5a14.28,14.28,0,0,0,4.24-.48l2.5,4.7h0l6.17-3.28h0l-2.55-4.79a14.58,14.58,0,0,0,2.61-3.22l5.23,1.59h0l2-6.69-5.26-1.6a14.41,14.41,0,0,0-.37-4.07s0,0,0,0l4.81-2.56h0l-3.29-6.17Zm-8.8,15.61c-4.37,7-14.26,3.94-14-4.27a5.31,5.31,0,0,1,.81-2.65c4.37-7,14.26-3.94,14,4.27A5.28,5.28,0,0,1,1084.13,591.14Z" transform="translate(-941.31 -450.66)"/><path class="cls-3" d="M1070.82,573.15a12.8,12.8,0,0,0-3.06-2.92c-2.06-1.59-4.19-3.24-4.19-6.16,0-1.27,0-2.88.15-4.51-.48-.61-1-1.21-1.42-1.83a38.4,38.4,0,0,0-.38,6.34c0,3.73,2.68,5.8,4.84,7.47a12.11,12.11,0,0,1,2.68,2.5,5.74,5.74,0,0,1,.5,2.86,15.7,15.7,0,0,0,1.65.26A7.06,7.06,0,0,0,1070.82,573.15Z" transform="translate(-941.31 -450.66)"/><path class="cls-3" d="M1074.37,575c-1.52-3,0-7.71,1.5-11.51.28-.73.51-1.4.71-2.06a16.08,16.08,0,0,1-2.25,1.47c-1.72,4.38-3.24,9.33-1.42,12.85a6,6,0,0,0,1,1.46,11.94,11.94,0,0,0,2.14-.35A4.88,4.88,0,0,1,1074.37,575Z" transform="translate(-941.31 -450.66)"/><path class="cls-3" d="M1076.43,553.73c-1.09-1.81-3.18-2.9-6.21-3.24a6.46,6.46,0,0,0-5.24,1.43,9.8,9.8,0,0,0-2.68,5.81c.45.62.94,1.22,1.42,1.83.24-2.51.83-5,2.36-6.41a4.81,4.81,0,0,1,4-1c2.49.28,4.16,1.11,5,2.46,1,1.72.8,4.51-.68,8.3v0a16.08,16.08,0,0,0,2.25-1.47C1077.58,558.12,1077.54,555.58,1076.43,553.73Z" transform="translate(-941.31 -450.66)"/><circle class="cls-3" cx="1200.85" cy="499.07" r="10.93" transform="translate(-942.48 544.65) rotate(-45)"/><path class="cls-3" d="M1200.84,510.72A11.76,11.76,0,1,1,1212.59,499c0,.61.76,1.2.67,1.79s-1,.92-1.1,1.36A11.76,11.76,0,0,1,1200.84,510.72Zm0-21.86a10.11,10.11,0,1,0,10.1,10.11A10.12,10.12,0,0,0,1200.84,488.86Z" transform="translate(-941.31 -450.66)"/><circle class="cls-3" cx="280.77" cy="54.82" r="10.6"/><path class="cls-4" d="M1235,516.73a7.43,7.43,0,1,1-9.85-3.64A7.42,7.42,0,0,1,1235,516.73Z" transform="translate(-941.31 -450.66)"/><path class="cls-3" d="M1227.57,522.44h-.16a.83.83,0,0,1-.65-1l.87-4.59a.82.82,0,1,1,1.62.31l-.87,4.59A.82.82,0,0,1,1227.57,522.44Z" transform="translate(-941.31 -450.66)"/><path class="cls-3" d="M1207.43,532a.82.82,0,0,1-.82-.71l-1.5-11.57a.82.82,0,0,1,1.63-.21l1.5,11.56a.82.82,0,0,1-.71.93Z" transform="translate(-941.31 -450.66)"/><path class="cls-3" d="M1206.52,535.07a.82.82,0,0,1-.13-1.64l3.62-.55a.82.82,0,1,1,.25,1.63l-3.62.55Z" transform="translate(-941.31 -450.66)"/><path class="cls-3" d="M1007.8,539.27l-5.4,11a30.81,30.81,0,0,0-32-2.4l-5.7-10.75a42.83,42.83,0,0,1,43.06,2.13Z" transform="translate(-941.31 -450.66)"/><path class="cls-2" d="M1027.59,575.94a43.69,43.69,0,0,1-6.45,22.93A42.93,42.93,0,0,1,977.58,619l3.1-11.87a29.25,29.25,0,0,0,3.77.23A31,31,0,0,0,1010.54,593a31.63,31.63,0,0,0-8.14-42.73l5.4-11A43.69,43.69,0,0,1,1027.59,575.94Z" transform="translate(-941.31 -450.66)"/><path class="cls-6" d="M980.68,607.12,977.58,619a43.33,43.33,0,0,1-33.92-28.82l11.89-2.64A31.16,31.16,0,0,0,980.68,607.12Z" transform="translate(-941.31 -450.66)"/><path class="cls-5" d="M953.36,575.94a31.6,31.6,0,0,0,2.19,11.59l-11.89,2.64a43.93,43.93,0,0,1,21.08-53l5.7,10.75A31.45,31.45,0,0,0,953.36,575.94Z" transform="translate(-941.31 -450.66)"/><path class="cls-3" d="M1370.16,646.81a3.65,3.65,0,0,1-3.65-3.65V554.31a3.65,3.65,0,1,1,7.3,0v88.85A3.66,3.66,0,0,1,1370.16,646.81Zm0-95.16a2.66,2.66,0,0,0-2.65,2.66v88.85a2.65,2.65,0,1,0,5.3,0V554.31A2.66,2.66,0,0,0,1370.16,551.65Z" transform="translate(-941.31 -450.66)"/><path class="cls-3" d="M1385.69,646.81a3.66,3.66,0,0,1-3.65-3.65V554.31a3.65,3.65,0,1,1,7.3,0v88.85A3.65,3.65,0,0,1,1385.69,646.81Zm0-95.16a2.66,2.66,0,0,0-2.65,2.66v88.85a2.65,2.65,0,1,0,5.3,0V554.31A2.66,2.66,0,0,0,1385.69,551.65Z" transform="translate(-941.31 -450.66)"/><ellipse class="cls-2" cx="428.85" cy="156.59" rx="5.83" ry="5.89"/><ellipse class="cls-2" cx="444.38" cy="114.44" rx="5.83" ry="5.89"/><path class="cls-3" d="M1354.5,646.81a3.66,3.66,0,0,1-3.66-3.65V554.31a3.66,3.66,0,1,1,7.31,0v88.85A3.66,3.66,0,0,1,1354.5,646.81Zm0-95.16a2.67,2.67,0,0,0-2.66,2.66v88.85a2.66,2.66,0,0,0,5.31,0V554.31A2.66,2.66,0,0,0,1354.5,551.65Z" transform="translate(-941.31 -450.66)"/><ellipse class="cls-2" cx="413.02" cy="139.13" rx="5.83" ry="5.89"/><path class="cls-3" d="M1289.25,501.83a68.68,68.68,0,0,0-5.52,16.34,1.12,1.12,0,0,1-1.35.86,1.14,1.14,0,0,1-.86-1.36,70,70,0,0,1,6.19-17.8Z" transform="translate(-941.31 -450.66)"/><path class="cls-3" d="M1308.64,501.68h0l-1.79,2.31-.07-.32c-1-4.3-2.28-8.59-5.45-11a4.83,4.83,0,0,0-2.32-1c-1.65-.19-3.45.92-5.35,3.27a39.13,39.13,0,0,0-4.41,6.9l-1.54-2a40.82,40.82,0,0,1,4.2-6.38c2.41-3,4.89-4.37,7.35-4.1a7.15,7.15,0,0,1,3.42,1.48C1306,493.39,1307.59,497.47,1308.64,501.68Z" transform="translate(-941.31 -450.66)"/><path class="cls-5" d="M1326.17,506.83a42.91,42.91,0,0,1-3.17,7c-2,3.47-4.85,5.23-7.5,4.71a6.74,6.74,0,0,1-3.52-2.15c-3.1-3.3-4.1-7.78-5.06-12.11l-.07-.31,1.79-2.31c.12.5.23,1,.34,1.48l.15.64c.89,4,1.81,8.19,4.49,11a4.47,4.47,0,0,0,2.31,1.49c2.49.49,4.55-2.66,5.12-3.63a41.85,41.85,0,0,0,3.22-7.26Z" transform="translate(-941.31 -450.66)"/><path class="cls-5" d="M1351,497.31l-2,1.13c-.14-.52-.29-1-.45-1.54a17.21,17.21,0,0,0-3.31-6.44,7.86,7.86,0,0,0-5.88-2.86c-3.9.11-6.67,4-7.68,5.67a51.79,51.79,0,0,0-4.31,10.22c-.38,1.11-.76,2.22-1.16,3.34l-1.9-1.4c.32-.9.62-1.79.92-2.68a54.24,54.24,0,0,1,4.52-10.68c2.55-4.19,6-6.66,9.54-6.75a10,10,0,0,1,7.63,3.62,19.29,19.29,0,0,1,3.79,7.27C1350.78,496.58,1350.89,496.94,1351,497.31Z" transform="translate(-941.31 -450.66)"/><path class="cls-2" d="M1359.76,520.77a1.13,1.13,0,0,1-.86.4,1.12,1.12,0,0,1-.73-.27c-3-2.54-5.12-6.31-6.61-11.54-.55-1.92-1-3.88-1.39-5.78-.37-1.7-.74-3.44-1.21-5.14l2-1.13c.55,1.92,1,3.88,1.39,5.78s.82,3.79,1.35,5.64c1.36,4.78,3.29,8.19,5.9,10.43A1.14,1.14,0,0,1,1359.76,520.77Z" transform="translate(-941.31 -450.66)"/><path class="cls-2" d="M1368.8,471.5v5.32h-92.59V471.5a2.93,2.93,0,0,1,3-2.85h86.58A2.94,2.94,0,0,1,1368.8,471.5Z" transform="translate(-941.31 -450.66)"/><ellipse class="cls-4" cx="421.41" cy="22.07" rx="1.28" ry="1.3"/><ellipse class="cls-4" cx="416.42" cy="22.07" rx="1.28" ry="1.3"/><ellipse class="cls-4" cx="411.08" cy="22.07" rx="1.28" ry="1.3"/><path class="cls-3" d="M1299,495.29a.33.33,0,0,1-.33-.33v-3.3a.33.33,0,0,1,.66,0V495A.33.33,0,0,1,1299,495.29Z" transform="translate(-941.31 -450.66)"/><path class="cls-3" d="M1299,500.66a.33.33,0,0,1-.33-.33V497a.33.33,0,1,1,.66,0v3.3A.33.33,0,0,1,1299,500.66Z" transform="translate(-941.31 -450.66)"/><path class="cls-3" d="M1299,506.21a.33.33,0,0,1-.33-.33v-3.3a.33.33,0,1,1,.66,0v3.3A.33.33,0,0,1,1299,506.21Z" transform="translate(-941.31 -450.66)"/><path class="cls-3" d="M1299,511.23a.33.33,0,0,1-.33-.33v-3.3a.33.33,0,0,1,.66,0v3.3A.33.33,0,0,1,1299,511.23Z" transform="translate(-941.31 -450.66)"/><path class="cls-3" d="M1299,517.06a.33.33,0,0,1-.33-.33v-3.3a.33.33,0,0,1,.66,0v3.3A.33.33,0,0,1,1299,517.06Z" transform="translate(-941.31 -450.66)"/><path class="cls-3" d="M1299,488.61a.32.32,0,0,1-.28-.17l-1.49-2.61a2,2,0,0,1,3.54-2,2,2,0,0,1,0,2l-1.49,2.61A.34.34,0,0,1,1299,488.61Zm0-5.18a1.38,1.38,0,0,0-1.2.69,1.41,1.41,0,0,0,0,1.39l1.21,2.11,1.21-2.11a1.39,1.39,0,0,0-1.21-2.08Z" transform="translate(-941.31 -450.66)"/><rect class="cls-2" x="397.7" y="37.14" width="1" height="3.3"/><rect class="cls-2" x="397.7" y="42.51" width="1" height="3.3"/><rect class="cls-2" x="397.7" y="48.06" width="1" height="3.3"/><rect class="cls-2" x="397.7" y="53.08" width="1" height="3.3"/><rect class="cls-2" x="397.7" y="58.9" width="1" height="3.3"/><rect class="cls-2" x="397.7" y="64.42" width="1" height="3.3"/><path class="cls-2" d="M1339.51,485.76l-1.92-3.37a2.19,2.19,0,0,1,0-2.21,2.22,2.22,0,0,1,3.85,2.21Zm0-5.68a1.21,1.21,0,0,0-1,1.82l1,1.85,1.06-1.85a1.22,1.22,0,0,0-1.06-1.82Z" transform="translate(-941.31 -450.66)"/><path class="cls-2" d="M1365.79,524h-86.58a3.44,3.44,0,0,1-3.5-3.35V471.5a3.43,3.43,0,0,1,3.5-3.35h86.58a3.44,3.44,0,0,1,3.51,3.35v49.18A3.44,3.44,0,0,1,1365.79,524Zm-86.58-54.88a2.43,2.43,0,0,0-2.5,2.35v49.18a2.43,2.43,0,0,0,2.5,2.35h86.58a2.44,2.44,0,0,0,2.51-2.35V471.5a2.44,2.44,0,0,0-2.51-2.35Z" transform="translate(-941.31 -450.66)"/></svg>