<svg id="Layer_1" data-name="Layer 1" xmlns="http://www.w3.org/2000/svg" viewBox="0 0 206.1 124.04"><defs><style>.cls-1{fill:#f1c1b2;}.cls-2{fill:#4978de;}.cls-3{fill:#383838;}.cls-4{fill:#fff;}</style></defs><title>img_04</title><path class="cls-1" d="M1190.5,616.94c-.4,4-2.09,8.22-5.92,10.15-4.64,2.34-10.45.43-15-2.07-7.18-4-13.29-9.28-19.5-14.41a225.18,225.18,0,0,0-26.16-19c-8.82-5.37-19.24-9.1-30-8.49-4.92.28-9.89,1.5-13.79,4.24-7.06,5-9.28,13.81-9.14,21.92.17,10.58,4,19.62,7.9,29.32A332.52,332.52,0,0,0,1093,668.75c7.53,14.26,17,28.86,32.59,35.92,4.88,2.21,10.9,3.54,15.65,1.1s6.56-7.54,7-12.35-.3-9.72.77-14.44a5.75,5.75,0,0,1,1.7-3.26c2.41-2,6.26-.4,8.81,1.45,6.45,4.66,11.61,10.59,17.41,15.91s12.57,10.19,20.61,11.83,17.51-.76,21.69-7.21c4-6.24,2.28-14.22,4.5-21.17a7.67,7.67,0,0,1,2.19-3.67c2.33-2,6-1.6,9-.72,9.64,2.84,17.64,9.88,27.68,11.15,4.08.52,8.62-.11,11.5-2.78a10.58,10.58,0,0,0,2.91-9.25c-.74-5.33-4.17-9.8-7-14.35-3.15-5-6.33-9.94-9.59-14.86-6.5-9.84-13.31-19.52-20.8-28.76-5.57-6.88-11.55-13.57-18.75-19.06a35.55,35.55,0,0,0-11.85-6.36c-6-1.67-12.29-.77-15.67,4.43C1188.3,599.94,1191.33,608.63,1190.5,616.94Z" transform="translate(-1071 -583.03)"/><path class="cls-1" d="M1190.5,616.94c-.4,4-2.09,8.22-5.92,10.15-4.64,2.34-10.45.43-15-2.07-7.18-4-13.29-9.28-19.5-14.41a225.18,225.18,0,0,0-26.16-19c-8.82-5.37-19.24-9.1-30-8.49-4.92.28-9.89,1.5-13.79,4.24-7.06,5-9.28,13.81-9.14,21.92.17,10.58,4,19.62,7.9,29.32A332.52,332.52,0,0,0,1093,668.75c7.53,14.26,17,28.86,32.59,35.92,4.88,2.21,10.9,3.54,15.65,1.1s6.56-7.54,7-12.35-.3-9.72.77-14.44a5.75,5.75,0,0,1,1.7-3.26c2.41-2,6.26-.4,8.81,1.45,6.45,4.66,11.61,10.59,17.41,15.91s12.57,10.19,20.61,11.83,17.51-.76,21.69-7.21c4-6.24,2.28-14.22,4.5-21.17a7.67,7.67,0,0,1,2.19-3.67c2.33-2,6-1.6,9-.72,9.64,2.84,17.64,9.88,27.68,11.15,4.08.52,8.62-.11,11.5-2.78a10.58,10.58,0,0,0,2.91-9.25c-.74-5.33-4.17-9.8-7-14.35-3.15-5-6.33-9.94-9.59-14.86-6.5-9.84-13.31-19.52-20.8-28.76-5.57-6.88-11.55-13.57-18.75-19.06a35.55,35.55,0,0,0-11.85-6.36c-6-1.67-12.29-.77-15.67,4.43C1188.3,599.94,1191.33,608.63,1190.5,616.94Z" transform="translate(-1071 -583.03)"/><path class="cls-2" d="M1078.91,638.58c-4-9.7-7.73-18.74-7.9-29.32a34.48,34.48,0,0,1,1.47-10.94c.25-.12,90.84,7.14,90.84,7.14s0,6.39-1.15,7.79l-9.05,69.14-48.44,5a125.68,125.68,0,0,1-11.7-18.68A332.52,332.52,0,0,1,1078.91,638.58Z" transform="translate(-1071 -583.03)"/><path class="cls-3" d="M1152.35,682.34c-7.36-1.05-10.88-19.11-7.85-40.34s11.45-37.59,18.82-36.54,10.88,19.12,7.85,40.34S1159.72,683.39,1152.35,682.34Z" transform="translate(-1071 -583.03)"/><path class="cls-4" d="M1206.12,669.92c5.57,5.12,12.19,2.65,15.83-2.13,4.67-6.13-.79-15.19-.79-15.19s3.62-.57,4.1-8.68c.21-3.64-2.12-6.58-4.75-8.71,4.87,0,16.62.12,21,.09,7.54-.06,10.68-1,14.5-4.1,3.45-2.82,4.63-14.83-2.93-16.83-2.89-.77-27.76-1.84-45.45-1.9-7.91-.36-15.32-.55-18.75-.2-1.74.18-9.44,1.34-18.49,2.73l-12.09,1.89a32.75,32.75,0,0,1-7,.19,90.62,90.62,0,0,0-6.91,24.84c-1.78,12.47-1.3,23.84.89,31.32l4.37.3,1.64.11a32.09,32.09,0,0,0,10.15,1.9,30.77,30.77,0,0,0,16.33-4.13c9.51,6.48,14.72,7.88,16.14,7.84C1203.57,678.94,1206.12,669.92,1206.12,669.92Z" transform="translate(-1071 -583.03)"/><path class="cls-3" d="M1157.57,658.29a1.09,1.09,0,0,1,0-.44,1,1,0,0,1,1.28-.66c16.77,5.38,26.47-10.85,26.57-11a1,1,0,0,1,.79-.5,1,1,0,0,1,.87.36l19.77,23.23a1,1,0,0,1-1.55,1.32l-18.9-22.21c-2.75,3.88-12.68,15.73-28.18,10.76A1,1,0,0,1,1157.57,658.29Z" transform="translate(-1071 -583.03)"/><path class="cls-3" d="M1171.31,658.35a1,1,0,0,1,2-.44c0,.09,2.67,8.31,7.49,14a1,1,0,0,1-1.55,1.32c-5.1-6-7.77-14.32-7.88-14.67A1.16,1.16,0,0,1,1171.31,658.35Z" transform="translate(-1071 -583.03)"/><path class="cls-3" d="M1186.76,617.42a1.09,1.09,0,0,1,.13-.63,1,1,0,0,1,1.38-.39l10.11,5.63a31.61,31.61,0,0,1,11.09,10.38l12.3,19a1,1,0,1,1-1.71,1.1l-12.3-19a29.54,29.54,0,0,0-10.38-9.71l-10.1-5.63A1,1,0,0,1,1186.76,617.42Z" transform="translate(-1071 -583.03)"/><path class="cls-3" d="M1205.48,629.81a.9.9,0,0,1,0-.43,1,1,0,0,1,1.27-.67c.45.14,11,3.46,14.44,5.77a1,1,0,0,1-1.15,1.69c-3.16-2.14-13.79-5.48-13.89-5.51A1,1,0,0,1,1205.48,629.81Z" transform="translate(-1071 -583.03)"/></svg>