<svg id="Layer_1" data-name="Layer 1" xmlns="http://www.w3.org/2000/svg" viewBox="0 0 206.1 124.04"><defs><style>.cls-1{fill:#f1c1b2;}.cls-2{fill:#4978de;}.cls-3{fill:#383838;}.cls-4{fill:#fff;}</style></defs><title>img_04_02</title><path class="cls-1" d="M1157.6,616.94c.4,4,2.08,8.22,5.92,10.15,4.63,2.34,10.45.43,15-2.07,7.17-4,13.29-9.28,19.5-14.41a224.21,224.21,0,0,1,26.15-19c8.82-5.37,19.24-9.1,30-8.49,4.91.28,9.89,1.5,13.79,4.24,7,5,9.27,13.81,9.14,21.92-.18,10.58-4,19.62-7.9,29.32q-6.26,15.38-14.07,30.17c-7.54,14.26-17,28.86-32.59,35.92-4.88,2.21-10.91,3.54-15.66,1.1s-6.56-7.54-7-12.35.31-9.72-.77-14.44a5.63,5.63,0,0,0-1.7-3.26c-2.41-2-6.25-.4-8.8,1.45-6.45,4.66-11.61,10.59-17.41,15.91s-12.57,10.19-20.61,11.83-17.52-.76-21.7-7.21c-4-6.24-2.28-14.22-4.5-21.17a7.73,7.73,0,0,0-2.18-3.67c-2.33-2-6-1.6-9-.72-9.65,2.84-17.64,9.88-27.68,11.15-4.08.52-8.62-.11-11.5-2.78a10.55,10.55,0,0,1-2.91-9.25c.73-5.33,4.16-9.8,7-14.35,3.15-5,6.33-9.94,9.58-14.86,6.51-9.84,13.32-19.52,20.8-28.76,5.57-6.88,11.56-13.57,18.76-19.06a35.5,35.5,0,0,1,11.84-6.36c6-1.67,12.29-.77,15.68,4.43C1159.79,599.94,1156.76,608.63,1157.6,616.94Z" transform="translate(-1071 -583.03)"/><path class="cls-1" d="M1157.6,616.94c.4,4,2.08,8.22,5.92,10.15,4.63,2.34,10.45.43,15-2.07,7.17-4,13.29-9.28,19.5-14.41a224.21,224.21,0,0,1,26.15-19c8.82-5.37,19.24-9.1,30-8.49,4.91.28,9.89,1.5,13.79,4.24,7,5,9.27,13.81,9.14,21.92-.18,10.58-4,19.62-7.9,29.32q-6.26,15.38-14.07,30.17c-7.54,14.26-17,28.86-32.59,35.92-4.88,2.21-10.91,3.54-15.66,1.1s-6.56-7.54-7-12.35.31-9.72-.77-14.44a5.63,5.63,0,0,0-1.7-3.26c-2.41-2-6.25-.4-8.8,1.45-6.45,4.66-11.61,10.59-17.41,15.91s-12.57,10.19-20.61,11.83-17.52-.76-21.7-7.21c-4-6.24-2.28-14.22-4.5-21.17a7.73,7.73,0,0,0-2.18-3.67c-2.33-2-6-1.6-9-.72-9.65,2.84-17.64,9.88-27.68,11.15-4.08.52-8.62-.11-11.5-2.78a10.55,10.55,0,0,1-2.91-9.25c.73-5.33,4.16-9.8,7-14.35,3.15-5,6.33-9.94,9.58-14.86,6.51-9.84,13.32-19.52,20.8-28.76,5.57-6.88,11.56-13.57,18.76-19.06a35.5,35.5,0,0,1,11.84-6.36c6-1.67,12.29-.77,15.68,4.43C1159.79,599.94,1156.76,608.63,1157.6,616.94Z" transform="translate(-1071 -583.03)"/><path class="cls-2" d="M1269.19,638.58c3.94-9.7,7.72-18.74,7.9-29.32a34.77,34.77,0,0,0-1.47-10.94c-.26-.12-90.84,7.14-90.84,7.14s0,6.39,1.14,7.79l9,69.14,48.45,5a125.68,125.68,0,0,0,11.7-18.68Q1262.92,654,1269.19,638.58Z" transform="translate(-1071 -583.03)"/><path class="cls-3" d="M1195.74,682.34c7.37-1.05,10.88-19.11,7.85-40.34s-11.45-37.59-18.81-36.54-10.88,19.12-7.86,40.34S1188.38,683.39,1195.74,682.34Z" transform="translate(-1071 -583.03)"/><path class="cls-4" d="M1142,669.92c-5.57,5.12-12.18,2.65-15.83-2.13-4.67-6.13.8-15.19.8-15.19s-3.62-.57-4.1-8.68c-.22-3.64,2.11-6.58,4.74-8.71-4.87,0-16.62.12-21,.09-7.54-.06-10.68-1-14.5-4.1-3.44-2.82-4.62-14.83,2.93-16.83,2.9-.77,27.77-1.84,45.46-1.9,7.9-.36,15.32-.55,18.75-.2,1.74.18,9.43,1.34,18.49,2.73l12.08,1.89a32.86,32.86,0,0,0,7,.19,91,91,0,0,1,6.91,24.84c1.77,12.47,1.29,23.84-.9,31.32l-4.36.3-1.64.11a32.1,32.1,0,0,1-10.16,1.9,30.72,30.72,0,0,1-16.32-4.13c-9.52,6.48-14.72,7.88-16.14,7.84C1144.53,678.94,1142,669.92,1142,669.92Z" transform="translate(-1071 -583.03)"/><path class="cls-3" d="M1190.52,658.29a.93.93,0,0,0,0-.44,1,1,0,0,0-1.28-.66c-16.77,5.38-26.48-10.85-26.58-11a1,1,0,0,0-.79-.5,1,1,0,0,0-.86.36l-19.77,23.23a1,1,0,0,0,.11,1.43,1,1,0,0,0,1.44-.11l18.9-22.21c2.75,3.88,12.68,15.73,28.17,10.76A1,1,0,0,0,1190.52,658.29Z" transform="translate(-1071 -583.03)"/><path class="cls-3" d="M1176.78,658.35a1,1,0,0,0-2-.44c0,.09-2.66,8.31-7.49,14a1,1,0,0,0,.12,1.43,1,1,0,0,0,1.43-.11c5.1-6,7.77-14.32,7.88-14.67A1.16,1.16,0,0,0,1176.78,658.35Z" transform="translate(-1071 -583.03)"/><path class="cls-3" d="M1161.33,617.42a1,1,0,0,0-1.5-1L1149.72,622a31.52,31.52,0,0,0-11.09,10.38l-12.3,19a1,1,0,1,0,1.71,1.1l12.3-19a29.51,29.51,0,0,1,10.37-9.71l10.11-5.63A1,1,0,0,0,1161.33,617.42Z" transform="translate(-1071 -583.03)"/><path class="cls-3" d="M1142.62,629.81a1.26,1.26,0,0,0,0-.43,1,1,0,0,0-1.28-.67c-.45.14-11,3.46-14.43,5.77a1,1,0,0,0,1.14,1.69c3.17-2.14,13.79-5.48,13.9-5.51A1,1,0,0,0,1142.62,629.81Z" transform="translate(-1071 -583.03)"/></svg>